<svg width="24" height="24" viewBox="0 0 24 24" fill="currentColor" xmlns="http://www.w3.org/2000/svg">
<path d="M5.53167 5.37417C6.10614 4.89204 6.91962 4.88475 7.49945 5.30776L9.73285 7.88393C10.9291 9.26421 13.0708 9.26421 14.267 7.88393L14.977 7.06362C15.0487 6.99978 15.1185 6.93306 15.1811 6.85854L15.9379 5.95424L16.3354 5.49624C16.9163 4.93906 17.8364 4.89794 18.4672 5.4269C19.1434 5.9941 19.2318 7.00276 18.6645 7.67885L15.6635 11.255C15.3614 11.6151 15.1958 12.0701 15.1957 12.5402V13.2853C15.1957 13.6363 15.2879 13.9813 15.4633 14.2853L17.3793 17.6027C17.8206 18.3669 17.5585 19.3439 16.7944 19.7853C16.0302 20.2267 15.0532 19.9654 14.6118 19.2013L12.3051 15.2062C12.2423 15.0974 12.1261 15.0304 12.0004 15.0304C11.8748 15.0304 11.7586 15.0974 11.6957 15.2062L9.3891 19.2013C8.94761 19.9653 7.97065 20.2266 7.20648 19.7853C6.44235 19.3439 6.1803 18.3669 6.62152 17.6027L8.53656 14.2863C8.71197 13.9823 8.80414 13.6372 8.80414 13.2863V12.4865C8.80403 12.0164 8.63848 11.5614 8.33636 11.2013L5.33539 7.62514C4.76833 6.94917 4.85596 5.94152 5.53167 5.37417Z" fill="currentColor"/>
<path d="M14 6C14 7.10457 13.1046 8 12 8C10.8954 8 10 7.10457 10 6C10 4.89543 10.8954 4 12 4C13.1046 4 14 4.89543 14 6Z" fill="currentColor"/>
</svg>
