<svg width="24" height="24" viewBox="0 0 24 24" fill="currentColor" xmlns="http://www.w3.org/2000/svg">
<path d="M19 8.50483C19 8.36026 18.9897 8.2179 18.9727 8.07808L16.585 10.4677L14.2949 9.70501L14.1377 9.23041L13.5322 7.41597L15.9199 5.02635C15.7808 5.00947 15.639 5 15.4951 4.99999C13.5598 5.00017 11.9912 6.56928 11.9912 8.50483C11.9912 8.75401 12.0172 8.99653 12.0664 9.23041L12.1777 9.76067L5.42678 16.5125C4.85791 17.0814 4.85783 18.0039 5.42678 18.5731C5.99587 19.142 6.91845 19.142 7.48733 18.5731L14.2383 11.8212L14.7686 11.9335C15.0037 11.983 15.2467 12.0096 15.4951 12.0097V13.0097L15.2568 13.0028C15.0201 12.9902 14.7881 12.9595 14.5625 12.912L8.19436 19.2801L8.00783 19.449C7.10722 20.1838 5.80703 20.1835 4.90627 19.449L4.71975 19.2801C3.82034 18.3805 3.76368 16.957 4.55081 15.992L4.71975 15.8055L11.0879 9.43646C11.0405 9.21105 11.0095 8.97953 10.9971 8.74311L10.9912 8.50483C10.9912 6.01705 13.0075 4.00018 15.4951 4C16.318 4.00007 17.0891 4.22196 17.7529 4.60741L14.6768 7.6855L15.0859 8.914L16.3145 9.32415L19.3916 6.24607C19.7774 6.91025 20 7.6814 20 8.50483L19.9941 8.73627C19.8736 11.1164 17.9051 13.0095 15.4951 13.0097V12.0097C17.4305 12.0095 18.9999 10.4402 19 8.50483Z" fill="currentColor"/>
</svg>
