<svg width="24" height="24" viewBox="0 0 24 24" fill="currentColor" xmlns="http://www.w3.org/2000/svg">
<path d="M6 10H20C21.1046 10 22 10.8954 22 12C22 13.1046 21.1046 14 20 14H6V10Z" fill="currentColor"/>
<path d="M2.28003 8C2.48057 8 2.70122 8 2.92584 8C4.06217 8.00001 5.10103 8.64201 5.60921 9.65837L5.78003 10L6.78003 10C7.8846 10 8.78003 10.8954 8.78003 12C8.78003 13.1046 7.8846 14 6.78003 14H5.78003L5.60921 14.3416C5.10103 15.358 4.06217 16 2.92586 16C2.70123 16 2.48057 16 2.28003 16C1.28002 16 3.28003 12 3.28003 12C3.28003 12 1.27996 7.99999 2.28003 8Z" fill="currentColor"/>
<path d="M7.28003 4.5C7.28003 4 7.78014 4 7.78014 4H8.37501C9.26535 4 10.1097 4.39547 10.6797 5.07945L14.7801 10C15.7631 10 16.5599 10.7968 16.5599 11.7798V12.2202C16.5599 13.2032 15.7631 14 14.7801 14L10.6797 18.9206C10.1097 19.6045 9.26535 20 8.37501 20H7.78014C7.78014 20 7.28014 20 7.28014 19.5C7.28014 19 11.0599 12 11.0599 12C11.0599 12 7.28003 5 7.28003 4.5Z" fill="currentColor"/>
</svg>
