<svg width="24" height="24" viewBox="0 0 24 24" fill="currentColor" xmlns="http://www.w3.org/2000/svg">
<path d="M12 2C17.5228 2 22 6.47715 22 12C22 17.5228 17.5228 22 12 22C6.47715 22 2 17.5228 2 12C2 6.47715 6.47715 2 12 2ZM12 4C7.58172 4 4 7.58172 4 12C4 16.4183 7.58172 20 12 20C16.4183 20 20 16.4183 20 12C20 7.58172 16.4183 4 12 4Z" fill="currentColor"/>
<path d="M11 12C11 11.4477 11.4477 11 12 11H18C18.5523 11 19 11.4477 19 12C19 12.5523 18.5523 13 18 13H12C11.4477 13 11 12.5523 11 12Z" fill="currentColor"/>
<path d="M12 13C11.4477 13 11 12.5523 11 12V6C11 5.44772 11.4477 5 12 5C12.5523 5 13 5.44772 13 6V12C13 12.5523 12.5523 13 12 13Z" fill="currentColor"/>
<path d="M17.707 17.7071C18.0975 17.3166 18.6119 17.1979 18.856 17.4419L21.5075 20.0935C21.7516 20.3375 21.6329 20.852 21.2423 21.2425C20.8518 21.633 20.3374 21.7518 20.0933 21.5077L17.4418 18.8561C17.1977 18.6121 17.3164 18.0976 17.707 17.7071Z" fill="currentColor"/>
<path d="M2.70711 21.2413C2.31658 20.8508 2.19778 20.3364 2.44176 20.0924L5.09235 17.4418C5.33633 17.1978 5.8507 17.3166 6.24123 17.7072C6.63175 18.0977 6.75055 18.6121 6.50657 18.856L3.85598 21.5066C3.612 21.7506 3.09763 21.6318 2.70711 21.2413Z" fill="currentColor"/>
<path d="M3.12132 7.364C1.94975 6.19242 1.94975 4.29293 3.12132 3.12136C4.29289 1.94978 6.19239 1.94978 7.36396 3.12136L8.07107 3.82846L3.82843 8.0711L3.12132 7.364Z" fill="currentColor"/>
<path d="M16.7073 3.12132C17.8789 1.94975 19.7784 1.94975 20.9499 3.12132C22.1215 4.29289 22.1215 6.19239 20.9499 7.36396L20.2428 8.07107L16.0002 3.82843L16.7073 3.12132Z" fill="currentColor"/>
</svg>
