<svg width="24" height="24" viewBox="0 0 24 24" fill="currentColor" xmlns="http://www.w3.org/2000/svg">
<path d="M7 21C7 20.4477 7.44772 20 8 20H21C21.5523 20 22 20.4477 22 21V21C22 21.5523 21.5523 22 21 22H8C7.44772 22 7 21.5523 7 21V21Z" fill="currentColor"/>
<path d="M2 18C2 17.4477 2.44772 17 3 17H16C16.5523 17 17 17.4477 17 18V18C17 18.5523 16.5523 19 16 19H3C2.44772 19 2 18.5523 2 18V18Z" fill="currentColor"/>
<path d="M7 15C7 14.4477 7.44772 14 8 14H21C21.5523 14 22 14.4477 22 15V15C22 15.5523 21.5523 16 21 16H8C7.44772 16 7 15.5523 7 15V15Z" fill="currentColor"/>
<path d="M2 12C2 11.4477 2.44772 11 3 11H16C16.5523 11 17 11.4477 17 12V12C17 12.5523 16.5523 13 16 13H3C2.44772 13 2 12.5523 2 12V12Z" fill="currentColor"/>
<path d="M7 9C7 8.44772 7.44772 8 8 8H21C21.5523 8 22 8.44772 22 9V9C22 9.55228 21.5523 10 21 10H8C7.44772 10 7 9.55228 7 9V9Z" fill="currentColor"/>
<path d="M2 6C2 5.44772 2.44772 5 3 5H16C16.5523 5 17 5.44772 17 6V6C17 6.55228 16.5523 7 16 7H3C2.44772 7 2 6.55228 2 6V6Z" fill="currentColor"/>
<path d="M7 3C7 2.44772 7.44772 2 8 2H21C21.5523 2 22 2.44772 22 3V3C22 3.55228 21.5523 4 21 4H8C7.44772 4 7 3.55228 7 3V3Z" fill="currentColor"/>
</svg>
