<svg width="24" height="24" viewBox="0 0 24 24" fill="currentColor" xmlns="http://www.w3.org/2000/svg">
<path d="M5 13C5 14.8565 5.7375 16.637 7.05025 17.9497C8.36301 19.2625 10.1435 20 12 20C13.8565 20 15.637 19.2625 16.9497 17.9497C18.2625 16.637 19 14.8565 19 13L16.9976 13C16.9976 14.3255 16.4711 15.5966 15.5339 16.5339C14.5966 17.4711 13.3255 17.9976 12 17.9976C10.6745 17.9976 9.40337 17.4711 8.46613 16.5339C7.52889 15.5966 7.00236 14.3255 7.00236 13H5Z" fill="currentColor"/>
<path d="M11 8H13V19H11V8Z" fill="currentColor"/>
<path d="M17.6421 9.7155C17.7895 9.42068 18.2102 9.42068 18.3577 9.7155L19.7104 12.4211C19.8434 12.687 19.65 13 19.3527 13H16.6471C16.3497 13 16.1563 12.687 16.2893 12.4211L17.6421 9.7155Z" fill="currentColor"/>
<path d="M5.64211 9.7155C5.78952 9.42068 6.21025 9.42068 6.35766 9.7155L7.71044 12.4211C7.84342 12.687 7.65002 13 7.35267 13H4.6471C4.34975 13 4.15635 12.687 4.28933 12.4211L5.64211 9.7155Z" fill="currentColor"/>
<path d="M12 4C13.6569 4 15 5.34315 15 7C15 8.65685 13.6569 10 12 10C10.3431 10 9 8.65685 9 7C9 5.34315 10.3431 4 12 4ZM12 6C11.4477 6 11 6.44772 11 7C11 7.55228 11.4477 8 12 8C12.5523 8 13 7.55228 13 7C13 6.44772 12.5523 6 12 6Z" fill="currentColor"/>
</svg>
