<svg width="24" height="24" viewBox="0 0 24 24" fill="currentColor" xmlns="http://www.w3.org/2000/svg">
<g clip-path="url(#clip0_4005_566)">
<path d="M5.95743 5.16754C7.15169 3.50217 9.57568 3.5477 10.7011 5.31429L13.8887 10.318C14.5459 11.3497 14.5509 12.6971 13.9015 13.7343L10.6998 18.8479C9.5517 20.6807 7.00648 20.6916 5.84459 18.8684L2.65704 13.8648L2.54152 13.6677C2.00152 12.6655 2.03526 11.4196 2.64428 10.447L5.84593 5.33484L5.95743 5.16754ZM9.08654 6.45992C8.69929 5.85234 7.85135 5.85562 7.46859 6.4663L4.26694 11.5799C4.05055 11.9255 4.05201 12.3745 4.27097 12.7184L7.45852 17.7221C7.82163 18.292 8.59064 18.3246 9.00058 17.8227L9.07714 17.715L12.2788 12.6028C12.4953 12.2571 12.4932 11.8075 12.2741 11.4636L9.08654 6.45992Z" fill="currentColor"/>
<path d="M18.8067 10.5087C19.3885 9.636 20.6122 9.633 21.1927 10.503L21.5995 11.1125C21.9534 11.6433 21.9527 12.3525 21.598 12.8847L21.1932 13.4922C20.6113 14.3647 19.3876 14.3667 18.8073 13.4965L18.4005 12.887C18.0468 12.3562 18.0472 11.6469 18.402 11.1148L18.8067 10.5087ZM20.3973 11.0956C20.204 10.8057 19.7959 10.8063 19.6018 11.0968L19.197 11.7043C19.0789 11.8817 19.0786 12.1182 19.1965 12.295L19.6027 12.9039C19.7961 13.194 20.2042 13.1935 20.3982 12.9027L20.803 12.2952C20.9063 12.1399 20.9194 11.9397 20.8419 11.7736L20.8035 11.7045L20.3973 11.0956Z" fill="currentColor"/>
<path d="M18.3564 10.042C18.5747 10.1148 18.7659 10.2192 18.9316 10.3457C18.8874 10.3962 18.8455 10.4505 18.8066 10.5088L18.4023 11.1152C18.0477 11.6473 18.0469 12.356 18.4004 12.8867L18.8076 13.4971C18.8453 13.5535 18.8859 13.6061 18.9287 13.6553C18.7635 13.781 18.5737 13.8855 18.3564 13.958L12.5498 15.8926L13.9014 13.7344C14.0078 13.5644 14.0938 13.385 14.165 13.2012L17.7705 12L14.1318 10.7871C14.0639 10.6258 13.9842 10.4683 13.8887 10.3184L12.4609 8.07715L18.3564 10.042Z" fill="currentColor"/>
</g>
<defs>
<clipPath id="clip0_4005_566">
<rect width="24" height="24" fill="currentColor"/>
</clipPath>
</defs>
</svg>
