<svg width="24" height="24" viewBox="0 0 24 24" fill="currentColor" xmlns="http://www.w3.org/2000/svg">
<path d="M20.573 19.1459C20.8218 19.6435 20.0744 20.2576 19.5937 19.9775C18.0892 19.1009 16.3433 18.4778 14.4517 18.1861C14.1827 18.1446 13.9918 17.9023 13.9987 17.6302C13.9998 17.5869 14.0004 17.5435 14.0004 17.4998C14.0004 15.5671 13.1048 14.0001 12.0004 13.9998C10.8959 13.9998 10.0005 15.5669 10.0004 17.4998C10.0004 17.5435 10.001 17.5869 10.002 17.6302C10.0086 17.9023 9.81716 18.1447 9.54815 18.1861C7.65708 18.4778 5.91148 19.1007 4.40709 19.9769C3.9264 20.2568 3.17931 19.6429 3.42808 19.1454L11.5532 2.89432C11.7375 2.52579 12.2634 2.52579 12.4476 2.89432L20.573 19.1459Z" fill="currentColor"/>
<path d="M17.2109 16.578C18.478 17.0438 19.7456 17.5096 21.0127 17.9755C21.083 18.0013 21.1534 18.0268 21.2236 18.0526C21.3489 18.0984 21.4454 18.1904 21.4873 18.3163C21.5294 18.4419 21.5133 18.5915 21.4473 18.7235C21.3812 18.8556 21.2712 18.9572 21.1455 18.9989C21.0196 19.0411 20.8883 19.0199 20.7764 18.9471C20.7136 18.9064 20.6507 18.8658 20.5879 18.8251C19.455 18.0909 18.3214 17.3561 17.1885 16.6219C17.1257 16.5812 17.0628 16.5406 17 16.4999C17.0704 16.5258 17.1406 16.5521 17.2109 16.578Z" fill="currentColor"/>
<path d="M8.43449 6.98334C8.56545 6.96132 8.69211 7.00292 8.79094 7.09271C8.8444 7.14113 8.89763 7.1898 8.95109 7.23822C9.91391 8.11028 10.877 8.98237 11.8398 9.85443C11.8932 9.90285 11.9465 9.95152 11.9999 9.99994C11.9368 9.96508 11.8736 9.93031 11.8105 9.89544C10.6733 9.26751 9.53554 8.6396 8.39836 8.01166C8.33527 7.97682 8.27199 7.942 8.20891 7.90716C8.092 7.8428 8.01179 7.73637 7.99016 7.60541C7.96832 7.4749 8.0066 7.32945 8.09269 7.20892C8.17882 7.08839 8.30393 7.00496 8.43449 6.98334Z" fill="currentColor"/>
</svg>
