<svg width="24" height="24" viewBox="0 0 24 24" fill="currentColor" xmlns="http://www.w3.org/2000/svg">
<path d="M12.7065 16.7072C12.316 17.0976 11.6833 17.0971 11.2928 16.7067C10.9023 16.3161 10.902 15.683 11.2925 15.2925L14.5862 12.0012L11.2926 8.7075C10.9021 8.31698 10.9022 7.68302 11.2927 7.29249C11.6833 6.90228 12.316 6.90269 12.7064 7.29305L16.707 11.293C16.8944 11.4804 16.9999 11.7346 17 11.9996C17 12.2648 16.8947 12.5196 16.7073 12.7071L12.7065 16.7072Z" fill="currentColor"/>
<path d="M7.99966 12.9999C7.44744 12.9998 6.99963 12.552 6.99963 11.9997C6.99978 11.4476 7.44764 10.9997 7.99983 10.9997L15.4998 10.9999C16.0521 10.9999 16.4999 11.4478 16.4999 12.0001C16.4998 12.5523 16.0519 13.0001 15.4997 13.0001L7.99966 12.9999Z" fill="currentColor"/>
</svg>
