<svg width="24" height="24" viewBox="0 0 24 24" fill="currentColor" xmlns="http://www.w3.org/2000/svg">
<path d="M11.2933 16.7072C11.6839 17.0974 12.3166 17.0971 12.707 16.7067C13.0973 16.3162 13.0978 15.683 12.7073 15.2925L9.41365 12.0012L12.7072 8.7075C13.0977 8.31697 13.0976 7.68301 12.7071 7.29249C12.3166 6.90225 11.6838 6.90274 11.2934 7.29305L7.29282 11.293C6.90248 11.6835 6.90296 12.3162 7.29338 12.7067L11.2933 16.7072Z" fill="currentColor"/>
<path d="M15.9999 13C16.5521 13 16.9999 12.5521 16.9999 11.9998C16.9999 11.4476 16.552 10.9998 15.9997 10.9998L8.9998 11C8.44757 11 7.99978 11.4479 7.99977 12.0002C7.99993 12.5523 8.44779 13.0002 8.99997 13.0002L15.9999 13Z" fill="currentColor"/>
</svg>
