<svg width="24" height="24" viewBox="0 0 24 24" fill="currentColor" xmlns="http://www.w3.org/2000/svg">
<path d="M7 8.40007L10.2662 4.87253C10.8842 4.20513 12 4.64238 12 5.55194V18.4482C12 19.3578 10.8842 19.795 10.2662 19.1276L7 15.6001V8.40007Z" fill="currentColor"/>
<path d="M2 9.40007C2 8.84779 2.44772 8.40007 3 8.40007H7V15.6001H3C2.44772 15.6001 2 15.1524 2 14.6001V9.40007Z" fill="currentColor"/>
<path d="M13.2417 16.2418C13.6328 16.6328 14.2736 16.6364 14.6049 16.1937C15.5052 14.9903 16 13.5207 16 12.0001C16 10.4795 15.5052 9.0099 14.6049 7.80655C14.2736 7.36376 13.6328 7.36735 13.2417 7.75839C12.8507 8.14942 12.8609 8.77939 13.1663 9.24044C13.7043 10.0527 13.9974 11.0113 13.9974 12.0001C13.9974 12.9889 13.7043 13.9475 13.1663 14.7598C12.8609 15.2208 12.8507 15.8508 13.2417 16.2418Z" fill="currentColor"/>
<path d="M15.3647 18.3648C15.7548 18.7549 16.3918 18.7578 16.7411 18.3307C18.1955 16.5524 19 14.3177 19 12.0001C19 9.68252 18.1955 7.44787 16.7411 5.66955C16.3918 5.24245 15.7548 5.24532 15.3647 5.63546C14.9745 6.02561 14.9803 6.65483 15.3188 7.09051C16.404 8.48708 17.002 10.2128 17.002 12.0001C17.002 13.7875 16.404 15.5131 15.3188 16.9097C14.9803 17.3454 14.9745 17.9746 15.3647 18.3648Z" fill="currentColor"/>
<path d="M17.4864 20.4864C17.8763 20.8763 18.5118 20.8787 18.8707 20.46C20.8829 18.1124 22 15.1138 22 12C22 8.88627 20.8829 5.88768 18.8707 3.54007C18.5118 3.1214 17.8763 3.12373 17.4864 3.51365C17.0965 3.90356 17.1005 4.5331 17.4535 4.95674C19.0942 6.92584 20.0031 9.41608 20.0031 12C20.0031 14.584 19.0942 17.0742 17.4535 19.0433C17.1005 19.467 17.0965 20.0965 17.4864 20.4864Z" fill="currentColor"/>
</svg>
