<svg width="24" height="24" viewBox="0 0 24 24" fill="currentColor" xmlns="http://www.w3.org/2000/svg">
<path d="M2.70711 4.12129C2.31658 3.73077 2.31658 3.0976 2.70711 2.70708C3.09763 2.31655 3.7308 2.31655 4.12132 2.70708L21.0919 19.6776C21.4824 20.0682 21.4824 20.7013 21.0919 21.0919C20.7014 21.4824 20.0682 21.4824 19.6777 21.0919L2.70711 4.12129Z" fill="currentColor"/>
<path d="M13.2422 7.75849C13.6332 7.36751 14.2732 7.36374 14.6045 7.80635C15.4558 8.94409 15.9434 10.3198 15.9942 11.7517L12.961 8.71845C12.9029 8.37217 12.9863 8.01443 13.2422 7.75849Z" fill="currentColor"/>
<path d="M12 16.2423V18.4484C11.9998 19.3578 10.8845 19.7944 10.2666 19.1271L7 15.5998H3C2.44772 15.5998 2 15.152 2 14.5998V9.39956C2.00025 8.84749 2.44787 8.39956 3 8.39956H4.15723L12 16.2423ZM10.2666 4.87222C10.8846 4.20529 12 4.64249 12 5.55191V7.75698L9.71289 5.46987L10.2666 4.87222Z" fill="currentColor"/>
</svg>
