<svg width="24" height="24" viewBox="0 0 24 24" fill="currentColor" xmlns="http://www.w3.org/2000/svg">
<path d="M2.80769 4.22188C2.41717 3.83135 2.41717 3.19819 2.80769 2.80766C3.19822 2.41714 3.83138 2.41714 4.22191 2.80766L21.1925 19.7782C21.583 20.1688 21.583 20.8019 21.1925 21.1924C20.8019 21.583 20.1688 21.583 19.7783 21.1924L2.80769 4.22188Z" fill="currentColor"/>
<path d="M17.4856 3.51386C17.8755 3.12394 18.5115 3.12155 18.8704 3.54022C20.8826 5.88782 21.9993 8.88644 21.9993 12.0002C21.9993 13.8528 21.6009 15.6632 20.8567 17.3215L19.3274 15.7922C19.7692 14.5888 20.0032 13.3067 20.0032 12.0002C20.0032 9.41638 19.094 6.92627 17.4534 4.95722C17.1005 4.53366 17.0959 3.90379 17.4856 3.51386Z" fill="currentColor"/>
<path d="M15.3643 5.63601C15.7544 5.24594 16.391 5.24312 16.7403 5.67019C18.1945 7.44844 18.999 9.68279 18.999 12.0003C18.999 13.0282 18.8392 14.0395 18.5362 15.0022L16.8848 13.3509C16.9607 12.9076 17.001 12.456 17.001 12.0003C17.001 10.2131 16.4034 8.48756 15.3184 7.09109C14.9799 6.6554 14.9741 6.02615 15.3643 5.63601Z" fill="currentColor"/>
<path d="M13.2414 7.7585C13.6324 7.36751 14.2734 7.36373 14.6047 7.80635C15.505 9.00965 16.0002 10.4792 16.0002 11.9997C16.0002 12.1497 15.9931 12.2992 15.9836 12.448L13.6066 10.071C13.4856 9.78184 13.3401 9.50245 13.1662 9.23994C12.8612 8.77907 12.8508 8.14947 13.2414 7.7585Z" fill="currentColor"/>
<path d="M12 15.5352V18.4483C11.9999 19.3576 10.8846 19.7948 10.2666 19.128L7 15.5997H3C2.44772 15.5997 2 15.152 2 14.5997V9.40049C2 8.8482 2.44772 8.40049 3 8.40049H4.86523L12 15.5352ZM10.2666 4.87217C10.8846 4.20531 12 4.64251 12 5.55186V8.46494L9.37207 5.83702L10.2666 4.87217Z" fill="currentColor"/>
</svg>
