<svg width="24" height="24" viewBox="0 0 24 24" fill="currentColor" xmlns="http://www.w3.org/2000/svg">
<path d="M7 8.39995L10.2662 4.87241C10.8842 4.20501 12 4.64226 12 5.55182V18.4481C12 19.3576 10.8842 19.7949 10.2662 19.1275L7 15.5999V8.39995Z" fill="currentColor"/>
<path d="M2 9.39995C2 8.84766 2.44772 8.39995 3 8.39995H7V15.5999H3C2.44772 15.5999 2 15.1522 2 14.5999V9.39995Z" fill="currentColor"/>
<path d="M13.2417 16.2417C13.6328 16.6327 14.2736 16.6363 14.6049 16.1935C15.5052 14.9902 16 13.5206 16 12C16 10.4794 15.5052 9.00978 14.6049 7.80643C14.2736 7.36364 13.6328 7.36723 13.2417 7.75826C12.8507 8.1493 12.8609 8.77927 13.1663 9.24031C13.7043 10.0526 13.9974 11.0112 13.9974 12C13.9974 12.9888 13.7043 13.9474 13.1663 14.7596C12.8609 15.2207 12.8507 15.8507 13.2417 16.2417Z" fill="currentColor"/>
</svg>
