<svg width="24" height="24" viewBox="0 0 24 24" fill="currentColor" xmlns="http://www.w3.org/2000/svg">
<path d="M11.0911 2.90897C11.0911 2.40689 11.4981 1.99988 12.0002 1.99988C12.5022 1.99988 12.9092 2.40689 12.9092 2.90897V20.6665C12.9092 21.1686 12.5022 21.5756 12.0002 21.5756C11.4981 21.5756 11.0911 21.1686 11.0911 20.6665V2.90897Z" fill="currentColor"/>
<path d="M14.1211 7.51517C14.1211 7.01309 14.5281 6.60608 15.0302 6.60608C15.5323 6.60608 15.9393 7.01309 15.9393 7.51517V16.0606C15.9393 16.5627 15.5323 16.9697 15.0302 16.9697C14.5281 16.9697 14.1211 16.5627 14.1211 16.0606V7.51517Z" fill="currentColor"/>
<path d="M8.06055 7.51517C8.06055 7.01309 8.46756 6.60608 8.96964 6.60608C9.47172 6.60608 9.87873 7.01309 9.87873 7.51517V16.0606C9.87873 16.5627 9.47172 16.9697 8.96964 16.9697C8.46756 16.9697 8.06055 16.5627 8.06055 16.0606V7.51517Z" fill="currentColor"/>
<path d="M2 9.81815C2 9.31607 2.40701 8.90906 2.90909 8.90906C3.41117 8.90906 3.81818 9.31607 3.81818 9.81815V13.7575C3.81818 14.2596 3.41117 14.6666 2.90909 14.6666C2.40701 14.6666 2 14.2596 2 13.7575V9.81815Z" fill="currentColor"/>
<path d="M20.1819 9.81815C20.1819 9.31607 20.5889 8.90906 21.091 8.90906C21.5931 8.90906 22.0001 9.31607 22.0001 9.81815V13.7575C22.0001 14.2596 21.5931 14.6666 21.091 14.6666C20.5889 14.6666 20.1819 14.2596 20.1819 13.7575V9.81815Z" fill="currentColor"/>
<path d="M5.03052 5.21195C5.03052 4.70987 5.43753 4.30286 5.93961 4.30286C6.44169 4.30286 6.8487 4.70987 6.8487 5.21195V18.3635C6.8487 18.8655 6.44169 19.2726 5.93961 19.2726C5.43753 19.2726 5.03052 18.8655 5.03052 18.3635V5.21195Z" fill="currentColor"/>
<path d="M17.1516 5.21195C17.1516 4.70987 17.5586 4.30286 18.0607 4.30286C18.5628 4.30286 18.9698 4.70987 18.9698 5.21195V18.3635C18.9698 18.8655 18.5628 19.2726 18.0607 19.2726C17.5586 19.2726 17.1516 18.8655 17.1516 18.3635V5.21195Z" fill="currentColor"/>
</svg>
