<svg width="24" height="24" viewBox="0 0 24 24" fill="currentColor" xmlns="http://www.w3.org/2000/svg">
<path d="M7 8.39995L10.2662 4.87241C10.8842 4.20501 12 4.64226 12 5.55182V18.4481C12 19.3576 10.8842 19.7949 10.2662 19.1275L7 15.5999V8.39995Z" fill="currentColor"/>
<path d="M2 9.39995C2 8.84766 2.44772 8.39995 3 8.39995H7V15.5999H3C2.44772 15.5999 2 15.1522 2 14.5999V9.39995Z" fill="currentColor"/>
<path d="M13.2417 16.2417C13.6328 16.6327 14.2736 16.6363 14.6049 16.1935C15.5052 14.9902 16 13.5206 16 12C16 10.4794 15.5052 9.00978 14.6049 7.80643C14.2736 7.36364 13.6328 7.36723 13.2417 7.75826C12.8507 8.1493 12.8609 8.77927 13.1663 9.24031C13.7043 10.0526 13.9974 11.0112 13.9974 12C13.9974 12.9888 13.7043 13.9474 13.1663 14.7596C12.8609 15.2207 12.8507 15.8507 13.2417 16.2417Z" fill="currentColor"/>
<path d="M15.3647 18.3646C15.7548 18.7548 16.3918 18.7577 16.7411 18.3306C18.1955 16.5522 19 14.3176 19 12C19 9.68239 18.1955 7.44775 16.7411 5.66943C16.3918 5.24233 15.7548 5.2452 15.3647 5.63534C14.9745 6.02548 14.9803 6.6547 15.3188 7.09039C16.404 8.48696 17.002 10.2126 17.002 12C17.002 13.7873 16.404 15.513 15.3188 16.9096C14.9803 17.3453 14.9745 17.9745 15.3647 18.3646Z" fill="currentColor"/>
</svg>
