<svg width="24" height="24" viewBox="0 0 24 24" fill="currentColor" xmlns="http://www.w3.org/2000/svg">
<path d="M15.3645 5.63589C15.7547 5.24582 16.3912 5.24299 16.7405 5.67007C18.1948 7.44832 18.9993 9.68267 18.9993 12.0001C18.9993 12.8338 18.8937 13.6565 18.6927 14.4513L16.9671 12.7257C16.9889 12.4855 17.0012 12.2434 17.0012 12.0001C17.0012 10.213 16.4036 8.48744 15.3186 7.09096C14.9801 6.65528 14.9744 6.02603 15.3645 5.63589Z" fill="currentColor"/>
<path d="M2.80769 4.22176C2.41717 3.83123 2.41717 3.19807 2.80769 2.80754C3.19822 2.41702 3.83138 2.41702 4.22191 2.80754L21.1925 19.7781C21.583 20.1686 21.583 20.8018 21.1925 21.1923C20.8019 21.5828 20.1688 21.5828 19.7783 21.1923L2.80769 4.22176Z" fill="currentColor"/>
<path d="M13.2422 7.75849C13.6332 7.36751 14.2732 7.36374 14.6045 7.80635C15.4558 8.94409 15.9434 10.3198 15.9942 11.7517L12.961 8.71845C12.9029 8.37217 12.9863 8.01443 13.2422 7.75849Z" fill="currentColor"/>
<path d="M12 16.2423V18.4484C11.9998 19.3578 10.8845 19.7944 10.2666 19.1271L7 15.5998H3C2.44772 15.5998 2 15.152 2 14.5998V9.39956C2.00025 8.84749 2.44787 8.39956 3 8.39956H4.15723L12 16.2423ZM10.2666 4.87222C10.8846 4.20529 12 4.64249 12 5.55191V7.75698L9.71289 5.46987L10.2666 4.87222Z" fill="currentColor"/>
</svg>
