<svg width="24" height="24" viewBox="0 0 24 24" fill="currentColor" xmlns="http://www.w3.org/2000/svg">
<path d="M19 7C20.6569 7 22 8.34315 22 10V14C22 15.6569 20.6569 17 19 17H5C3.34315 17 2 15.6569 2 14V10C2 8.34315 3.34315 7 5 7H19ZM3.44531 12.8838C3.28069 12.8838 3.13932 12.9408 3.02148 13.0557C2.90501 13.1707 2.84721 13.3097 2.84863 13.4717C2.84724 13.6378 2.90504 13.7791 3.02148 13.8955C3.13936 14.0105 3.28059 14.0684 3.44531 14.0684C3.5504 14.0683 3.64783 14.0418 3.7373 13.9893C3.8266 13.9354 3.89876 13.8637 3.9541 13.7744C4.0109 13.6835 4.04055 13.5824 4.04199 13.4717C4.04057 13.3097 3.97914 13.1707 3.8584 13.0557C3.73917 12.9408 3.6014 12.8838 3.44531 12.8838ZM15.041 9.57715C14.6961 9.5772 14.39 9.63457 14.123 9.75098C13.8575 9.86743 13.6496 10.0305 13.499 10.2393C13.3499 10.4466 13.2759 10.6888 13.2773 10.9658C13.2759 11.3067 13.3859 11.576 13.6074 11.7734C13.8304 11.9694 14.1352 12.1096 14.5215 12.1934L14.9561 12.2871C15.118 12.3226 15.2466 12.3612 15.3418 12.4023C15.4369 12.4421 15.5057 12.487 15.5469 12.5381C15.5894 12.5878 15.6109 12.6462 15.6123 12.7129C15.6109 12.7839 15.588 12.8469 15.5439 12.9023C15.5 12.9577 15.4357 13.001 15.3506 13.0322C15.2654 13.0635 15.1595 13.0791 15.0332 13.0791C14.8826 13.0791 14.752 13.0557 14.6426 13.0088C14.5349 12.9619 14.4512 12.8934 14.3916 12.8027C14.3319 12.7118 14.2981 12.5993 14.291 12.4658H13.166C13.1674 12.8308 13.2456 13.1309 13.4004 13.3652C13.5566 13.5981 13.7756 13.7706 14.0566 13.8828C14.3393 13.995 14.6706 14.0508 15.0498 14.0508C15.4191 14.0508 15.7353 13.9992 15.998 13.8955C16.2623 13.7918 16.4654 13.6403 16.6074 13.4414C16.7494 13.2426 16.8208 12.9997 16.8223 12.7129C16.8208 12.5469 16.7947 12.3934 16.7422 12.2529C16.6911 12.1124 16.6102 11.9862 16.501 11.874C16.3916 11.7604 16.251 11.661 16.0791 11.5771C15.9072 11.4934 15.7004 11.4261 15.459 11.375L15.1016 11.2979C14.998 11.2766 14.9082 11.2525 14.833 11.2256C14.7579 11.1987 14.6957 11.1693 14.6475 11.1367C14.5992 11.1027 14.5637 11.0646 14.541 11.0234C14.5197 10.9809 14.5099 10.9333 14.5127 10.8809C14.5141 10.8169 14.5334 10.7597 14.5703 10.71C14.6072 10.6602 14.6645 10.6212 14.7412 10.5928C14.8192 10.563 14.9192 10.5479 15.041 10.5479C15.2328 10.5479 15.376 10.5884 15.4697 10.668C15.5648 10.7475 15.6185 10.858 15.6299 11H16.7627C16.7613 10.7145 16.6904 10.465 16.5498 10.252C16.4106 10.0376 16.2121 9.87177 15.9551 9.75391C15.698 9.63608 15.3932 9.57715 15.041 9.57715ZM4.66406 9.63672V14H6.71777C7.03453 14 7.30744 13.9464 7.53613 13.8398C7.76472 13.7333 7.9409 13.5874 8.06445 13.4014C8.18937 13.2154 8.25187 13.0031 8.25195 12.7646C8.25195 12.5587 8.20613 12.3795 8.11523 12.2275C8.02433 12.0741 7.90243 11.9538 7.74902 11.8672C7.59577 11.7792 7.42556 11.7318 7.23828 11.7246V11.6816C7.40692 11.6476 7.55446 11.5868 7.68066 11.499C7.80706 11.4096 7.90501 11.2981 7.97461 11.166C8.04559 11.034 8.08199 10.8879 8.08203 10.7275C8.08203 10.5059 8.0237 10.3128 7.90723 10.1494C7.79219 9.98614 7.62072 9.85997 7.39355 9.77051C7.1677 9.68102 6.88805 9.63672 6.55566 9.63672H4.66406ZM9.9668 9.63672L8.52734 14H9.80566L10.0576 13.165H11.4961L11.748 14H13.0273L11.5869 9.63672H9.9668ZM17.2734 9.63672V14H18.458V12.2959H20.0264V14H21.2109V9.63672H20.0264V11.3408H18.458V9.63672H17.2734ZM6.41992 12.1338C6.54044 12.1338 6.64339 12.1516 6.72852 12.1885C6.81506 12.2254 6.88184 12.2797 6.92871 12.3506C6.97552 12.4215 6.99896 12.5083 6.99902 12.6104C6.99902 12.7567 6.94904 12.8681 6.84961 12.9434C6.75018 13.017 6.60093 13.0537 6.40234 13.0537H5.84863V12.1338H6.41992ZM10.7939 10.8379L11.2285 12.2783H10.3252L10.7598 10.8379H10.7939ZM6.35156 10.5654C6.49916 10.5654 6.62123 10.6015 6.71777 10.6738C6.81436 10.7449 6.86328 10.8485 6.86328 10.9834C6.8632 11.0726 6.84025 11.1486 6.79492 11.2109C6.7509 11.272 6.6889 11.3189 6.60938 11.3516C6.52983 11.3842 6.43768 11.4004 6.33398 11.4004H5.84863V10.5654H6.35156Z" fill="currentColor"/>
</svg>
