<svg width="24" height="24" viewBox="0 0 24 24" fill="currentColor" xmlns="http://www.w3.org/2000/svg">
<path d="M3.38429 17.0762C4.53419 19.0235 6.32442 20.5461 8.46633 21.3555C7.3121 22.0561 5.7898 21.9114 4.7925 20.9141L4.08547 20.207C3.23851 19.3601 3.00668 18.1339 3.38429 17.0762Z" fill="currentColor"/>
<path d="M21.0918 16.1602C22.0815 17.3388 22.0227 19.0983 20.914 20.2071L20.207 20.9141C19.0983 22.0228 17.3388 22.0815 16.1602 21.0918C18.3381 20.0936 20.0936 18.3381 21.0918 16.1602Z" fill="currentColor"/>
<path d="M3.79273 3.08568C4.90101 1.9774 6.66005 1.9185 7.83875 2.90696C5.66118 3.90521 3.90521 5.66118 2.90697 7.83875C1.9185 6.66005 1.9774 4.90101 3.08568 3.79273L3.79273 3.08568Z" fill="currentColor"/>
<path d="M16.1602 2.90813C17.3387 1.9188 19.0984 1.97756 20.207 3.08586L20.9141 3.79289C22.0226 4.90147 22.0812 6.6611 21.0918 7.83977C20.0935 5.66206 18.338 3.90618 16.1602 2.90813Z" fill="currentColor"/>
<path d="M12 3C16.9706 3 21 7.02944 21 12C21 16.9706 16.9706 21 12 21C7.02944 21 3 16.9706 3 12C3 7.02944 7.02944 3 12 3ZM12 5C8.13401 5 5 8.13401 5 12C5 15.866 8.13401 19 12 19C15.866 19 19 15.866 19 12C19 8.13401 15.866 5 12 5Z" fill="currentColor"/>
<path d="M12 6C15.3137 6 18 8.68629 18 12C18 15.3137 15.3137 18 12 18C8.68629 18 6 15.3137 6 12C6 8.68629 8.68629 6 12 6ZM8.96973 8.96973C8.69037 8.69089 8.2326 8.68879 7.99609 9.00488C7.35315 9.86435 7 10.914 7 12C7 13.086 7.35315 14.1356 7.99609 14.9951C8.2326 15.3112 8.69037 15.3091 8.96973 15.0303C9.24904 14.751 9.24254 14.3 9.02441 13.9707C8.6402 13.3906 8.43066 12.7062 8.43066 12C8.43066 11.2938 8.6402 10.6094 9.02441 10.0293C9.24254 9.69998 9.24904 9.24904 8.96973 8.96973ZM16.0039 9.00488C15.7674 8.68879 15.3096 8.69089 15.0303 8.96973C14.751 9.24904 14.7575 9.69998 14.9756 10.0293C15.3598 10.6094 15.5693 11.2938 15.5693 12C15.5693 12.7062 15.3598 13.3906 14.9756 13.9707C14.7575 14.3 14.751 14.751 15.0303 15.0303C15.3096 15.3091 15.7674 15.3112 16.0039 14.9951C16.6468 14.1356 17 13.086 17 12C17 10.914 16.6468 9.86435 16.0039 9.00488ZM12 9C10.3431 9 9 10.3431 9 12C9 13.6569 10.3431 15 12 15C13.6569 15 15 13.6569 15 12C15 10.3431 13.6569 9 12 9Z" fill="currentColor"/>
<path d="M14 12C14 13.1046 13.1046 14 12 14C10.8954 14 10 13.1046 10 12C10 10.8954 10.8954 10 12 10C13.1046 10 14 10.8954 14 12Z" fill="currentColor"/>
</svg>
