<svg width="24" height="24" viewBox="0 0 24 24" fill="currentColor" xmlns="http://www.w3.org/2000/svg">
<path d="M4.65137 16.9697C4.76392 16.9894 4.88032 17 5 17V18L4.8457 17.9961C4.72111 17.9898 4.59864 17.9752 4.47852 17.9541L4.65137 16.9697ZM5.52344 17V18H5V17H5.52344ZM7.0957 17V18H6.04785V17H7.0957ZM8.66699 17V18H7.61914V17H8.66699ZM10.2383 17V18H9.19043V17H10.2383ZM11.8096 17V18H10.7617V17H11.8096ZM13.3809 17V18H12.333V17H13.3809ZM14.9521 17V18H13.9043V17H14.9521ZM16 17V18H15.4766V17H16ZM16.5205 17.9541C16.4007 17.9751 16.2786 17.9898 16.1543 17.9961L16 18V17C16.1197 17 16.2361 16.9894 16.3486 16.9697L16.5205 17.9541ZM3.71484 16.5322C3.89225 16.6812 4.09516 16.7996 4.31543 16.8799L3.97461 17.8164C3.64237 17.6954 3.33685 17.5201 3.07129 17.2969L3.71484 16.5322ZM17.9277 17.2969C17.6621 17.5201 17.3567 17.6955 17.0244 17.8164L16.6846 16.8799C16.9048 16.7996 17.1078 16.6812 17.2852 16.5322L17.9277 17.2969ZM3.12012 15.6846C3.20036 15.9048 3.31876 16.1078 3.46777 16.2852L2.70215 16.9277C2.47907 16.6621 2.30345 16.3567 2.18262 16.0244L3.12012 15.6846ZM18.8164 16.0244C18.6955 16.3567 18.5201 16.6621 18.2969 16.9277L17.5322 16.2852C17.6812 16.1078 17.7996 15.9048 17.8799 15.6846L18.8164 16.0244ZM2 15V14.5H3V15C3 15.1197 3.01056 15.2361 3.03027 15.3486L2.04492 15.5205C2.01535 15.3515 2 15.1775 2 15ZM19 15C19 15.1776 18.9837 15.3514 18.9541 15.5205L17.9697 15.3486C17.9894 15.2361 18 15.1197 18 15V14.5H19V15ZM3 13V14H2V13H3ZM19 13V14H18V13H19ZM3 11.5V12.5H2V11.5H3ZM19 11.5V12.5H18V11.5H19ZM3 10V11H2V10H3ZM19 10V11H18V10H19ZM2 9C2 8.82215 2.01524 8.64787 2.04492 8.47852L3.03027 8.65137C3.01056 8.76392 3 8.88032 3 9V9.5H2V9ZM19 9.5H18V9C18 8.88032 17.9894 8.76392 17.9697 8.65137L18.9541 8.47852C18.9838 8.64792 19 8.82209 19 9V9.5ZM3.46777 7.71484C3.31876 7.89225 3.20036 8.09516 3.12012 8.31543L2.18262 7.97461C2.30354 7.64245 2.47904 7.33682 2.70215 7.07129L3.46777 7.71484ZM18.2969 7.07129C18.5201 7.33685 18.6954 7.64237 18.8164 7.97461L17.8799 8.31543C17.7996 8.09516 17.6812 7.89225 17.5322 7.71484L18.2969 7.07129ZM4.31543 7.12012C4.09516 7.20036 3.89225 7.31876 3.71484 7.46777L3.07129 6.70215C3.33682 6.47904 3.64245 6.30354 3.97461 6.18262L4.31543 7.12012ZM17.0244 6.18262C17.3567 6.30345 17.6621 6.47907 17.9277 6.70215L17.2852 7.46777C17.1078 7.31876 16.9048 7.20036 16.6846 7.12012L17.0244 6.18262ZM5.52344 6V7H5C4.88032 7 4.76392 7.01056 4.65137 7.03027L4.47852 6.04492C4.64787 6.01524 4.82215 6 5 6H5.52344ZM16 6C16.1775 6 16.3515 6.01535 16.5205 6.04492L16.3486 7.03027C16.2361 7.01056 16.1197 7 16 7H15.4766V6H16ZM7.0957 6V7H6.04785V6H7.0957ZM8.66699 6V7H7.61914V6H8.66699ZM10.2383 6V7H9.19043V6H10.2383ZM11.8096 6V7H10.7617V6H11.8096ZM13.3809 6V7H12.333V6H13.3809ZM14.9521 6V7H13.9043V6H14.9521Z" fill="currentColor"/>
<path d="M4 9C4 8.44772 4.44772 8 5 8C5.55228 8 6 8.44772 6 9V15C6 15.5523 5.55228 16 5 16C4.44772 16 4 15.5523 4 15V9Z" fill="currentColor"/>
<path d="M18 9H20C21.1046 9 22 9.89543 22 11V13C22 14.1046 21.1046 15 20 15H18V9Z" fill="currentColor"/>
</svg>
