<svg width="24" height="24" viewBox="0 0 24 24" fill="currentColor" xmlns="http://www.w3.org/2000/svg">
<path d="M16 6C17.6569 6 19 7.34315 19 9V15C19 16.6569 17.6569 18 16 18H5C3.34315 18 2 16.6569 2 15V9C2 7.34315 3.34315 6 5 6H16ZM5 7C3.89543 7 3 7.89543 3 9V15C3 16.1046 3.89543 17 5 17H16C17.1046 17 18 16.1046 18 15V9C18 7.89543 17.1046 7 16 7H5Z" fill="currentColor"/>
<path d="M4 9C4 8.44772 4.44772 8 5 8H10C10.5523 8 11 8.44772 11 9V15C11 15.5523 10.5523 16 10 16H5C4.44772 16 4 15.5523 4 15V9Z" fill="currentColor"/>
<path d="M18 9H20C21.1046 9 22 9.89543 22 11V13C22 14.1046 21.1046 15 20 15H18V9Z" fill="currentColor"/>
</svg>
