<svg width="24" height="24" viewBox="0 0 24 24" fill="currentColor" xmlns="http://www.w3.org/2000/svg">
<path d="M15 17V18H6V17H15ZM18 14V10C18 8.34315 16.6569 7 15 7H6C4.34315 7 3 8.34315 3 10V14C3 15.6569 4.34315 17 6 17V18L5.79395 17.9951C3.7488 17.8913 2.10865 16.2512 2.00488 14.2061L2 14V10C2 7.79086 3.79086 6 6 6H15C17.2091 6 19 7.79086 19 10V14C19 16.14 17.3194 17.8879 15.2061 17.9951L15 18V17C16.6569 17 18 15.6569 18 14Z" fill="currentColor"/>
<path d="M18 9H20C21.1046 9 22 9.89543 22 11V13C22 14.1046 21.1046 15 20 15H18V9Z" fill="currentColor"/>
<path d="M4 10C4 8.89543 4.89543 8 6 8H15C16.1046 8 17 8.89543 17 10V14C17 15.1046 16.1046 16 15 16H6C4.89543 16 4 15.1046 4 14V10Z" fill="currentColor"/>
</svg>
