<svg width="24" height="24" viewBox="0 0 24 24" fill="currentColor" xmlns="http://www.w3.org/2000/svg">
<path d="M16 12C16 14.2091 14.2091 16 12 16C9.79086 16 8 14.2091 8 12C8 9.79086 9.79086 8 12 8C14.2091 8 16 9.79086 16 12Z" fill="currentColor"/>
<path d="M11 6C11 5.44772 11.4477 5 12 5C12.5523 5 13 5.44772 13 6C13 6.55228 12.5523 7 12 7C11.4477 7 11 6.55228 11 6Z" fill="currentColor"/>
<path d="M11 18C11 17.4477 11.4477 17 12 17C12.5523 17 13 17.4477 13 18C13 18.5523 12.5523 19 12 19C11.4477 19 11 18.5523 11 18Z" fill="currentColor"/>
<path d="M15.5377 16.952C15.1471 16.5615 15.1471 15.9283 15.5377 15.5378C15.9282 15.1472 16.5614 15.1472 16.9519 15.5378C17.3424 15.9283 17.3424 16.5615 16.9519 16.952C16.5614 17.3425 15.9282 17.3425 15.5377 16.952Z" fill="currentColor"/>
<path d="M16.9522 8.46282C16.5617 8.85334 15.9285 8.85334 15.538 8.46282C15.1475 8.07229 15.1475 7.43913 15.538 7.0486C15.9285 6.65808 16.5617 6.65808 16.9522 7.0486C17.3427 7.43913 17.3427 8.07229 16.9522 8.46282Z" fill="currentColor"/>
<path d="M8.42864 16.952C8.81916 16.5615 8.81916 15.9283 8.42864 15.5378C8.03811 15.1472 7.40495 15.1472 7.01442 15.5378C6.6239 15.9283 6.6239 16.5615 7.01442 16.952C7.40495 17.3425 8.03811 17.3425 8.42864 16.952Z" fill="currentColor"/>
<path d="M7.01408 8.46282C7.40461 8.85334 8.03777 8.85334 8.4283 8.46282C8.81882 8.07229 8.81882 7.43913 8.4283 7.0486C8.03777 6.65808 7.40461 6.65808 7.01408 7.0486C6.62356 7.43913 6.62356 8.07229 7.01408 8.46282Z" fill="currentColor"/>
<path d="M17 12C17 11.4477 17.4477 11 18 11C18.5523 11 19 11.4477 19 12C19 12.5523 18.5523 13 18 13C17.4477 13 17 12.5523 17 12Z" fill="currentColor"/>
<path d="M5 12C5 11.4477 5.44772 11 6 11C6.55228 11 7 11.4477 7 12C7 12.5523 6.55228 13 6 13C5.44772 13 5 12.5523 5 12Z" fill="currentColor"/>
</svg>
