<svg width="24" height="24" viewBox="0 0 24 24" fill="currentColor" xmlns="http://www.w3.org/2000/svg">
<path d="M16 12C16 14.2091 14.2091 16 12 16C9.79086 16 8 14.2091 8 12C8 9.79086 9.79086 8 12 8C14.2091 8 16 9.79086 16 12Z" fill="currentColor"/>
<path d="M11 5C11 4.44772 11.4477 4 12 4C12.5523 4 13 4.44772 13 5V6C13 6.55228 12.5523 7 12 7C11.4477 7 11 6.55228 11 6V5Z" fill="currentColor"/>
<path d="M11 18C11 17.4477 11.4477 17 12 17C12.5523 17 13 17.4477 13 18V19C13 19.5523 12.5523 20 12 20C11.4477 20 11 19.5523 11 19V18Z" fill="currentColor"/>
<path d="M15.5377 16.952C15.1471 16.5615 15.1471 15.9283 15.5377 15.5378C15.9282 15.1472 16.5614 15.1472 16.9519 15.5378L17.659 16.2449C18.0495 16.6354 18.0495 17.2686 17.659 17.6591C17.2685 18.0496 16.6353 18.0496 16.2448 17.6591L15.5377 16.952Z" fill="currentColor"/>
<path d="M16.9522 8.46282C16.5617 8.85334 15.9285 8.85334 15.538 8.46282C15.1475 8.07229 15.1475 7.43913 15.538 7.0486L16.2451 6.34149C16.6356 5.95097 17.2688 5.95097 17.6593 6.34149C18.0499 6.73202 18.0499 7.36518 17.6593 7.75571L16.9522 8.46282Z" fill="currentColor"/>
<path d="M8.42864 16.952C8.81916 16.5615 8.81916 15.9283 8.42864 15.5378C8.03811 15.1472 7.40495 15.1472 7.01442 15.5378L6.30732 16.2449C5.91679 16.6354 5.91679 17.2686 6.30732 17.6591C6.69784 18.0496 7.331 18.0496 7.72153 17.6591L8.42864 16.952Z" fill="currentColor"/>
<path d="M7.01408 8.46282C7.40461 8.85334 8.03777 8.85334 8.4283 8.46282C8.81882 8.07229 8.81882 7.43913 8.4283 7.0486L7.72119 6.34149C7.33067 5.95097 6.6975 5.95097 6.30698 6.34149C5.91645 6.73202 5.91645 7.36518 6.30698 7.75571L7.01408 8.46282Z" fill="currentColor"/>
<path d="M17 12C17 11.4477 17.4477 11 18 11H19C19.5523 11 20 11.4477 20 12C20 12.5523 19.5523 13 19 13H18C17.4477 13 17 12.5523 17 12Z" fill="currentColor"/>
<path d="M4 12C4 11.4477 4.44772 11 5 11H6C6.55228 11 7 11.4477 7 12C7 12.5523 6.55228 13 6 13H5C4.44772 13 4 12.5523 4 12Z" fill="currentColor"/>
</svg>
