<svg width="24" height="24" viewBox="0 0 24 24" fill="currentColor" xmlns="http://www.w3.org/2000/svg">
<path d="M16 12C16 14.2091 14.2091 16 12 16C9.79086 16 8 14.2091 8 12C8 9.79086 9.79086 8 12 8C14.2091 8 16 9.79086 16 12Z" fill="currentColor"/>
<path d="M11 3C11 2.44772 11.4477 2 12 2C12.5523 2 13 2.44772 13 3V6C13 6.55228 12.5523 7 12 7C11.4477 7 11 6.55228 11 6V3Z" fill="currentColor"/>
<path d="M11 18C11 17.4477 11.4477 17 12 17C12.5523 17 13 17.4477 13 18V21C13 21.5523 12.5523 22 12 22C11.4477 22 11 21.5523 11 21V18Z" fill="currentColor"/>
<path d="M15.5377 16.952C15.1471 16.5615 15.1471 15.9283 15.5377 15.5378C15.9282 15.1472 16.5614 15.1472 16.9519 15.5378L19.0728 17.6586C19.4633 18.0492 19.4633 18.6823 19.0728 19.0729C18.6822 19.4634 18.0491 19.4634 17.6586 19.0729L15.5377 16.952Z" fill="currentColor"/>
<path d="M4.92781 6.34187C4.53728 5.95135 4.53729 5.31818 4.92781 4.92766C5.31833 4.53713 5.9515 4.53713 6.34202 4.92766L8.46107 7.04671C8.8516 7.43723 8.8516 8.0704 8.46107 8.46092C8.07055 8.85145 7.43738 8.85145 7.04686 8.46092L4.92781 6.34187Z" fill="currentColor"/>
<path d="M16.9522 8.46281C16.5617 8.85334 15.9285 8.85334 15.538 8.46282C15.1475 8.07229 15.1475 7.43913 15.538 7.0486L17.6589 4.92772C18.0494 4.5372 18.6826 4.5372 19.0731 4.92772C19.4636 5.31824 19.4636 5.95141 19.0731 6.34193L16.9522 8.46281Z" fill="currentColor"/>
<path d="M6.34187 19.0727C5.95135 19.4632 5.31818 19.4632 4.92766 19.0727C4.53713 18.6822 4.53713 18.049 4.92766 17.6585L7.04671 15.5394C7.43723 15.1489 8.0704 15.1489 8.46092 15.5394C8.85145 15.9299 8.85145 16.5631 8.46092 16.9536L6.34187 19.0727Z" fill="currentColor"/>
<path d="M17 12C17 11.4477 17.4477 11 18 11H21C21.5523 11 22 11.4477 22 12C22 12.5523 21.5523 13 21 13H18C17.4477 13 17 12.5523 17 12Z" fill="currentColor"/>
<path d="M2 12C2 11.4477 2.44772 11 3 11H6C6.55228 11 7 11.4477 7 12C7 12.5523 6.55228 13 6 13H3C2.44772 13 2 12.5523 2 12Z" fill="currentColor"/>
</svg>
