<svg width="24" height="24" viewBox="0 0 24 24" fill="currentColor" xmlns="http://www.w3.org/2000/svg">
<path d="M7 21C7 20.4477 7.44772 20 8 20H16C16.5523 20 17 20.4477 17 21V21C17 21.5523 16.5523 22 16 22H8C7.44772 22 7 21.5523 7 21V21Z" fill="currentColor"/>
<path d="M11 15H13V21H11V15Z" fill="currentColor"/>
<path d="M16 2C17.1046 2 18 2.89543 18 4V10C18 13.3137 15.3137 16 12 16C8.68629 16 6 13.3137 6 10V4C6 2.89543 6.89543 2 8 2H10.75L7.71387 7.05078C7.43548 7.51411 7.42819 8.09202 7.69434 8.5625C7.96056 9.03288 8.4595 9.32324 9 9.32324H12.3418L10.5908 12.2246C10.1627 12.9338 10.3905 13.856 11.0996 14.2842C11.8088 14.7123 12.731 14.4845 13.1592 13.7754L16.2842 8.59863C16.5638 8.13539 16.5726 7.55716 16.3066 7.08594C16.0406 6.61474 15.5411 6.32324 15 6.32324H11.6523L13.7861 2.77246L14.25 2H16Z" fill="currentColor"/>
</svg>
