<svg width="24" height="24" viewBox="0 0 24 24" fill="currentColor" xmlns="http://www.w3.org/2000/svg">
<path d="M10 5L14 5C16.7614 5 19 7.23858 19 10H17C17 8.34315 15.6569 7 14 7L10 7L9.8457 7.00391C8.26056 7.08421 7 8.39489 7 10V14L7.00391 14.1543C7.08162 15.6883 8.31166 16.9184 9.8457 16.9961L10 17H14C15.6051 17 16.9158 15.7394 16.9961 14.1543L17 14H19C19 16.7614 16.7614 19 14 19H10C7.23858 19 5 16.7614 5 14V10C5 7.23858 7.23858 5 10 5ZM19 14H17V10H19V14Z" fill="currentColor"/>
<path d="M13 9C14.1046 9 15 9.89543 15 11V13C15 14.1046 14.1046 15 13 15H11C9.89543 15 9 14.1046 9 13V11C9 9.89543 9.89543 9 11 9H13Z" fill="currentColor"/>
</svg>
