<svg width="24" height="24" viewBox="0 0 24 24" fill="currentColor" xmlns="http://www.w3.org/2000/svg">
<path d="M17 3C18.1046 3 19 3.89543 19 5V19C19 20.1046 18.1046 21 17 21H7C5.89543 21 5 20.1046 5 19V5C5 3.89543 5.89543 3 7 3H17ZM8 17C7.44772 17 7 17.4477 7 18C7 18.5523 7.44772 19 8 19C8.55228 19 9 18.5523 9 18C9 17.4477 8.55228 17 8 17ZM12 17C11.4477 17 11 17.4477 11 18C11 18.5523 11.4477 19 12 19C12.5523 19 13 18.5523 13 18C13 17.4477 12.5523 17 12 17ZM16 13C15.4477 13 15 13.4477 15 14V18C15 18.5523 15.4477 19 16 19C16.5523 19 17 18.5523 17 18V14C17 13.4477 16.5523 13 16 13ZM8 13C7.44772 13 7 13.4477 7 14C7 14.5523 7.44772 15 8 15C8.55228 15 9 14.5523 9 14C9 13.4477 8.55228 13 8 13ZM12 13C11.4477 13 11 13.4477 11 14C11 14.5523 11.4477 15 12 15C12.5523 15 13 14.5523 13 14C13 13.4477 12.5523 13 12 13ZM8 5C7.44772 5 7 5.44772 7 6V10C7 10.5523 7.44772 11 8 11H16C16.5523 11 17 10.5523 17 10V6C17 5.44772 16.5523 5 16 5H8Z" fill="currentColor"/>
</svg>
