<svg width="24" height="24" viewBox="0 0 24 24" fill="currentColor" xmlns="http://www.w3.org/2000/svg">
<path d="M2.80769 4.22176C2.41717 3.83123 2.41717 3.19807 2.80769 2.80754C3.19822 2.41702 3.83138 2.41702 4.22191 2.80754L21.1925 19.7781C21.583 20.1686 21.583 20.8018 21.1925 21.1923C20.8019 21.5828 20.1688 21.5828 19.7783 21.1923L2.80769 4.22176Z" fill="currentColor"/>
<path d="M14 18.2422V21.7988C13.3537 21.93 12.685 22 12 22C10.7103 22 9.47864 21.7532 8.34668 21.3086L12.7061 16.9482L14 18.2422ZM16.623 20.8652C16.4192 20.9717 16.2118 21.0725 16 21.165V20.2422L16.623 20.8652ZM6.48633 20.3408C4.88708 19.2815 3.61108 17.7758 2.83496 16H10.8281L6.48633 20.3408ZM21.7998 10C21.931 10.6462 22 11.3151 22 12C22 13.2894 21.753 14.5206 21.3086 15.6523L15.6562 10H21.7998ZM8.34375 14H2.2002C2.06902 13.3538 2 12.6849 2 12C2 10.7104 2.24591 9.47855 2.69043 8.34668L8.34375 14ZM17.5127 3.6582C19.1125 4.71755 20.3887 6.22379 21.165 8H13.1719L17.5127 3.6582ZM12 2C13.2893 2 14.5207 2.24612 15.6523 2.69043L11.292 7.0498L10 5.75781V2.2002C10.6462 2.06902 11.3151 2 12 2ZM8 3.75781L7.375 3.13281C7.57919 3.0261 7.7878 2.92672 8 2.83398V3.75781Z" fill="currentColor"/>
</svg>
