<svg width="24" height="24" viewBox="0 0 24 24" fill="currentColor" xmlns="http://www.w3.org/2000/svg">
<path d="M14 21.7988C13.3537 21.93 12.685 22 12 22C10.7103 22 9.47864 21.7532 8.34668 21.3086L14 15.6562V21.7988ZM20.3408 17.5127C19.2815 19.1123 17.776 20.3888 16 21.165V13.1719L20.3408 17.5127ZM10.8281 16L6.48633 20.3408C4.88708 19.2815 3.61108 17.7758 2.83496 16H10.8281ZM21.7998 10C21.931 10.6462 22 11.3151 22 12C22 13.2894 21.753 14.5206 21.3086 15.6523L15.6562 10H21.7998ZM8.34375 14H2.2002C2.06902 13.3538 2 12.6849 2 12C2 10.7104 2.24591 9.47855 2.69043 8.34668L8.34375 14ZM8 10.8281L3.6582 6.48633C4.7176 4.88676 6.22388 3.61016 8 2.83398V10.8281ZM12 2C13.2893 2 14.5207 2.24612 15.6523 2.69043L10 8.34375V2.2002C10.6462 2.06902 11.3151 2 12 2ZM17.5127 3.6582C19.1125 4.71755 20.3887 6.22379 21.165 8H13.1719L17.5127 3.6582Z" fill="currentColor"/>
</svg>
