<svg width="24" height="24" viewBox="0 0 24 24" fill="currentColor" xmlns="http://www.w3.org/2000/svg">
<g clip-path="url(#clip0_4210_2073)">
<path d="M17.0732 5.27423C17.659 4.68847 17.6592 3.73839 17.0734 3.15259C16.4876 2.56706 15.5379 2.56753 14.9522 3.15321L12.0142 6.09223L9.07338 3.15284C8.48772 2.56725 7.5384 2.56678 6.95261 3.15215C6.36687 3.73791 6.36668 4.68801 6.95236 5.2738L10.9523 9.27435C11.5381 9.85993 12.4878 9.85942 13.0735 9.27373L17.0732 5.27423Z" fill="currentColor"/>
<path d="M17.0741 18.7519C17.6597 19.3377 17.6592 20.2874 17.0735 20.8731C16.4877 21.4588 15.5376 21.4592 14.9518 20.8734L12.0142 17.9335L9.07342 20.8729C8.48775 21.4585 7.53847 21.459 6.95265 20.8736C6.36686 20.2878 6.36665 19.3377 6.9524 18.7519L10.9523 14.7514C11.2336 14.4702 11.6151 14.3122 12.0128 14.3121C12.4106 14.3121 12.7922 14.4707 13.0735 14.752L17.0741 18.7519Z" fill="currentColor"/>
<path d="M4 12C4 11.4477 4.44772 11 5 11H19C19.5523 11 20 11.4477 20 12C20 12.5523 19.5523 13 19 13H5C4.44772 13 4 12.5523 4 12Z" fill="currentColor"/>
<path d="M5 13L4.89746 12.9951C4.39333 12.9438 4 12.5177 4 12C4 11.4823 4.39333 11.0562 4.89746 11.0049L5 11H19C19.5523 11 20 11.4477 20 12C20 12.5523 19.5523 13 19 13H5Z" fill="currentColor"/>
</g>
<defs>
<clipPath id="clip0_4210_2073">
<rect width="24" height="24" fill="currentColor"/>
</clipPath>
</defs>
</svg>
