<svg width="24" height="24" viewBox="0 0 24 24" fill="currentColor" xmlns="http://www.w3.org/2000/svg">
<path d="M14 5C14.5418 5 15.0632 5.08673 15.5518 5.24609L14.1758 7.00488C14.1176 7.00152 14.059 7 14 7H9L8.8457 7.00391C7.31166 7.08163 6.08163 8.31166 6.00391 9.8457L6 10V15L6.00391 15.1543C6.08421 16.7394 7.39489 18 9 18H14C15.6569 18 17 16.6569 17 15V11.7051L18.9395 9.22559C18.9787 9.47802 19 9.73656 19 10V15C19 17.7614 16.7614 20 14 20H9C6.23858 20 4 17.7614 4 15V10C4 7.23858 6.23858 5 9 5H14Z" fill="currentColor"/>
<path d="M6.74096 11.3496C7.10034 10.9304 7.73107 10.8817 8.1504 11.2409L10.8646 13.5677L18.219 4.3749C18.564 3.94386 19.1931 3.87438 19.6243 4.21913C20.0555 4.56408 20.1262 5.19349 19.7815 5.62474L11.1349 16.4319L6.84966 12.7591C6.43039 12.3997 6.38168 11.769 6.74096 11.3496Z" fill="currentColor"/>
</svg>
