<svg width="24" height="24" viewBox="0 0 24 24" fill="currentColor" xmlns="http://www.w3.org/2000/svg">
<path d="M9.75 4.75C9.33579 4.75 9 5.08579 9 5.5V6C9 6.55228 9.44772 7 10 7H14L14.1025 6.99512C14.6067 6.94379 15 6.51768 15 6V5.5C15 5.08579 14.6642 4.75 14.25 4.75H13.875C13.6937 4.75 13.5427 4.62124 13.5078 4.4502L13.4922 4.2998C13.4573 4.12876 13.3063 4 13.125 4V2C13.851 2 14.4999 2.32656 14.9355 2.83984C16.1222 3.14475 17 4.21823 17 5.5V6C17 7.65685 15.6569 9 14 9H10C8.34315 9 7 7.65685 7 6V5.5C7 4.21856 7.87731 3.14507 9.06348 2.83984C9.49912 2.32628 10.1488 2 10.875 2V4C10.6937 4 10.5427 4.12876 10.5078 4.2998L10.4922 4.4502C10.4573 4.62124 10.3063 4.75 10.125 4.75H9.75ZM13.125 2V4H10.875V2H13.125Z" fill="currentColor"/>
<path d="M17 4C18.6569 4 20 5.34315 20 7V19C20 20.6569 18.6569 22 17 22H7C5.34315 22 4 20.6569 4 19V7C4 5.34315 5.34315 4 7 4H10.875C10.6937 4 10.5427 4.12876 10.5078 4.2998L10.4922 4.4502C10.4573 4.62124 10.3063 4.75 10.125 4.75H9.75C9.33579 4.75 9 5.08579 9 5.5V6H7C6.44772 6 6 6.44772 6 7V19C6 19.5523 6.44772 20 7 20H17C17.5523 20 18 19.5523 18 19V7C18 6.44772 17.5523 6 17 6H15V5.5C15 5.08579 14.6642 4.75 14.25 4.75H13.875C13.6937 4.75 13.5427 4.62124 13.5078 4.4502L13.4922 4.2998C13.4573 4.12876 13.3063 4 13.125 4H17Z" fill="currentColor"/>
<path d="M16 10C16.5523 10 17 10.4477 17 11V18C17 18.5523 16.5523 19 16 19H8C7.44772 19 7 18.5523 7 18V11C7 10.4477 7.44772 10 8 10H16ZM8.5 17C8.22386 17 8 17.2239 8 17.5C8 17.7761 8.22386 18 8.5 18H15.5C15.7761 18 16 17.7761 16 17.5C16 17.2239 15.7761 17 15.5 17H8.5ZM8.5 15C8.22386 15 8 15.2239 8 15.5C8 15.7761 8.22386 16 8.5 16H15.5C15.7761 16 16 15.7761 16 15.5C16 15.2239 15.7761 15 15.5 15H8.5ZM8.5 13C8.22386 13 8 13.2239 8 13.5C8 13.7761 8.22386 14 8.5 14H15.5C15.7761 14 16 13.7761 16 13.5C16 13.2239 15.7761 13 15.5 13H8.5ZM8.5 11C8.22386 11 8 11.2239 8 11.5C8 11.7761 8.22386 12 8.5 12H15.5C15.7761 12 16 11.7761 16 11.5C16 11.2239 15.7761 11 15.5 11H8.5Z" fill="currentColor"/>
</svg>
