<svg width="24" height="24" viewBox="0 0 24 24" fill="currentColor" xmlns="http://www.w3.org/2000/svg">
<path d="M5.63614 8.46463C4.85509 7.68358 4.85509 6.41725 5.63614 5.6362C6.41719 4.85515 7.68352 4.85515 8.46456 5.6362L18.3641 15.5357C19.1451 16.3167 19.1451 17.5831 18.3641 18.3641C17.583 19.1452 16.3167 19.1452 15.5356 18.3641L5.63614 8.46463Z" fill="currentColor"/>
<path d="M8.46451 18.3641C7.68346 19.1452 6.41713 19.1452 5.63608 18.3641C4.85503 17.5831 4.85503 16.3167 5.63608 15.5357L15.5356 5.63618C16.3166 4.85514 17.583 4.85514 18.364 5.63618C19.1451 6.41723 19.1451 7.68356 18.364 8.46461L8.46451 18.3641Z" fill="currentColor"/>
</svg>
