<svg width="24" height="24" viewBox="0 0 24 24" fill="currentColor" xmlns="http://www.w3.org/2000/svg">
<path d="M16 11.5C16 14.5376 13.5376 17 10.5 17C7.46243 17 5 14.5376 5 11.5C5 8.46243 7.46243 6 10.5 6C13.5376 6 16 8.46243 16 11.5Z" fill="currentColor"/>
<path d="M22 14.5C22 16.433 20.433 18 18.5 18C16.567 18 15 16.433 15 14.5C15 12.567 16.567 11 18.5 11C20.433 11 22 12.567 22 14.5Z" fill="currentColor"/>
<path d="M19 12C19 13.6569 17.6569 15 16 15C14.3431 15 13 13.6569 13 12C13 10.3431 14.3431 9 16 9C17.6569 9 19 10.3431 19 12Z" fill="currentColor"/>
<path d="M9 14.5C9 16.433 7.433 18 5.5 18C3.567 18 2 16.433 2 14.5C2 12.567 3.567 11 5.5 11C7.433 11 9 12.567 9 14.5Z" fill="currentColor"/>
<path d="M5 14H19V18H5V14Z" fill="currentColor"/>
</svg>
