<svg width="24" height="24" viewBox="0 0 24 24" fill="currentColor" xmlns="http://www.w3.org/2000/svg">
<g clip-path="url(#clip0_4210_2046)">
<path d="M17.6569 6.34315C14.5327 3.21895 9.46739 3.21895 6.34319 6.34315C3.219 9.46734 3.219 14.5327 6.34319 17.6569C9.46739 20.781 14.5327 20.781 17.6569 17.6569L19.0711 19.0711C15.1659 22.9763 8.83422 22.9763 4.92898 19.0711C1.02373 15.1658 1.02373 8.83418 4.92898 4.92893C8.83422 1.02369 15.1659 1.02369 19.0711 4.92893C22.9764 8.83418 22.9764 15.1658 19.0711 19.0711L17.6569 17.6569C20.7811 14.5327 20.7811 9.46734 17.6569 6.34315Z" fill="currentColor"/>
<path d="M8.46458 7.05022C8.85511 7.44074 8.85511 8.07391 8.46458 8.46443C8.07406 8.85496 7.44089 8.85496 7.05037 8.46443C6.65984 8.07391 6.65984 7.44074 7.05037 7.05022C7.44089 6.65969 8.07406 6.65969 8.46458 7.05022Z" fill="currentColor"/>
<path d="M8.46458 8.46443C8.07406 8.85496 7.44089 8.85496 7.05037 8.46443C6.65984 8.07391 6.65984 7.44074 7.05037 7.05022C7.44089 6.65969 8.07406 6.65969 8.46458 7.05022C8.85511 7.44074 8.85511 8.07391 8.46458 8.46443Z" fill="currentColor"/>
<path d="M8.46458 15.5356C8.85511 15.9261 8.85511 16.5593 8.46458 16.9498C8.07406 17.3403 7.44089 17.3403 7.05037 16.9498C6.65984 16.5593 6.65984 15.9261 7.05037 15.5356C7.44089 15.145 8.07406 15.145 8.46458 15.5356Z" fill="currentColor"/>
<path d="M8.46458 16.9498C8.07406 17.3403 7.44089 17.3403 7.05037 16.9498C6.65984 16.5593 6.65984 15.9261 7.05037 15.5356C7.44089 15.145 8.07406 15.145 8.46458 15.5356C8.85511 15.9261 8.85511 16.5593 8.46458 16.9498Z" fill="currentColor"/>
<path d="M16.9497 15.5356C17.3402 15.9261 17.3402 16.5593 16.9497 16.9498C16.5592 17.3403 15.926 17.3403 15.5355 16.9498C15.145 16.5593 15.145 15.9261 15.5355 15.5356C15.926 15.145 16.5592 15.145 16.9497 15.5356Z" fill="currentColor"/>
<path d="M16.9497 16.9498C16.5592 17.3403 15.926 17.3403 15.5355 16.9498C15.145 16.5593 15.145 15.9261 15.5355 15.5356C15.926 15.145 16.5592 15.145 16.9497 15.5356C17.3402 15.9261 17.3402 16.5593 16.9497 16.9498Z" fill="currentColor"/>
<path d="M16.9497 7.05022C17.3402 7.44074 17.3402 8.07391 16.9497 8.46443C16.5592 8.85496 15.926 8.85496 15.5355 8.46443C15.145 8.07391 15.145 7.44074 15.5355 7.05022C15.926 6.65969 16.5592 6.65969 16.9497 7.05022Z" fill="currentColor"/>
<path d="M16.9497 8.46443C16.5592 8.85496 15.926 8.85496 15.5355 8.46443C15.145 8.07391 15.145 7.44074 15.5355 7.05022C15.926 6.65969 16.5592 6.65969 16.9497 7.05022C17.3402 7.44074 17.3402 8.07391 16.9497 8.46443Z" fill="currentColor"/>
<path d="M16.2427 12L12 19.0711L7.75738 12L12 4.92893L16.2427 12ZM10.9394 7.40381C10.3537 7.98957 10.3537 8.93936 10.9394 9.52513C11.5251 10.1109 12.4749 10.1108 13.0607 9.52513C13.6465 8.93934 13.6465 7.98959 13.0607 7.40381C12.4749 6.81812 11.5251 6.81805 10.9394 7.40381Z" fill="currentColor"/>
</g>
<defs>
<clipPath id="clip0_4210_2046">
<rect width="24" height="24" fill="currentColor"/>
</clipPath>
</defs>
</svg>
