<svg width="24" height="24" viewBox="0 0 24 24" fill="currentColor" xmlns="http://www.w3.org/2000/svg">
<g clip-path="url(#clip0_4210_2040)">
<path d="M6.34315 6.3431C3.21895 9.46729 3.21895 14.5326 6.34315 17.6568C9.46734 20.781 14.5327 20.781 17.6569 17.6568C20.781 14.5326 20.781 9.46729 17.6569 6.3431L19.0711 4.92889C22.9763 8.83413 22.9763 15.1658 19.0711 19.071C15.1658 22.9763 8.83418 22.9763 4.92893 19.071C1.02369 15.1658 1.02369 8.83413 4.92893 4.92889C8.83418 1.02364 15.1658 1.02364 19.0711 4.92889L17.6569 6.3431C14.5327 3.21891 9.46734 3.21891 6.34315 6.3431Z" fill="currentColor"/>
<path d="M7.05022 15.5355C7.44074 15.145 8.07391 15.145 8.46443 15.5355C8.85496 15.9261 8.85496 16.5592 8.46443 16.9498C8.07391 17.3403 7.44074 17.3403 7.05022 16.9498C6.65969 16.5592 6.65969 15.9261 7.05022 15.5355Z" fill="currentColor"/>
<path d="M8.46443 15.5355C8.85496 15.9261 8.85496 16.5592 8.46443 16.9498C8.07391 17.3403 7.44074 17.3403 7.05022 16.9498C6.65969 16.5592 6.65969 15.9261 7.05022 15.5355C7.44074 15.145 8.07391 15.145 8.46443 15.5355Z" fill="currentColor"/>
<path d="M15.5356 15.5355C15.9261 15.145 16.5593 15.145 16.9498 15.5355C17.3403 15.9261 17.3403 16.5592 16.9498 16.9498C16.5593 17.3403 15.9261 17.3403 15.5356 16.9498C15.145 16.5592 15.145 15.9261 15.5356 15.5355Z" fill="currentColor"/>
<path d="M16.9498 15.5355C17.3403 15.9261 17.3403 16.5592 16.9498 16.9498C16.5593 17.3403 15.9261 17.3403 15.5356 16.9498C15.145 16.5592 15.145 15.9261 15.5356 15.5355C15.9261 15.145 16.5593 15.145 16.9498 15.5355Z" fill="currentColor"/>
<path d="M15.5356 7.05019C15.9261 6.65966 16.5593 6.65966 16.9498 7.05019C17.3403 7.44071 17.3403 8.07388 16.9498 8.4644C16.5593 8.85493 15.9261 8.85493 15.5356 8.4644C15.145 8.07388 15.145 7.44071 15.5356 7.05019Z" fill="currentColor"/>
<path d="M16.9498 7.05019C17.3403 7.44071 17.3403 8.07388 16.9498 8.4644C16.5593 8.85493 15.9261 8.85493 15.5356 8.4644C15.145 8.07388 15.145 7.44071 15.5356 7.05019C15.9261 6.65966 16.5593 6.65966 16.9498 7.05019Z" fill="currentColor"/>
<path d="M7.05022 7.05019C7.44074 6.65966 8.07391 6.65966 8.46443 7.05019C8.85496 7.44071 8.85496 8.07388 8.46443 8.4644C8.07391 8.85493 7.44074 8.85493 7.05022 8.4644C6.65969 8.07388 6.65969 7.44071 7.05022 7.05019Z" fill="currentColor"/>
<path d="M8.46443 7.05019C8.85496 7.44071 8.85496 8.07388 8.46443 8.4644C8.07391 8.85493 7.44074 8.85493 7.05022 8.4644C6.65969 8.07388 6.65969 7.44071 7.05022 7.05019C7.44074 6.65966 8.07391 6.65966 8.46443 7.05019Z" fill="currentColor"/>
<path d="M12 7.75734L19.0711 12L12 16.2426L4.92893 12L12 7.75734ZM7.40381 13.0606C7.9896 13.6463 8.93937 13.6464 9.52513 13.0606C10.1109 12.4749 10.1108 11.5251 9.52513 10.9393C8.93935 10.3535 7.98959 10.3536 7.40381 10.9393C6.81802 11.5251 6.81802 12.4749 7.40381 13.0606Z" fill="currentColor"/>
</g>
<defs>
<clipPath id="clip0_4210_2040">
<rect width="24" height="24" fill="currentColor"/>
</clipPath>
</defs>
</svg>
