<svg width="24" height="24" viewBox="0 0 24 24" fill="currentColor" xmlns="http://www.w3.org/2000/svg">
<g clip-path="url(#clip0_4210_2044)">
<path d="M17.6569 17.6569C20.781 14.5327 20.781 9.46739 17.6569 6.34319C14.5327 3.219 9.46734 3.219 6.34315 6.34319C3.21895 9.46739 3.21895 14.5327 6.34315 17.6569L4.92893 19.0711C1.02369 15.1659 1.02369 8.83422 4.92893 4.92898C8.83418 1.02373 15.1658 1.02373 19.0711 4.92898C22.9763 8.83422 22.9763 15.1659 19.0711 19.0711C15.1658 22.9764 8.83418 22.9764 4.92893 19.0711L6.34315 17.6569C9.46734 20.7811 14.5327 20.7811 17.6569 17.6569Z" fill="currentColor"/>
<path d="M16.9498 8.46446C16.5593 8.85498 15.9261 8.85498 15.5356 8.46446C15.145 8.07394 15.145 7.44077 15.5356 7.05025C15.9261 6.65972 16.5593 6.65972 16.9498 7.05025C17.3403 7.44077 17.3403 8.07394 16.9498 8.46446Z" fill="currentColor"/>
<path d="M15.5356 8.46446C15.145 8.07394 15.145 7.44077 15.5356 7.05025C15.9261 6.65972 16.5593 6.65972 16.9498 7.05025C17.3403 7.44077 17.3403 8.07394 16.9498 8.46446C16.5593 8.85498 15.9261 8.85498 15.5356 8.46446Z" fill="currentColor"/>
<path d="M8.46443 8.46446C8.07391 8.85498 7.44074 8.85498 7.05022 8.46446C6.65969 8.07394 6.65969 7.44077 7.05022 7.05025C7.44074 6.65972 8.07391 6.65972 8.46443 7.05025C8.85496 7.44077 8.85496 8.07394 8.46443 8.46446Z" fill="currentColor"/>
<path d="M7.05022 8.46446C6.65969 8.07394 6.65969 7.44077 7.05022 7.05025C7.44074 6.65972 8.07391 6.65972 8.46443 7.05025C8.85496 7.44077 8.85496 8.07394 8.46443 8.46446C8.07391 8.85498 7.44074 8.85498 7.05022 8.46446Z" fill="currentColor"/>
<path d="M8.46443 16.9498C8.07391 17.3403 7.44074 17.3403 7.05022 16.9498C6.65969 16.5593 6.65969 15.9261 7.05022 15.5356C7.44074 15.1451 8.07391 15.1451 8.46443 15.5356C8.85496 15.9261 8.85496 16.5593 8.46443 16.9498Z" fill="currentColor"/>
<path d="M7.05022 16.9498C6.65969 16.5593 6.65969 15.9261 7.05022 15.5356C7.44074 15.1451 8.07391 15.1451 8.46443 15.5356C8.85496 15.9261 8.85496 16.5593 8.46443 16.9498C8.07391 17.3403 7.44074 17.3403 7.05022 16.9498Z" fill="currentColor"/>
<path d="M16.9498 16.9498C16.5593 17.3403 15.9261 17.3403 15.5356 16.9498C15.145 16.5593 15.145 15.9261 15.5356 15.5356C15.9261 15.1451 16.5593 15.1451 16.9498 15.5356C17.3403 15.9261 17.3403 16.5593 16.9498 16.9498Z" fill="currentColor"/>
<path d="M15.5356 16.9498C15.145 16.5593 15.145 15.9261 15.5356 15.5356C15.9261 15.1451 16.5593 15.1451 16.9498 15.5356C17.3403 15.9261 17.3403 16.5593 16.9498 16.9498C16.5593 17.3403 15.9261 17.3403 15.5356 16.9498Z" fill="currentColor"/>
<path d="M12 16.2427L4.92893 12L12 7.75738L19.0711 12L12 16.2427ZM16.5962 10.9394C16.0104 10.3537 15.0606 10.3536 14.4749 10.9394C13.8891 11.5251 13.8892 12.4749 14.4749 13.0607C15.0607 13.6465 16.0104 13.6464 16.5962 13.0607C17.182 12.4749 17.182 11.5251 16.5962 10.9394Z" fill="currentColor"/>
</g>
<defs>
<clipPath id="clip0_4210_2044">
<rect width="24" height="24" fill="currentColor"/>
</clipPath>
</defs>
</svg>
