<svg width="24" height="24" viewBox="0 0 24 24" fill="currentColor" xmlns="http://www.w3.org/2000/svg">
<g clip-path="url(#clip0_4210_2042)">
<path d="M6.3431 17.6569C9.46729 20.781 14.5326 20.781 17.6568 17.6569C20.781 14.5327 20.781 9.46734 17.6568 6.34315C14.5326 3.21895 9.46729 3.21895 6.3431 6.34315L4.92889 4.92893C8.83413 1.02369 15.1658 1.02369 19.071 4.92893C22.9763 8.83418 22.9763 15.1658 19.071 19.0711C15.1658 22.9763 8.83413 22.9763 4.92889 19.0711C1.02364 15.1658 1.02364 8.83418 4.92889 4.92893L6.3431 6.34315C3.21891 9.46734 3.21891 14.5327 6.3431 17.6569Z" fill="currentColor"/>
<path d="M15.5354 16.9498C15.1449 16.5593 15.1449 15.9261 15.5354 15.5356C15.9259 15.145 16.5591 15.145 16.9496 15.5356C17.3402 15.9261 17.3402 16.5593 16.9496 16.9498C16.5591 17.3403 15.9259 17.3403 15.5354 16.9498Z" fill="currentColor"/>
<path d="M15.5354 15.5356C15.9259 15.145 16.5591 15.145 16.9496 15.5356C17.3402 15.9261 17.3402 16.5593 16.9496 16.9498C16.5591 17.3403 15.9259 17.3403 15.5354 16.9498C15.1449 16.5593 15.1449 15.9261 15.5354 15.5356Z" fill="currentColor"/>
<path d="M15.5354 8.46443C15.1449 8.07391 15.1449 7.44074 15.5354 7.05022C15.9259 6.65969 16.5591 6.65969 16.9496 7.05022C17.3402 7.44074 17.3402 8.07391 16.9496 8.46443C16.5591 8.85496 15.9259 8.85496 15.5354 8.46443Z" fill="currentColor"/>
<path d="M15.5354 7.05022C15.9259 6.65969 16.5591 6.65969 16.9496 7.05022C17.3402 7.44074 17.3402 8.07391 16.9496 8.46443C16.5591 8.85496 15.9259 8.85496 15.5354 8.46443C15.1449 8.07391 15.1449 7.44074 15.5354 7.05022Z" fill="currentColor"/>
<path d="M7.05031 8.46443C6.65979 8.07391 6.65979 7.44074 7.05031 7.05022C7.44083 6.65969 8.074 6.65969 8.46452 7.05022C8.85505 7.44074 8.85505 8.07391 8.46452 8.46443C8.074 8.85496 7.44083 8.85496 7.05031 8.46443Z" fill="currentColor"/>
<path d="M7.05031 7.05022C7.44083 6.65969 8.074 6.65969 8.46452 7.05022C8.85505 7.44074 8.85505 8.07391 8.46452 8.46443C8.074 8.85496 7.44083 8.85496 7.05031 8.46443C6.65979 8.07391 6.65979 7.44074 7.05031 7.05022Z" fill="currentColor"/>
<path d="M7.05031 16.9498C6.65979 16.5593 6.65979 15.9261 7.05031 15.5356C7.44083 15.145 8.074 15.145 8.46452 15.5356C8.85505 15.9261 8.85505 16.5593 8.46452 16.9498C8.074 17.3403 7.44083 17.3403 7.05031 16.9498Z" fill="currentColor"/>
<path d="M7.05031 15.5356C7.44083 15.145 8.074 15.145 8.46452 15.5356C8.85505 15.9261 8.85505 16.5593 8.46452 16.9498C8.074 17.3403 7.44083 17.3403 7.05031 16.9498C6.65979 16.5593 6.65979 15.9261 7.05031 15.5356Z" fill="currentColor"/>
<path d="M7.75734 12L12 4.92893L16.2426 12L12 19.0711L7.75734 12ZM13.0606 16.5962C13.6463 16.0104 13.6463 15.0606 13.0606 14.4749C12.4749 13.8891 11.5251 13.8892 10.9393 14.4749C10.3535 15.0607 10.3535 16.0104 10.9393 16.5962C11.5251 17.1819 12.4749 17.1819 13.0606 16.5962Z" fill="currentColor"/>
</g>
<defs>
<clipPath id="clip0_4210_2042">
<rect width="24" height="24" fill="currentColor"/>
</clipPath>
</defs>
</svg>
