<svg width="24" height="24" viewBox="0 0 24 24" fill="currentColor" xmlns="http://www.w3.org/2000/svg">
<path d="M11.9995 4C7.58123 4 3.99951 7.58172 3.99951 12C3.99951 16.4183 7.58123 20 11.9995 20C16.4178 20 19.9995 16.4183 19.9995 12H21.9995C21.9995 17.5228 17.5224 22 11.9995 22C6.47666 22 1.99951 17.5228 1.99951 12C1.99951 6.47715 6.47666 2 11.9995 2C17.5224 2 21.9995 6.47715 21.9995 12H19.9995C19.9995 7.58172 16.4178 4 11.9995 4Z" fill="currentColor"/>
<path d="M5.99951 11C6.5518 11 6.99951 11.4477 6.99951 12C6.99951 12.5523 6.5518 13 5.99951 13C5.44723 13 4.99951 12.5523 4.99951 12C4.99951 11.4477 5.44723 11 5.99951 11Z" fill="currentColor"/>
<path d="M6.99951 12C6.99951 12.5523 6.5518 13 5.99951 13C5.44723 13 4.99951 12.5523 4.99951 12C4.99951 11.4477 5.44723 11 5.99951 11C6.5518 11 6.99951 11.4477 6.99951 12Z" fill="currentColor"/>
<path d="M11.9995 17C12.5518 17 12.9995 17.4477 12.9995 18C12.9995 18.5523 12.5518 19 11.9995 19C11.4472 19 10.9995 18.5523 10.9995 18C10.9995 17.4477 11.4472 17 11.9995 17Z" fill="currentColor"/>
<path d="M12.9995 18C12.9995 18.5523 12.5518 19 11.9995 19C11.4472 19 10.9995 18.5523 10.9995 18C10.9995 17.4477 11.4472 17 11.9995 17C12.5518 17 12.9995 17.4477 12.9995 18Z" fill="currentColor"/>
<path d="M17.9995 11C18.5518 11 18.9995 11.4477 18.9995 12C18.9995 12.5523 18.5518 13 17.9995 13C17.4472 13 16.9995 12.5523 16.9995 12C16.9995 11.4477 17.4472 11 17.9995 11Z" fill="currentColor"/>
<path d="M18.9995 12C18.9995 12.5523 18.5518 13 17.9995 13C17.4472 13 16.9995 12.5523 16.9995 12C16.9995 11.4477 17.4472 11 17.9995 11C18.5518 11 18.9995 11.4477 18.9995 12Z" fill="currentColor"/>
<path d="M11.9995 5C12.5518 5 12.9995 5.44772 12.9995 6C12.9995 6.55228 12.5518 7 11.9995 7C11.4472 7 10.9995 6.55228 10.9995 6C10.9995 5.44772 11.4472 5 11.9995 5Z" fill="currentColor"/>
<path d="M12.9995 6C12.9995 6.55228 12.5518 7 11.9995 7C11.4472 7 10.9995 6.55228 10.9995 6C10.9995 5.44772 11.4472 5 11.9995 5C12.5518 5 12.9995 5.44772 12.9995 6Z" fill="currentColor"/>
<path d="M14.9995 9L16.9995 17L8.99951 15L6.99951 7L14.9995 9ZM7.99951 9.5C7.99951 10.3284 8.67108 11 9.49951 11C10.3279 11 10.9995 10.3284 10.9995 9.5C10.9995 8.67157 10.3279 8 9.49951 8C8.67108 8 7.99951 8.67157 7.99951 9.5Z" fill="currentColor"/>
</svg>
