<svg width="24" height="24" viewBox="0 0 24 24" fill="currentColor" xmlns="http://www.w3.org/2000/svg">
<path d="M16 12C16 14.2091 14.2091 16 12 16C9.79086 16 8 14.2091 8 12C8 9.79086 9.79086 8 12 8C14.2091 8 16 9.79086 16 12Z" fill="currentColor"/>
<path d="M7.75829 7.75831C7.36725 7.36727 6.72643 7.36368 6.39513 7.80647C5.49476 9.00983 5 10.4794 5 12C5 13.5206 5.49476 14.9902 6.39513 16.1936C6.72643 16.6364 7.36725 16.6328 7.75829 16.2417C8.14932 15.8507 8.13905 15.2207 7.83368 14.7597C7.29567 13.9474 7.00262 12.9888 7.00262 12C7.00262 11.0112 7.29567 10.0526 7.83368 9.24036C8.13905 8.77931 8.14932 8.14934 7.75829 7.75831Z" fill="currentColor"/>
<path d="M16.2417 16.2418C16.6328 16.6328 17.2736 16.6364 17.6049 16.1937C18.5052 14.9903 19 13.5207 19 12.0001C19 10.4795 18.5052 9.0099 17.6049 7.80655C17.2736 7.36376 16.6328 7.36735 16.2417 7.75839C15.8507 8.14942 15.8609 8.77939 16.1663 9.24044C16.7043 10.0527 16.9974 11.0113 16.9974 12.0001C16.9974 12.9889 16.7043 13.9475 16.1663 14.7598C15.8609 15.2208 15.8507 15.8508 16.2417 16.2418Z" fill="currentColor"/>
</svg>
