<svg width="24" height="24" viewBox="0 0 24 24" fill="currentColor" xmlns="http://www.w3.org/2000/svg">
<path d="M16 12C16 14.2091 14.2091 16 12 16C9.79086 16 8 14.2091 8 12C8 9.79086 9.79086 8 12 8C14.2091 8 16 9.79086 16 12Z" fill="currentColor"/>
<path d="M7.75829 7.75831C7.36725 7.36727 6.72643 7.36368 6.39513 7.80647C5.49476 9.00983 5 10.4794 5 12C5 13.5206 5.49476 14.9902 6.39513 16.1936C6.72643 16.6364 7.36725 16.6328 7.75829 16.2417C8.14932 15.8507 8.13905 15.2207 7.83368 14.7597C7.29567 13.9474 7.00262 12.9888 7.00262 12C7.00262 11.0112 7.29567 10.0526 7.83368 9.24036C8.13905 8.77931 8.14932 8.14934 7.75829 7.75831Z" fill="currentColor"/>
<path d="M5.63535 5.63536C5.24521 5.24522 4.6082 5.24235 4.2589 5.66945C2.80452 7.44777 2 9.68241 2 12C2 14.3176 2.80452 16.5523 4.2589 18.3306C4.6082 18.7577 5.24521 18.7548 5.63535 18.3647C6.02549 17.9745 6.01971 17.3453 5.68118 16.9096C4.59602 15.513 3.99805 13.7874 3.99805 12C3.99805 10.2127 4.59602 8.48698 5.68118 7.0904C6.01971 6.65472 6.02549 6.0255 5.63535 5.63536Z" fill="currentColor"/>
<path d="M16.2417 16.2417C16.6328 16.6327 17.2736 16.6363 17.6049 16.1935C18.5052 14.9902 19 13.5206 19 12C19 10.4794 18.5052 9.00978 17.6049 7.80643C17.2736 7.36364 16.6328 7.36723 16.2417 7.75826C15.8507 8.1493 15.8609 8.77927 16.1663 9.24031C16.7043 10.0526 16.9974 11.0112 16.9974 12C16.9974 12.9888 16.7043 13.9474 16.1663 14.7596C15.8609 15.2207 15.8507 15.8507 16.2417 16.2417Z" fill="currentColor"/>
<path d="M18.3647 18.3646C18.7548 18.7548 19.3918 18.7577 19.7411 18.3306C21.1955 16.5522 22 14.3176 22 12C22 9.68239 21.1955 7.44775 19.7411 5.66943C19.3918 5.24233 18.7548 5.2452 18.3647 5.63534C17.9745 6.02548 17.9803 6.6547 18.3188 7.09039C19.404 8.48696 20.002 10.2126 20.002 12C20.002 13.7873 19.404 15.513 18.3188 16.9096C17.9803 17.3453 17.9745 17.9745 18.3647 18.3646Z" fill="currentColor"/>
</svg>
