<svg width="24" height="24" viewBox="0 0 24 24" fill="currentColor" xmlns="http://www.w3.org/2000/svg">
<path d="M12 8C14.2091 8 16 9.79086 16 12C16 14.2091 14.2091 16 12 16C9.79086 16 8 14.2091 8 12C8 9.79086 9.79086 8 12 8ZM12 9C10.3431 9 9 10.3431 9 12C9 13.6569 10.3431 15 12 15C13.6569 15 15 13.6569 15 12C15 10.3431 13.6569 9 12 9Z" fill="currentColor"/>
<path d="M6.13867 12C6.13867 10.636 6.61365 9.32072 7.47266 8.27632C7.67219 8.03364 7.67506 7.67539 7.45312 7.45308C7.23081 7.23077 6.86759 7.22908 6.66406 7.46871C5.59361 8.72916 5 10.334 5 12C5 13.6659 5.59361 15.2708 6.66406 16.5312C6.84213 16.7409 7.1422 16.7659 7.36328 16.6201L7.45312 16.5468C7.64736 16.3523 7.66931 16.0536 7.53809 15.8193L7.47266 15.7236C6.66729 14.7444 6.19986 13.527 6.14453 12.2548L6.13867 12ZM7.13867 12C7.13867 13.1311 7.53275 14.2217 8.24512 15.0878C8.73258 15.6805 8.78806 16.6256 8.16016 17.2539C7.56413 17.8499 6.51931 17.905 5.90234 17.1787C4.67881 15.7381 4 13.904 4 12C4 10.0959 4.67881 8.26183 5.90234 6.82125L6.02246 6.69429C6.60611 6.14308 7.4753 6.17897 8.04297 6.64058L8.16016 6.74605L8.26953 6.86715C8.77935 7.49084 8.7022 8.35634 8.24512 8.91207C7.53275 9.77824 7.13867 10.8688 7.13867 12Z" fill="currentColor"/>
<path d="M17.8613 12C17.8613 13.364 17.3864 14.6793 16.5273 15.7237C16.3278 15.9664 16.3249 16.3246 16.5469 16.5469C16.7692 16.7692 17.1324 16.7709 17.3359 16.5313C18.4064 15.2708 19 13.666 19 12C19 10.3341 18.4064 8.72925 17.3359 7.46879C17.1579 7.25914 16.8578 7.23406 16.6367 7.37992L16.5469 7.45317C16.3526 7.64773 16.3307 7.94643 16.4619 8.18071L16.5273 8.27641C17.3327 9.25558 17.8001 10.473 17.8555 11.7452L17.8613 12ZM16.8613 12C16.8613 10.8689 16.4673 9.77833 15.7549 8.91215C15.2674 8.31948 15.2119 7.3744 15.8398 6.74614C16.4359 6.15011 17.4807 6.095 18.0977 6.82133C19.3212 8.26191 20 10.096 20 12C20 13.9041 19.3212 15.7382 18.0977 17.1788L17.9775 17.3057C17.3939 17.8569 16.5247 17.821 15.957 17.3594L15.8398 17.2539L15.7305 17.1329C15.2207 16.5092 15.2978 15.6437 15.7549 15.0879C16.4673 14.2218 16.8613 13.1312 16.8613 12Z" fill="currentColor"/>
</svg>
