<svg width="24" height="24" viewBox="0 0 24 24" fill="currentColor" xmlns="http://www.w3.org/2000/svg">
<path d="M21 13.5C21 15.9853 18.9853 18 16.5 18C14.0147 18 12 15.9853 12 13.5C12 11.0147 14.0147 9 16.5 9C18.9853 9 21 11.0147 21 13.5Z" fill="currentColor"/>
<path d="M12 10.5C12 12.9853 9.98528 15 7.5 15C5.01472 15 3 12.9853 3 10.5C3 8.01472 5.01472 6 7.5 6C9.98528 6 12 8.01472 12 10.5Z" fill="currentColor"/>
<path d="M3 20C3 19.4477 3.44772 19 4 19H20C20.5523 19 21 19.4477 21 20V20C21 20.5523 20.5523 21 20 21H4C3.44772 21 3 20.5523 3 20V20Z" fill="currentColor"/>
<path d="M3 17C3 16.4477 3.44772 16 4 16H11C11.5523 16 12 16.4477 12 17V17C12 17.5523 11.5523 18 11 18H4C3.44772 18 3 17.5523 3 17V17Z" fill="currentColor"/>
<path d="M12 7C12 6.44772 12.4477 6 13 6H20C20.5523 6 21 6.44772 21 7V7C21 7.55228 20.5523 8 20 8H13C12.4477 8 12 7.55228 12 7V7Z" fill="currentColor"/>
<path d="M3 4C3 3.44772 3.44772 3 4 3H20C20.5523 3 21 3.44772 21 4V4C21 4.55228 20.5523 5 20 5H4C3.44772 5 3 4.55228 3 4V4Z" fill="currentColor"/>
</svg>
