<svg width="24" height="24" viewBox="0 0 24 24" fill="currentColor" xmlns="http://www.w3.org/2000/svg">
<path d="M13 3C14.6569 3 16 4.34315 16 6V13C16 14.6569 14.6569 16 13 16H6C4.34315 16 3 14.6569 3 13V6C3 4.34315 4.34315 3 6 3H13ZM6 5C5.44772 5 5 5.44772 5 6V13C5 13.5523 5.44772 14 6 14H13C13.5523 14 14 13.5523 14 13V6C14 5.44772 13.5523 5 13 5H6Z" fill="currentColor"/>
<path d="M14.5 11C16.433 11 18 12.567 18 14.5C18 16.433 16.433 18 14.5 18C12.567 18 11 16.433 11 14.5C11 14.3302 11.0128 14.1633 11.0361 14H13C13.5523 14 14 13.5523 14 13V11.0352C14.1633 11.0118 14.3303 11 14.5 11Z" fill="currentColor"/>
<path d="M18 8C19.6569 8 21 9.34315 21 11V18C21 19.6569 19.6569 21 18 21H11C9.34315 21 8 19.6569 8 18V14H10V18C10 18.5523 10.4477 19 11 19H18C18.5523 19 19 18.5523 19 18V11C19 10.4477 18.5523 10 18 10H14V8H18Z" fill="currentColor"/>
<path d="M13 9.5C13 11.433 11.433 13 9.5 13C7.567 13 6 11.433 6 9.5C6 7.567 7.567 6 9.5 6C11.433 6 13 7.567 13 9.5Z" fill="currentColor"/>
</svg>
