<svg width="24" height="24" viewBox="0 0 24 24" fill="currentColor" xmlns="http://www.w3.org/2000/svg">
<path d="M17 8C17 7.44772 17.4477 7 18 7H21C21.5523 7 22 7.44772 22 8C22 8.55228 21.5523 9 21 9H18C17.4477 9 17 8.55228 17 8Z" fill="currentColor"/>
<path d="M17 12C17 11.4477 17.4477 11 18 11H21C21.5523 11 22 11.4477 22 12C22 12.5523 21.5523 13 21 13H18C17.4477 13 17 12.5523 17 12Z" fill="currentColor"/>
<path d="M17 16C17 15.4477 17.4477 15 18 15H21C21.5523 15 22 15.4477 22 16C22 16.5523 21.5523 17 21 17H18C17.4477 17 17 16.5523 17 16Z" fill="currentColor"/>
<path d="M2 8C2 7.44772 2.44772 7 3 7H6C6.55228 7 7 7.44772 7 8C7 8.55228 6.55228 9 6 9H3C2.44772 9 2 8.55228 2 8Z" fill="currentColor"/>
<path d="M2 12C2 11.4477 2.44772 11 3 11H6C6.55228 11 7 11.4477 7 12C7 12.5523 6.55228 13 6 13H3C2.44772 13 2 12.5523 2 12Z" fill="currentColor"/>
<path d="M2 16C2 15.4477 2.44772 15 3 15H6C6.55228 15 7 15.4477 7 16C7 16.5523 6.55228 17 6 17H3C2.44772 17 2 16.5523 2 16Z" fill="currentColor"/>
<path d="M16 7C15.4477 7 15 6.55228 15 6L15 3C15 2.44772 15.4477 2 16 2C16.5523 2 17 2.44772 17 3V6C17 6.55228 16.5523 7 16 7Z" fill="currentColor"/>
<path d="M12 7C11.4477 7 11 6.55228 11 6L11 3C11 2.44772 11.4477 2 12 2C12.5523 2 13 2.44772 13 3V6C13 6.55228 12.5523 7 12 7Z" fill="currentColor"/>
<path d="M8 7C7.44772 7 7 6.55228 7 6L7 3C7 2.44772 7.44772 2 8 2C8.55228 2 9 2.44772 9 3V6C9 6.55228 8.55228 7 8 7Z" fill="currentColor"/>
<path d="M16 22C15.4477 22 15 21.5523 15 21V18C15 17.4477 15.4477 17 16 17C16.5523 17 17 17.4477 17 18V21C17 21.5523 16.5523 22 16 22Z" fill="currentColor"/>
<path d="M12 22C11.4477 22 11 21.5523 11 21V18C11 17.4477 11.4477 17 12 17C12.5523 17 13 17.4477 13 18V21C13 21.5523 12.5523 22 12 22Z" fill="currentColor"/>
<path d="M8 22C7.44772 22 7 21.5523 7 21V18C7 17.4477 7.44772 17 8 17C8.55228 17 9 17.4477 9 18V21C9 21.5523 8.55228 22 8 22Z" fill="currentColor"/>
<path d="M14 5C16.7614 5 19 7.23858 19 10V14C19 16.7614 16.7614 19 14 19H10C7.23858 19 5 16.7614 5 14V10C5 7.23858 7.23858 5 10 5H14ZM10 7C8.34315 7 7 8.34315 7 10V14C7 15.6569 8.34315 17 10 17H14C15.6569 17 17 15.6569 17 14V10C17 8.34315 15.6569 7 14 7H10Z" fill="currentColor"/>
<path d="M9 10C9 9.44772 9.44772 9 10 9H14C14.5523 9 15 9.44772 15 10V14C15 14.5523 14.5523 15 14 15H10C9.44772 15 9 14.5523 9 14V10Z" fill="currentColor"/>
</svg>
