<svg width="24" height="24" viewBox="0 0 24 24" fill="currentColor" xmlns="http://www.w3.org/2000/svg">
<path d="M14 5C16.7614 5 19 7.23858 19 10V14C19 16.7614 16.7614 19 14 19H10C7.23858 19 5 16.7614 5 14V10C5 7.23858 7.23858 5 10 5H14ZM10 7C8.34315 7 7 8.34315 7 10V14C7 15.6569 8.34315 17 10 17H14C15.6569 17 17 15.6569 17 14V10C17 8.34315 15.6569 7 14 7H10Z" fill="currentColor"/>
<path d="M7.17383 15C7.58594 16.1647 8.69415 17 10 17H3C2.44772 17 2 16.5523 2 16C2 15.4477 2.44772 15 3 15H7.17383ZM21 15C21.5523 15 22 15.4477 22 16C22 16.5523 21.5523 17 21 17H14C15.3059 17 16.4141 16.1647 16.8262 15H21Z" fill="currentColor"/>
<path d="M7 13H3C2.44772 13 2 12.5523 2 12C2 11.4477 2.44772 11 3 11H7V13ZM21 11C21.5523 11 22 11.4477 22 12C22 12.5523 21.5523 13 21 13H17V11H21Z" fill="currentColor"/>
<path d="M10 7C8.69415 7 7.58594 7.83532 7.17383 9H3C2.44772 9 2 8.55228 2 8C2 7.44772 2.44772 7 3 7H10ZM21 7C21.5523 7 22 7.44772 22 8C22 8.55228 21.5523 9 21 9H16.8262C16.4141 7.83532 15.3059 7 14 7H21Z" fill="currentColor"/>
<path d="M17 21C17 21.5523 16.5523 22 16 22C15.4477 22 15 21.5523 15 21V16.8252C16.1645 16.413 17 15.3057 17 14V21ZM16 2C16.5523 2 17 2.44772 17 3V10C17 8.69415 16.1647 7.58594 15 7.17383V3C15 2.44772 15.4477 2 16 2Z" fill="currentColor"/>
<path d="M13 21C13 21.5523 12.5523 22 12 22C11.4477 22 11 21.5523 11 21V17H13V21ZM12 2C12.5523 2 13 2.44772 13 3V7H11V3C11 2.44772 11.4477 2 12 2Z" fill="currentColor"/>
<path d="M7 14C7 15.3057 7.83548 16.413 9 16.8252V21C9 21.5523 8.55228 22 8 22C7.44772 22 7 21.5523 7 21V14ZM8 2C8.55228 2 9 2.44772 9 3V7.17383C7.83532 7.58594 7 8.69415 7 10V3C7 2.44772 7.44772 2 8 2Z" fill="currentColor"/>
</svg>
