<svg width="24" height="24" viewBox="0 0 24 24" fill="currentColor" xmlns="http://www.w3.org/2000/svg">
<path d="M14.8623 8.60156C14.7998 7.97135 14.5316 7.48177 14.0576 7.13281C13.5837 6.78385 12.9404 6.60937 12.1279 6.60937C11.5758 6.60937 11.1097 6.6875 10.7295 6.84375C10.3493 6.99479 10.0576 7.20573 9.85449 7.47656C9.65658 7.7474 9.55762 8.05469 9.55762 8.39844C9.5472 8.6849 9.6071 8.9349 9.7373 9.14844C9.87272 9.36198 10.0576 9.54688 10.292 9.70313C10.5264 9.85417 10.7972 9.98698 11.1045 10.1016C11.4118 10.2109 11.7399 10.3047 12.0889 10.3828L13.5264 10.7266C14.2243 10.8828 14.8649 11.0911 15.4482 11.3516C16.0316 11.612 16.5368 11.9323 16.9639 12.3125C17.391 12.6927 17.7217 13.1406 17.9561 13.6563C18.1956 14.1719 18.318 14.763 18.3232 15.4297C18.318 16.4089 18.068 17.2578 17.5732 17.9766C17.0837 18.6901 16.3753 19.2448 15.4482 19.6406C14.5264 20.0313 13.4144 20.2266 12.1123 20.2266C10.8206 20.2266 9.69564 20.0286 8.7373 19.6328C7.78418 19.237 7.03939 18.651 6.50293 17.875C5.97168 17.0938 5.69303 16.1276 5.66699 14.9766H8.94043C8.97689 15.513 9.13053 15.9609 9.40137 16.3203C9.67741 16.6745 10.0446 16.9427 10.5029 17.125C10.9665 17.3021 11.4899 17.3906 12.0732 17.3906C12.6462 17.3906 13.1436 17.3073 13.5654 17.1406C13.9925 16.974 14.3232 16.7422 14.5576 16.4453C14.792 16.1484 14.9092 15.8073 14.9092 15.4219C14.9092 15.0625 14.8024 14.7604 14.5889 14.5156C14.3805 14.2708 14.0732 14.0625 13.667 13.8906C13.266 13.7188 12.7738 13.5625 12.1904 13.4219L10.4482 12.9844C9.09928 12.6563 8.03418 12.1432 7.25293 11.4453C6.47168 10.7474 6.08366 9.80729 6.08887 8.625C6.08366 7.65625 6.34147 6.8099 6.8623 6.08594C7.38835 5.36198 8.1097 4.79688 9.02637 4.39063C9.94303 3.98438 10.9847 3.78125 12.1514 3.78125C13.3389 3.78125 14.3753 3.98438 15.2607 4.39063C16.1514 4.79688 16.8441 5.36198 17.3389 6.08594C17.8337 6.8099 18.0889 7.64844 18.1045 8.60156H14.8623Z" fill="currentColor"/>
<path d="M11 3C11 2.44772 11.4477 2 12 2C12.5523 2 13 2.44772 13 3V21C13 21.5523 12.5523 22 12 22C11.4477 22 11 21.5523 11 21V3Z" fill="currentColor"/>
</svg>
