<svg width="24" height="24" viewBox="0 0 24 24" fill="currentColor" xmlns="http://www.w3.org/2000/svg">
<path d="M19 13C19 14.1046 18.1046 15 17 15C15.8954 15 15 14.1046 15 13C15 11.8954 15.8954 11 17 11C18.1046 11 19 11.8954 19 13Z" fill="currentColor"/>
<path d="M17 8C17 9.10457 16.1046 10 15 10C13.8954 10 13 9.10457 13 8C13 6.89543 13.8954 6 15 6C16.1046 6 17 6.89543 17 8Z" fill="currentColor"/>
<path d="M11 8C11 9.10457 10.1046 10 9 10C7.89543 10 7 9.10457 7 8C7 6.89543 7.89543 6 9 6C10.1046 6 11 6.89543 11 8Z" fill="currentColor"/>
<path d="M9 13C9 14.1046 8.10457 15 7 15C5.89543 15 5 14.1046 5 13C5 11.8954 5.89543 11 7 11C8.10457 11 9 11.8954 9 13Z" fill="currentColor"/>
<path d="M20 12C20 7.58172 16.4183 4 12 4C7.58172 4 4 7.58172 4 12C4 16.4183 7.58172 20 12 20V22C6.47715 22 2 17.5228 2 12C2 6.47715 6.47715 2 12 2C17.5228 2 22 6.47715 22 12C22 17.5228 17.5228 22 12 22V20C16.4183 20 20 16.4183 20 12Z" fill="currentColor"/>
<path d="M9 17C9 16.4477 9.44772 16 10 16H14C14.5523 16 15 16.4477 15 17C15 17.5523 14.5523 18 14 18H10C9.44772 18 9 17.5523 9 17Z" fill="currentColor"/>
</svg>
