<svg width="24" height="24" viewBox="0 0 24 24" fill="currentColor" xmlns="http://www.w3.org/2000/svg">
<path d="M11 12C11 11.4477 11.4477 11 12 11H18C18.5523 11 19 11.4477 19 12C19 12.5523 18.5523 13 18 13H12C11.4477 13 11 12.5523 11 12Z" fill="currentColor"/>
<path d="M4 21C4 20.4477 4.44772 20 5 20H19C19.5523 20 20 20.4477 20 21C20 21.5523 19.5523 22 19 22H5C4.44772 22 4 21.5523 4 21Z" fill="currentColor"/>
<path d="M4 17C4 16.4477 4.44772 16 5 16H19C19.5523 16 20 16.4477 20 17C20 17.5523 19.5523 18 19 18H5C4.44772 18 4 17.5523 4 17Z" fill="currentColor"/>
<path d="M18.001 20C16.3295 21.2558 14.2516 22 12 22C9.74835 22 7.67051 21.2558 5.99902 20H18.001ZM12 2C17.5228 2 22 6.47715 22 12C22 13.1461 21.8042 14.2461 21.4492 15.2715C21.0396 14.6921 20.431 14.2662 19.7217 14.0908C19.9018 13.4242 20 12.7236 20 12C20 7.58172 16.4183 4 12 4C7.58172 4 4 7.58172 4 12C4 12.7235 4.09731 13.4242 4.27734 14.0908C3.56823 14.2664 2.95925 14.6921 2.5498 15.2715C2.19493 14.2462 2 13.146 2 12C2 6.47715 6.47715 2 12 2Z" fill="currentColor"/>
<path d="M12 13C11.4477 13 11 12.5523 11 12V6C11 5.44772 11.4477 5 12 5C12.5523 5 13 5.44772 13 6V12C13 12.5523 12.5523 13 12 13Z" fill="currentColor"/>
</svg>
