<svg width="24" height="24" viewBox="0 0 24 24" fill="currentColor" xmlns="http://www.w3.org/2000/svg">
<path d="M9.10645 4.15036C9.85272 3.84381 10.7098 4.01543 11.2803 4.58591C11.8507 5.1564 12.0224 6.0135 11.7158 6.75974C11.5123 7.255 11.3994 7.7967 11.3994 8.36716L11.4053 8.58493C11.5187 10.8215 13.368 12.6005 15.6328 12.6006C16.2017 12.6006 16.7426 12.4872 17.2393 12.2832C17.9855 11.9765 18.8435 12.1483 19.4141 12.7187C19.9845 13.2892 20.1561 14.1463 19.8496 14.8925C18.6207 17.8848 15.6776 19.9998 12.2334 20C7.6864 20 4 16.3135 4 11.7666C4.00018 8.32298 6.11447 5.37961 9.10645 4.15036ZM6 11.7666C6 15.209 8.79097 18 12.2334 18C14.838 17.9998 17.0682 16.4016 18 14.1328C17.2699 14.4328 16.4711 14.6006 15.6328 14.6006C12.1904 14.6005 9.39943 11.8095 9.39941 8.36716C9.39941 7.52904 9.56624 6.72995 9.86621 5.99997C7.59782 6.93194 6.00014 9.16228 6 11.7666Z" fill="currentColor"/>
</svg>
