<svg width="24" height="24" viewBox="0 0 24 24" fill="currentColor" xmlns="http://www.w3.org/2000/svg">
<g clip-path="url(#clip0_3911_202)">
<path d="M7.29248 11.2073C6.902 10.8167 6.90284 10.1832 7.29335 9.7927C7.68391 9.40253 8.31665 9.40273 8.70705 9.79314L11.9987 13.0865L15.293 9.79314C15.6835 9.40265 16.3166 9.40224 16.7071 9.7927C17.0975 10.1831 17.0977 10.8163 16.7075 11.2068L12.7071 15.2073C12.3166 15.5978 11.683 15.5969 11.2925 15.2064L7.29248 11.2073Z" fill="currentColor"/>
<path d="M10.9999 6.0002C10.9999 5.44792 11.4477 5.00008 12 5.00009C12.5523 5.00009 13.0001 5.44793 13.0001 6.0002L12.9997 14.4999C12.9997 15.0522 12.5518 15.5 11.9996 15.5C11.4475 15.4998 11.0004 15.0524 11.0003 14.5003L10.9999 6.0002Z" fill="currentColor"/>
<path d="M4.9999 18C4.9999 17.4477 5.44773 16.9999 6.00002 16.9999L18.0001 17.0004C18.5524 17.0004 19.0002 17.4482 19.0002 18.0005C19 18.5525 18.5522 19.0005 18.0001 19.0006L6.00002 19.0002C5.44773 19.0002 4.9999 18.5523 4.9999 18Z" fill="currentColor"/>
</g>
<defs>
<clipPath id="clip0_3911_202">
<rect width="24" height="24" fill="currentColor"/>
</clipPath>
</defs>
</svg>
