<svg width="24" height="24" viewBox="0 0 24 24" fill="currentColor" xmlns="http://www.w3.org/2000/svg">
<path d="M2.80769 4.22176C2.41717 3.83123 2.41717 3.19807 2.80769 2.80754V2.80754C3.19822 2.41702 3.83138 2.41702 4.22191 2.80754L21.1925 19.7781C21.583 20.1686 21.583 20.8018 21.1925 21.1923V21.1923C20.8019 21.5828 20.1688 21.5828 19.7783 21.1923L2.80769 4.22176Z" fill="currentColor"/>
<path d="M10.8877 15.1299V17.5938L12.25 18.9561L12.9316 18.2744L13.4814 17.7236L14.5039 18.7461L12.25 21L9.52441 18.2744V13.7666L10.8877 15.1299ZM12.25 2C12.7813 2 13.2118 2.43065 13.2119 2.96191V3.45996C14.2421 3.84901 14.9755 4.84241 14.9756 6.00879V10.7334L9.60449 5.3623C9.81814 4.48455 10.4548 3.77471 11.2881 3.45996V2.96191C11.2882 2.43072 11.7188 2.00011 12.25 2Z" fill="currentColor"/>
</svg>
