<svg width="24" height="24" viewBox="0 0 24 24" fill="currentColor" xmlns="http://www.w3.org/2000/svg">
<path d="M12 8H8C6.89543 8 6 8.89543 6 10V16L6.01074 16.2041C6.1062 17.1457 6.85435 17.8938 7.7959 17.9893L8 18H14L14.2041 17.9893C15.2128 17.887 16 17.0357 16 16V12H18V16C18 18.2091 16.2091 20 14 20H8C5.79086 20 4 18.2091 4 16V10C4 7.79086 5.79086 6 8 6H12V8Z" fill="currentColor"/>
<path d="M19.7192 4.19075C19.963 4.43456 19.963 4.82985 19.7192 5.07366L19.2777 5.51511L18.3948 4.6322L18.8363 4.19075C19.0801 3.94694 19.4754 3.94694 19.7192 4.19075Z" fill="currentColor"/>
<path d="M11.0005 12.9094V10.408L11.9384 11.3459V11.9714L12.564 11.9714L13.5023 12.9098L11.0005 12.9094Z" fill="currentColor"/>
<path d="M19.1303 4.77926C19.8211 5.47002 19.821 6.58986 19.1303 7.28066L13.5015 12.9095L12.5632 11.9711L13.1892 11.9716L16.0034 9.15737L14.7527 7.90668L11.9385 10.7209L11.9385 11.3464L11.0001 10.4081L16.6289 4.77926C17.3197 4.08859 18.4396 4.08859 19.1303 4.77926Z" fill="currentColor"/>
</svg>
