<svg width="24" height="24" viewBox="0 0 24 24" fill="currentColor" xmlns="http://www.w3.org/2000/svg">
<g clip-path="url(#clip0_3911_169)">
<path d="M14.7236 9.27577C12.735 7.28733 10.5774 5.9851 8.77392 5.42535C6.87066 4.83469 5.90827 5.19604 5.55189 5.55241C5.1956 5.90899 4.8343 6.87162 5.42483 8.77444C5.98463 10.5778 7.28762 12.735 9.27594 14.7234C11.2645 16.7119 13.4221 18.0154 15.2256 18.5752C17.1284 19.1657 18.091 18.8044 18.4476 18.4481L19.8618 19.8623L19.6388 20.0647C17.2419 22.0405 12.0681 20.344 7.86173 16.1376C3.52003 11.7957 1.85279 6.42359 4.13768 4.1382C6.42293 1.85294 11.7957 3.51971 16.1378 7.86156L16.5369 8.27174C20.5803 12.5367 22.0758 17.6484 19.8618 19.8623L18.4476 18.4481C18.804 18.0918 19.1653 17.1294 18.5747 15.2261C18.0149 13.4226 16.7122 11.2644 14.7236 9.27577Z" fill="currentColor"/>
<path d="M9.27577 9.27644C7.28733 11.265 5.9851 13.4226 5.42535 15.2261C4.83469 17.1293 5.19604 18.0917 5.55241 18.4481C5.90899 18.8044 6.87162 19.1657 8.77444 18.5752C10.5778 18.0154 12.735 16.7124 14.7234 14.7241C16.7119 12.7355 18.0154 10.5779 18.5752 8.77442C19.1657 6.87159 18.8044 5.90896 18.4481 5.55239L19.8623 4.13817L20.0647 4.36121C22.0405 6.75814 20.344 11.9319 16.1376 16.1383C11.7957 20.48 6.42359 22.1472 4.1382 19.8623C1.85294 17.5771 3.51971 12.2043 7.86156 7.86222L8.27174 7.46309C12.5367 3.41966 17.6484 1.92423 19.8623 4.13817L18.4481 5.55239C18.0918 5.19601 17.1294 4.83466 15.2261 5.42533C13.4226 5.98509 11.2644 7.2878 9.27577 9.27644Z" fill="currentColor"/>
</g>
<defs>
<clipPath id="clip0_3911_169">
<rect width="24" height="24" fill="currentColor"/>
</clipPath>
</defs>
</svg>
