<svg width="24" height="24" viewBox="0 0 24 24" fill="currentColor" xmlns="http://www.w3.org/2000/svg">
<path d="M14 3C15.1046 3 16 3.89543 16 5V19C16 20.1046 15.1046 21 14 21H10C8.89543 21 8 20.1046 8 19V5C8 3.89543 8.89543 3 10 3H14ZM10 16C9.44772 16 9 16.4477 9 17V19C9 19.5523 9.44772 20 10 20H14C14.5523 20 15 19.5523 15 19V17C15 16.4477 14.5523 16 14 16H10ZM10 10C9.44772 10 9 10.4477 9 11C9 11.5523 9.44772 12 10 12H14C14.5523 12 15 11.5523 15 11C15 10.4477 14.5523 10 14 10H10ZM10 7C9.44772 7 9 7.44772 9 8C9 8.55228 9.44772 9 10 9H14C14.5523 9 15 8.55228 15 8C15 7.44772 14.5523 7 14 7H10ZM10 4C9.44772 4 9 4.44772 9 5C9 5.55228 9.44772 6 10 6H14C14.5523 6 15 5.55228 15 5C15 4.44772 14.5523 4 14 4H10Z" fill="currentColor"/>
</svg>
