<svg width="24" height="24" viewBox="0 0 24 24" fill="currentColor" xmlns="http://www.w3.org/2000/svg">
<path d="M11 5C11 4.44772 11.4477 4 12 4C12.5523 4 13 4.44772 13 5V19C13 19.5523 12.5523 20 12 20C11.4477 20 11 19.5523 11 19V5Z" fill="currentColor"/>
<path d="M3.24171 16.2417C3.63275 16.6327 4.27357 16.6363 4.60487 16.1935C5.50524 14.9902 6 13.5206 6 12C6 10.4794 5.50524 9.00978 4.60487 7.80643C4.27357 7.36364 3.63275 7.36723 3.24171 7.75826C2.85068 8.1493 2.86095 8.77927 3.16632 9.24031C3.70433 10.0526 3.99738 11.0112 3.99738 12C3.99738 12.9888 3.70433 13.9474 3.16632 14.7596C2.86095 15.2207 2.85068 15.8507 3.24171 16.2417Z" fill="currentColor"/>
<path d="M5.36465 18.3646C5.75479 18.7548 6.3918 18.7577 6.7411 18.3306C8.19548 16.5522 9 14.3176 9 12C9 9.68239 8.19548 7.44775 6.7411 5.66943C6.3918 5.24233 5.75479 5.2452 5.36465 5.63534C4.97451 6.02548 4.98029 6.6547 5.31882 7.09039C6.40398 8.48696 7.00195 10.2126 7.00195 12C7.00195 13.7873 6.40398 15.513 5.31882 16.9096C4.98029 17.3453 4.97451 17.9745 5.36465 18.3646Z" fill="currentColor"/>
<path d="M15.5386 15.5386C15.9274 15.9274 16.566 15.9313 16.8852 15.4835C17.6056 14.4733 18 13.257 18 12C18 10.743 17.6056 9.52673 16.8852 8.51655C16.566 8.0688 15.9274 8.07262 15.5386 8.46147C15.1497 8.85032 15.1631 9.47689 15.4444 9.94942C15.8106 10.5645 16.0086 11.2721 16.0086 12C16.0086 12.728 15.8106 13.4355 15.4444 14.0506C15.1631 14.5232 15.1497 15.1497 15.5386 15.5386Z" fill="currentColor"/>
<path d="M19.1274 14.1274C19.5145 14.5145 20.1556 14.5184 20.4359 14.0481C20.802 13.4338 21 12.7271 21 12C21 11.2729 20.802 10.5662 20.4359 9.95194C20.1556 9.48158 19.5145 9.48545 19.1274 9.87264C18.7402 10.2598 18.772 10.8917 18.9306 11.4158C18.9875 11.6035 19.0171 11.8002 19.0171 12C19.0171 12.1998 18.9875 12.3965 18.9306 12.5842C18.772 13.1083 18.7402 13.7402 19.1274 14.1274Z" fill="currentColor"/>
</svg>
