<svg width="24" height="24" viewBox="0 0 24 24" fill="currentColor" xmlns="http://www.w3.org/2000/svg">
<path d="M18.9277 9.73233C18.9277 8.66053 18.3559 7.66959 17.4277 7.13369L13.5 4.86612C12.5718 4.33022 11.4282 4.33022 10.5 4.86612L6.57227 7.13369L6.40234 7.23916C5.57444 7.79342 5.07227 8.72734 5.07227 9.73233V14.2675L5.07812 14.4677C5.14431 15.4616 5.70204 16.3637 6.57227 16.8661L10.5 19.1337C11.4282 19.6696 12.5718 19.6696 13.5 19.1337L17.4277 16.8661C18.3559 16.3302 18.9277 15.3393 18.9277 14.2675V9.73233ZM20.9277 14.2675C20.9277 16.0538 19.9747 17.7044 18.4277 18.5976L14.5 20.8661C12.953 21.7592 11.047 21.7592 9.5 20.8661L5.57227 18.5976C4.02526 17.7044 3.07227 16.0538 3.07227 14.2675V9.73233C3.07227 7.946 4.02526 6.29541 5.57227 5.40225L9.5 3.13369C11.047 2.24059 12.953 2.24059 14.5 3.13369L18.4277 5.40225C19.9747 6.29541 20.9277 7.946 20.9277 9.73233V14.2675Z" fill="currentColor"/>
<path d="M12 8C14.2091 8 16 9.79086 16 12C16 14.2091 14.2091 16 12 16C9.79086 16 8 14.2091 8 12C8 9.79086 9.79086 8 12 8ZM12 10C10.8954 10 10 10.8954 10 12C10 13.1046 10.8954 14 12 14C13.1046 14 14 13.1046 14 12C14 10.8954 13.1046 10 12 10Z" fill="currentColor"/>
</svg>
