<svg width="24" height="24" viewBox="0 0 24 24" fill="currentColor" xmlns="http://www.w3.org/2000/svg">
<path d="M12 2C17.5228 2 22 6.47715 22 12C22 17.5228 17.5228 22 12 22C6.47715 22 2 17.5228 2 12C2 6.47715 6.47715 2 12 2ZM7.5 7C5.75013 7 4.00025 8.79974 4 10.5996C4 11.7994 4 12.9996 4.58301 13C5.16634 13 6.33333 12 7.5 12C8.66667 12 9.83366 13 10.417 13C11 12.9996 11 11.7994 11 10.5996C10.9997 8.79974 9.24987 7 7.5 7ZM16.5 7C14.7501 7 13.0003 8.79974 13 10.5996C13 11.7994 13 12.9996 13.583 13C14.1663 13 15.3333 12 16.5 12C17.6667 12 18.8337 13 19.417 13C20 12.9996 20 11.7994 20 10.5996C19.9997 8.79974 18.2499 7 16.5 7Z" fill="currentColor"/>
</svg>
