<svg width="24" height="24" viewBox="0 0 24 24" fill="currentColor" xmlns="http://www.w3.org/2000/svg">
<path d="M22 12C22 17.5228 17.5228 22 12 22C6.47715 22 2 17.5228 2 12C2 6.47715 6.47715 2 12 2C17.5228 2 22 6.47715 22 12ZM20 12C20 7.58172 16.4183 4 12 4C7.58172 4 4 7.58172 4 12C4 16.4183 7.58172 20 12 20C16.4183 20 20 16.4183 20 12Z" fill="currentColor"/>
<path d="M13.5656 16.7099C13.1751 17.1004 12.5416 17.0996 12.1511 16.7091C11.7608 16.3185 11.7611 15.6858 12.1515 15.2954L15.4449 12.0037L12.1515 8.70945C11.761 8.31893 11.7606 7.68584 12.1511 7.29531C12.5415 6.9049 13.1747 6.90466 13.5652 7.29487L17.5657 11.2953C17.7532 11.4829 17.8583 11.7377 17.8583 12.0028C17.8582 12.2679 17.7526 12.5216 17.5652 12.709L13.5656 16.7099Z" fill="currentColor"/>
<path d="M7.00028 13.0017C6.448 13.0017 6.00001 12.5547 6.00001 12.0024C6.00004 11.4502 6.44771 11.0024 6.99997 11.0024L16.8584 11.0024C17.4106 11.0024 17.8585 11.4502 17.8585 12.0025C17.8583 12.5545 17.4108 13.0016 16.8588 13.0017L7.00028 13.0017Z" fill="currentColor"/>
</svg>
