<svg width="24" height="24" viewBox="0 0 24 24" fill="currentColor" xmlns="http://www.w3.org/2000/svg">
<path d="M14 17C14 15.8954 14.8954 15 16 15H18C19.1046 15 20 15.8954 20 17V19C20 20.1046 19.1046 21 18 21H16C14.8954 21 14 20.1046 14 19V17Z" fill="currentColor"/>
<path d="M4 17C4 15.8954 4.89543 15 6 15H8C9.10457 15 10 15.8954 10 17V19C10 20.1046 9.10457 21 8 21H6C4.89543 21 4 20.1046 4 19V17Z" fill="currentColor"/>
<path d="M3 12C3 11.4477 3.44772 11 4 11H20C20.5523 11 21 11.4477 21 12C21 12.5523 20.5523 13 20 13H4C3.44772 13 3 12.5523 3 12Z" fill="currentColor"/>
<path d="M11 9H13V11H11V9Z" fill="currentColor"/>
<path d="M6 13H8V15H6V13Z" fill="currentColor"/>
<path d="M16 13H18V15H16V13Z" fill="currentColor"/>
<path d="M9 5C9 3.89543 9.89543 3 11 3H13C14.1046 3 15 3.89543 15 5V7C15 8.10457 14.1046 9 13 9H11C9.89543 9 9 8.10457 9 7V5Z" fill="currentColor"/>
</svg>
