<svg width="24" height="24" viewBox="0 0 24 24" fill="currentColor" xmlns="http://www.w3.org/2000/svg">
<path d="M19 7C20.6569 7 22 8.34315 22 10V14C22 15.6569 20.6569 17 19 17H5C3.34315 17 2 15.6569 2 14V10C2 8.34315 3.34315 7 5 7H19ZM4.34766 9.18164V15H8.5293V13.7275H5.92676V12.7275H8.3252V11.4541H5.92676V10.4541H8.54102V9.18164H4.34766ZM9.24512 9.18164L10.9717 12.0908L9.1875 15H10.9834L11.9717 13.2725H12.0176L13.0059 15H14.8125L13.0059 12.0908L14.7451 9.18164H12.9834L12.0176 10.875H11.9717L11.0176 9.18164H9.24512ZM15.4258 9.18164V15H19.6074V13.7275H17.0049V12.7275H19.4033V11.4541H17.0049V10.4541H19.6191V9.18164H15.4258Z" fill="currentColor"/>
</svg>
