<svg width="24" height="24" viewBox="0 0 24 24" fill="currentColor" xmlns="http://www.w3.org/2000/svg">
<path d="M16 3V9H8V3H16ZM10 7H14V5H10V7Z" fill="currentColor"/>
<path d="M8.00488 18.1025C8.05621 18.6067 8.48232 19 9 19H15C15.5177 19 15.9438 18.6067 15.9951 18.1025L16 18V9H8V18L8.00488 18.1025ZM18 18C18 19.6569 16.6569 21 15 21H9C7.34315 21 6 19.6569 6 18V7H18V18Z" fill="currentColor"/>
<path d="M13 14C13 13.4477 12.5523 13 12 13C11.4477 13 11 13.4477 11 14C11 14.5523 11.4477 15 12 15V17C10.3431 17 9 15.6569 9 14C9 12.3431 10.3431 11 12 11C13.6569 11 15 12.3431 15 14C15 15.6569 13.6569 17 12 17V15C12.5523 15 13 14.5523 13 14Z" fill="currentColor"/>
</svg>
