<svg width="24" height="24" viewBox="0 0 24 24" fill="currentColor" xmlns="http://www.w3.org/2000/svg">
<path d="M3 5C3 3.89543 3.89543 3 5 3H7C8.10457 3 9 3.89543 9 5V7C9 8.10457 8.10457 9 7 9H5C3.89543 9 3 8.10457 3 7V5Z" fill="currentColor"/>
<path d="M9 11C9 9.89543 9.89543 9 11 9H13C14.1046 9 15 9.89543 15 11V13C15 14.1046 14.1046 15 13 15H11C9.89543 15 9 14.1046 9 13V11Z" fill="currentColor"/>
<path d="M15 17C15 15.8954 15.8954 15 17 15H19C20.1046 15 21 15.8954 21 17V19C21 20.1046 20.1046 21 19 21H17C15.8954 21 15 20.1046 15 19V17Z" fill="currentColor"/>
</svg>
