<svg width="24" height="24" viewBox="0 0 24 24" fill="currentColor" xmlns="http://www.w3.org/2000/svg">
<path d="M15.5 7.5C15.5 5.91455 14.4457 4.57583 13 4.14551V10.8535C14.4455 10.4231 15.5 9.08536 15.5 7.5ZM17.5 7.5C17.5 10.5376 15.0376 13 12 13H11V2H12C15.0376 2 17.5 4.46243 17.5 7.5Z" fill="currentColor"/>
<path d="M8.5 16.5C8.5 14.9145 9.55434 13.5758 11 13.1455V19.8535C9.55447 19.4231 8.5 18.0854 8.5 16.5ZM6.5 16.5C6.5 19.5376 8.96243 22 12 22H13V11H12C8.96243 11 6.5 13.4624 6.5 16.5Z" fill="currentColor"/>
<path d="M16.5 15.5C18.0855 15.5 19.4242 14.4457 19.8545 13H13.1465C13.5769 14.4455 14.9146 15.5 16.5 15.5ZM16.5 17.5C13.4624 17.5 11 15.0376 11 12V11H22V12C22 15.0376 19.5376 17.5 16.5 17.5Z" fill="currentColor"/>
<path d="M7.5 8.5C9.08545 8.5 10.4242 9.55434 10.8545 11H4.14648C4.57689 9.55447 5.91464 8.5 7.5 8.5ZM7.5 6.5C4.46243 6.5 2 8.96243 2 12V13H13V12C13 8.96243 10.5376 6.5 7.5 6.5Z" fill="currentColor"/>
</svg>
