<svg width="24" height="24" viewBox="0 0 24 24" fill="currentColor" xmlns="http://www.w3.org/2000/svg">
<path d="M12.001 2C17.5236 2.00026 22.001 6.47731 22.001 12C22.001 17.5227 17.5236 21.9997 12.001 22H3.99902C2.89444 22 1.99993 21.1065 2 20.002C2.00015 17.6051 2.00098 13.698 2.00098 12C2.00098 6.47715 6.47813 2 12.001 2ZM14.5 5.5C12.2909 5.5 10.5 7.29086 10.5 9.5V15.5C10.5 16.6045 9.60453 17.5 8.5 17.5C7.39546 17.5 6.5 16.6046 6.5 15.5C6.5 14.3954 7.39546 13.5 8.5 13.5H10V11.5H8.5C6.29086 11.5 4.5 13.2909 4.5 15.5C4.5 17.7091 6.29086 19.5 8.5 19.5C10.7091 19.5 12.5 17.7091 12.5 15.5V13.5H14.5C15.0523 13.5 15.5 13.0523 15.5 12.5C15.5 11.9477 15.0523 11.5 14.5 11.5H12.5V9.5C12.5 8.39543 13.3954 7.5 14.5 7.5C15.6046 7.5 16.5 8.39543 16.5 9.5C16.5014 9.49977 16.5269 9.5 17 9.5C16.5 9.5 16.5 9.50073 16.5 9.50098V9.52246C16.5003 9.53187 16.501 9.54336 16.502 9.55664C16.5039 9.58357 16.5078 9.61923 16.5146 9.66016C16.5279 9.73978 16.5553 9.85378 16.6152 9.97363C16.6761 10.0954 16.7754 10.2324 16.9336 10.3379C17.0949 10.4454 17.2875 10.5 17.5 10.5C17.7125 10.5 17.9051 10.4454 18.0664 10.3379C18.2246 10.2324 18.3239 10.0954 18.3848 9.97363C18.4447 9.85378 18.4721 9.73978 18.4854 9.66016C18.4922 9.61923 18.4961 9.58357 18.498 9.55664C18.499 9.54336 18.4997 9.53187 18.5 9.52246V9.50098L18 9.5H18.5C18.5 7.29086 16.7091 5.5 14.5 5.5Z" fill="currentColor"/>
</svg>
