<svg width="24" height="24" viewBox="0 0 24 24" fill="currentColor" xmlns="http://www.w3.org/2000/svg">
<path d="M18.9669 7C21.1205 7 22.5729 9.20208 21.7247 11.1816L18.7247 18.1816C18.2519 19.2847 17.1669 20 15.9669 20H6.10651C3.92469 20 2.47232 17.7451 3.37506 15.7588L6.55671 8.75879C7.04352 7.68781 8.11172 7 9.28815 7H18.9669ZM9.28815 9C8.89615 9 8.54035 9.22917 8.37799 9.58594L5.19538 16.5859C4.89442 17.248 5.37922 18 6.10651 18H15.9669C16.3669 18 16.7282 17.7612 16.8858 17.3936L19.8858 10.3936C20.1684 9.73374 19.6847 9 18.9669 9H9.28815Z" fill="currentColor"/>
<path d="M9.29297 3C10.0109 3.00005 10.6994 3.28529 11.207 3.79297C11.3396 3.92556 11.5196 3.99995 11.707 4H15C16.6568 4 17.9998 5.34329 18 7H16C15.9998 6.44786 15.5522 6 15 6H11.707C10.989 5.99995 10.3006 5.71481 9.79297 5.20703C9.66042 5.07444 9.48045 5.00005 9.29297 5H6.91309C6.70703 5.58234 6.15293 6 5.5 6H4.5C4.22386 6 4 6.22386 4 6.5V14.3828L3.375 15.7588C2.47226 17.7451 3.92463 20 6.10645 20H5C3.34315 20 2 18.6569 2 17V6.5C2 5.11929 3.11929 4 4.5 4H5.08691C5.29297 3.41766 5.84707 3 6.5 3H9.29297Z" fill="currentColor"/>
</svg>
