<svg width="24" height="24" viewBox="0 0 24 24" fill="currentColor" xmlns="http://www.w3.org/2000/svg">
<path d="M6.32178 3.60284C6.59792 3.12455 7.20951 2.96067 7.6878 3.23682L19.8122 10.2368C20.2905 10.513 20.4543 11.1245 20.1782 11.6028V11.6028C19.902 12.0811 19.2905 12.245 18.8122 11.9689L6.6878 4.96887C6.20951 4.69272 6.04563 4.08113 6.32178 3.60284V3.60284Z" fill="currentColor"/>
<path d="M6.6878 4.96887L6.60144 4.91337C6.19052 4.61685 6.06294 4.05116 6.32178 3.60284C6.58062 3.15452 7.13431 2.98217 7.59656 3.18978L7.6878 3.23682L19.8122 10.2368C20.2905 10.513 20.4543 11.1245 20.1782 11.6028C19.902 12.0811 19.2905 12.245 18.8122 11.9689L6.6878 4.96887Z" fill="currentColor"/>
<path d="M10.152 6.96887L7.15197 12.165L7.07821 12.3006C6.37849 13.668 6.82872 15.3482 8.11838 16.1826L8.25005 16.2631L10.8481 17.7631L10.9837 17.8369C12.3966 18.5599 14.1436 18.0551 14.9462 16.665L17.9462 11.4689L10.152 6.96887ZM16.6783 17.665C15.2975 20.0565 12.2396 20.8759 9.84812 19.4951L7.25005 17.9951C4.85859 16.6144 4.03921 13.5565 5.41992 11.165L9.41992 4.23682L20.6783 10.7368L16.6783 17.665Z" fill="currentColor"/>
<path d="M17.9461 11.4688L13.4461 19.263L5.65186 14.763L17.9461 11.4688Z" fill="currentColor"/>
<path d="M13.4461 19.263L5.65186 14.763L17.9461 11.4688L13.4461 19.263ZM8.24249 15.104L13.0801 17.897L15.873 13.0594L8.24249 15.104Z" fill="currentColor"/>
</svg>
