<svg width="24" height="24" viewBox="0 0 24 24" fill="currentColor" xmlns="http://www.w3.org/2000/svg">
<path d="M6 4C4.89543 4 4 4.89543 4 6C4 7.10457 4.89543 8 6 8H18C19.1046 8 20 7.10457 20 6C20 4.89543 19.1046 4 18 4L6 4Z" fill="currentColor"/>
<path d="M6 16C4.89543 16 4 16.8954 4 18C4 19.1046 4.89543 20 6 20H10C11.1046 20 12 19.1046 12 18C12 16.8954 11.1046 16 10 16H6Z" fill="currentColor"/>
<path d="M6 10C4.89543 10 4 10.8954 4 12C4 13.1046 4.89543 14 6 14H13.4286C14.5331 14 15.4286 13.1046 15.4286 12C15.4286 10.8954 14.5331 10 13.4286 10H6Z" fill="currentColor"/>
</svg>
