<svg width="24" height="24" viewBox="0 0 24 24" fill="currentColor" xmlns="http://www.w3.org/2000/svg">
<path d="M7 6C7 5.44772 7.44772 5 8 5H16C16.5523 5 17 5.44772 17 6V8H7V6Z" fill="currentColor"/>
<path d="M7 10H17V12H7V10Z" fill="currentColor"/>
<path d="M9 13.9999C9 12.8953 9.89543 11.9999 11 11.9999H13C14.1046 11.9999 15 12.8953 15 13.9999V19.9999C15 21.1044 14.1046 21.9999 13 21.9999H11C9.89543 21.9999 9 21.1044 9 19.9999V13.9999Z" fill="currentColor"/>
<path d="M9 18C9 15.9999 6.99902 15 6.99902 11.9999C6.99902 10 16.999 9.99952 16.999 11.9999C16.999 13.2807 15 16.0001 15 18C15 20 9 20 9 18Z" fill="currentColor"/>
<path d="M11 16C11 15.4477 11.4477 15 12 15C12.5523 15 13 15.4477 13 16V18C13 18.5523 12.5523 19 12 19C11.4477 19 11 18.5523 11 18V16Z" fill="currentColor"/>
<path d="M11 3C11 2.44772 11.4477 2 12 2C12.5523 2 13 2.44772 13 3C13 3.55228 12.5523 4 12 4C11.4477 4 11 3.55228 11 3Z" fill="currentColor"/>
<path d="M8 3C8 2.44772 8.44772 2 9 2C9.55228 2 10 2.44772 10 3C10 3.55228 9.55228 4 9 4C8.44772 4 8 3.55228 8 3Z" fill="currentColor"/>
<path d="M14 3C14 2.44772 14.4477 2 15 2C15.5523 2 16 2.44772 16 3C16 3.55228 15.5523 4 15 4C14.4477 4 14 3.55228 14 3Z" fill="currentColor"/>
</svg>
