<svg width="24" height="24" viewBox="0 0 24 24" fill="currentColor" xmlns="http://www.w3.org/2000/svg">
<path d="M15.5 5C16.3284 5 17 5.67157 17 6.5V8H7V6.5C7 5.67157 7.67157 5 8.5 5V6L8.39941 6.00977C8.17145 6.05629 8 6.25829 8 6.5V7H16V6.5C16 6.22386 15.7761 6 15.5 6V5ZM15.5 5V6H8.5V5H15.5Z" fill="currentColor"/>
<path d="M7 10H17V12H7V10Z" fill="currentColor"/>
<path d="M9 13.9999C9 12.8953 9.89543 11.9999 11 11.9999H13C14.1046 11.9999 15 12.8953 15 13.9999V19.9999C15 21.1044 14.1046 21.9999 13 21.9999H11C9.89543 21.9999 9 21.1044 9 19.9999V13.9999Z" fill="currentColor"/>
<path d="M9 18C9 15.9999 6.99902 15 6.99902 11.9999C6.99902 10 16.999 9.99952 16.999 11.9999C16.999 13.2807 15 16.0001 15 18C15 20 9 20 9 18Z" fill="currentColor"/>
<path d="M11 16C11 15.4477 11.4477 15 12 15C12.5523 15 13 15.4477 13 16V18C13 18.5523 12.5523 19 12 19C11.4477 19 11 18.5523 11 18V16Z" fill="currentColor"/>
</svg>
