<svg width="24" height="24" viewBox="0 0 24 24" fill="currentColor" xmlns="http://www.w3.org/2000/svg">
<path d="M19 8.76559C19 8.40242 18.8028 8.06696 18.4854 7.89059L12.4854 4.55758C12.1835 4.38999 11.8165 4.38999 11.5146 4.55758L5.51465 7.89059C5.19718 8.06696 5 8.40242 5 8.76559V15.2343C5 15.5975 5.19718 15.933 5.51465 16.1093L11.5146 19.4423C11.8165 19.6099 12.1835 19.6099 12.4854 19.4423L18.4854 16.1093C18.8028 15.933 19 15.5975 19 15.2343V8.76559ZM21 15.2343C21 16.3238 20.4094 17.3283 19.457 17.8574L13.457 21.1904L13.2852 21.2793C12.4142 21.6923 11.3925 21.6623 10.543 21.1904L4.54297 17.8574C3.59058 17.3283 3 16.3238 3 15.2343V8.76559C3 7.67609 3.59058 6.67165 4.54297 6.14254L10.543 2.80954C11.449 2.30616 12.551 2.30616 13.457 2.80954L19.457 6.14254C20.4094 6.67165 21 7.67609 21 8.76559V15.2343Z" fill="currentColor"/>
<path d="M12 4V11.5L5 7.5L12 4Z" fill="currentColor"/>
<path d="M12 11.5L5 7.5L12 4V11.5ZM7.11816 7.55859L11 9.77637V5.61816L7.11816 7.55859Z" fill="currentColor"/>
<path d="M12 11.5L19 7.5V16L12 20V11.5Z" fill="currentColor"/>
<path d="M19 16L12 20V11.5L19 7.5V16ZM13 12.0801V18.2764L18 15.4189V9.22266L13 12.0801Z" fill="currentColor"/>
</svg>
