<svg width="24" height="24" viewBox="0 0 24 24" fill="currentColor" xmlns="http://www.w3.org/2000/svg">
<path d="M14.333 2.00096C14.8405 1.99461 15.4086 2.02923 15.9531 2.1533C16.2222 2.21463 16.5831 2.31869 16.958 2.5117C17.2941 2.6848 17.9289 3.07607 18.3632 3.85057C18.7905 4.61261 18.983 5.48668 18.8613 6.39061C18.748 7.23164 18.3921 7.88661 18.0878 8.32713C17.7298 8.84547 17.235 9.33259 16.8632 9.6787C17.1345 9.73781 17.445 9.80134 17.8144 9.87694C18.1765 9.95105 18.6525 10.0524 19.1005 10.1953C19.4805 10.3165 20.2478 10.5862 20.9003 11.207C21.2683 11.5572 21.6404 12.0574 21.8457 12.7217C22.0529 13.3928 22.0314 14.041 21.8994 14.5908C21.6646 15.5682 21.0709 16.2903 20.6679 16.7217C20.6679 16.7217 20.6605 16.7292 20.6464 16.7461C20.6318 16.7636 20.6119 16.7886 20.5869 16.8213C20.5359 16.8879 20.4729 16.975 20.3964 17.0869C20.2389 17.3173 20.0651 17.5907 19.8554 17.9238C19.4805 18.5193 18.9407 19.3946 18.3798 20.084C18.0987 20.4295 17.6952 20.8784 17.1787 21.2471C16.6883 21.5969 15.7208 22.1389 14.456 21.9678C13.1028 21.7846 12.2643 20.9115 11.8261 20.2373C11.404 19.5878 11.1587 18.8501 10.9951 18.1885C10.9524 18.0158 10.9255 17.8396 10.914 17.6621C10.8635 16.8819 10.711 16.524 10.6435 16.3994C10.5263 16.389 10.2852 16.3951 9.91109 16.501C9.48824 16.6206 9.03559 16.8272 8.63765 17.0723C7.40387 17.8321 5.04277 18.6076 3.2109 16.7588C1.79414 15.3287 1.90903 13.3734 2.14937 12.2988C2.5652 10.4396 3.91875 8.37786 6.19234 7.31346C6.39529 6.48206 6.77269 5.71761 7.30269 5.04686C8.31817 3.76187 9.71187 3.03259 10.8759 2.62205C12.0669 2.20204 13.3031 2.01389 14.333 2.00096ZM15.747 5.31737C15.2822 4.48878 8.09236 5.07266 9.12007 9.60643C4.39868 9.97834 3.83603 16.314 6.915 14.6055L7.06441 14.5185C9.45492 13.0463 13.5644 12.1786 13.9072 17.4678C14.9029 21.4941 16.9457 16.5007 18.3427 14.8252L18.4755 14.6738C20.8086 12.1764 14.6837 13.4626 13.291 11.0488L13.2285 10.9316C11.9693 8.35861 16.7964 7.18862 15.747 5.31737Z" fill="currentColor"/>
</svg>
