<svg width="24" height="24" viewBox="0 0 24 24" fill="currentColor" xmlns="http://www.w3.org/2000/svg">
<path d="M18 9V10H10V9H18ZM19 8C19 7.44772 18.5523 7 18 7H10C9.44772 7 9 7.44772 9 8C9 8.55228 9.44772 9 10 9V10C8.89543 10 8 9.10457 8 8C8 6.89543 8.89543 6 10 6H18L18.2041 6.01074C19.2128 6.113 20 6.96435 20 8C20 9.03565 19.2128 9.887 18.2041 9.98926L18 10V9C18.5523 9 19 8.55228 19 8Z" fill="currentColor"/>
<path d="M18 12V13H10V12H18ZM19 11C19 10.4477 18.5523 10 18 10H10C9.44772 10 9 10.4477 9 11C9 11.5523 9.44772 12 10 12V13C8.89543 13 8 12.1046 8 11C8 9.89543 8.89543 9 10 9H18L18.2041 9.01074C19.2128 9.113 20 9.96435 20 11C20 12.0357 19.2128 12.887 18.2041 12.9893L18 13V12C18.5523 12 19 11.5523 19 11Z" fill="currentColor"/>
<path d="M18 15V16H10V15H18ZM19 14C19 13.4477 18.5523 13 18 13H10C9.44772 13 9 13.4477 9 14C9 14.5523 9.44772 15 10 15V16C8.89543 16 8 15.1046 8 14C8 12.8954 8.89543 12 10 12H18L18.2041 12.0107C19.2128 12.113 20 12.9643 20 14C20 15.0357 19.2128 15.887 18.2041 15.9893L18 16V15C18.5523 15 19 14.5523 19 14Z" fill="currentColor"/>
<path d="M18 18V19H10V18H18ZM19 17C19 16.4477 18.5523 16 18 16H10C9.44772 16 9 16.4477 9 17C9 17.5523 9.44772 18 10 18V19C8.89543 19 8 18.1046 8 17C8 15.8954 8.89543 15 10 15H18L18.2041 15.0107C19.2128 15.113 20 15.9643 20 17C20 18.0357 19.2128 18.887 18.2041 18.9893L18 19V18C18.5523 18 19 17.5523 19 17Z" fill="currentColor"/>
<path d="M2 6C2 4.89543 2.89543 4 4 4C5.10457 4 6 4.89543 6 6V18C6 19.1046 5.10457 20 4 20C2.89543 20 2 19.1046 2 18V6Z" fill="currentColor"/>
<path d="M5 18V6C5 5.44772 4.55228 5 4 5C3.44772 5 3 5.44772 3 6V18C3 18.5523 3.44772 19 4 19V20C2.89543 20 2 19.1046 2 18V6C2 4.89543 2.89543 4 4 4C5.10457 4 6 4.89543 6 6V18C6 19.1046 5.10457 20 4 20V19C4.55228 19 5 18.5523 5 18Z" fill="currentColor"/>
<path d="M18 6C18 4.89543 18.8954 4 20 4C21.1046 4 22 4.89543 22 6V18C22 19.1046 21.1046 20 20 20C18.8954 20 18 19.1046 18 18V6Z" fill="currentColor"/>
<path d="M21 18V6C21 5.44772 20.5523 5 20 5C19.4477 5 19 5.44772 19 6V18C19 18.5523 19.4477 19 20 19V20C18.8954 20 18 19.1046 18 18V6C18 4.89543 18.8954 4 20 4C21.1046 4 22 4.89543 22 6V18C22 19.1046 21.1046 20 20 20V19C20.5523 19 21 18.5523 21 18Z" fill="currentColor"/>
</svg>
