<svg width="24" height="24" viewBox="0 0 24 24" fill="currentColor" xmlns="http://www.w3.org/2000/svg">
<path d="M11.5 2C12.6469 2.00002 13.8678 2.51732 14.9707 3.1709C16.1003 3.84029 17.2323 4.72955 18.2324 5.63281C19.2343 6.53776 20.129 7.47915 20.7803 8.27051C21.1044 8.66434 21.381 9.03718 21.583 9.36035C21.6835 9.52106 21.7765 9.68772 21.8477 9.85059C21.9083 9.98947 22 10.2272 22 10.5C22 11.0847 21.7396 11.6731 21.4492 12.1719C21.1413 12.7009 20.715 13.2696 20.2197 13.8467C19.227 15.0035 17.8848 16.278 16.4473 17.46C15.0091 18.6424 13.4471 19.7555 12.0039 20.5791C11.2825 20.9907 10.5747 21.3392 9.91602 21.5869C9.26903 21.8302 8.60858 22 8 22C5.98627 22 4.58795 21.2692 3.7002 20.3008C2.84947 19.3727 2.5 18.2586 2.5 17.5C2.5 17.2714 2.55979 17.0687 2.60938 16.9307C2.66345 16.7802 2.73412 16.6301 2.80859 16.4893C2.95754 16.2076 3.15764 15.8946 3.37793 15.5762C3.82078 14.936 4.40078 14.1953 4.96777 13.502C5.45841 12.902 5.95013 12.3261 6.35059 11.8633C6.00581 11.6959 5.6213 11.4974 5.23633 11.2734C4.64432 10.929 4.00434 10.4999 3.5 10.0068C3.02432 9.54179 2.50008 8.85589 2.5 8C2.49996 7.18299 2.98497 6.41408 3.50098 5.81641C4.05204 5.17814 4.79987 4.55029 5.6377 3.99902C7.29292 2.90998 9.48462 1.99997 11.5 2ZM4.5 8C4.50008 8.02925 4.53536 8.22219 4.89844 8.57715C5.23323 8.90436 5.7131 9.23709 6.24219 9.54492C7.29315 10.1564 8.3584 10.5664 8.3584 10.5664L8.34668 10.5625C8.35647 10.5661 8.40418 10.5828 8.46094 10.6123C8.51015 10.6379 8.64507 10.712 8.76855 10.8604C8.91898 11.0412 9.01053 11.2822 8.99902 11.5439C8.98941 11.7623 8.91054 11.9191 8.875 11.9834C8.83563 12.0546 8.79635 12.1051 8.78125 12.124C8.76326 12.1466 8.74815 12.1634 8.74316 12.1689C8.73162 12.1818 7.62167 13.4164 6.5166 14.7676C5.96133 15.4465 5.41999 16.1392 5.02246 16.7139C4.82262 17.0027 4.67223 17.2422 4.57617 17.4238C4.54106 17.4902 4.51928 17.5407 4.50488 17.5752C4.53144 17.8564 4.69819 18.4293 5.1748 18.9492C5.66212 19.4808 6.51405 20 8 20C8.26638 20 8.66948 19.9198 9.21191 19.7158C9.74246 19.5163 10.3516 19.22 11.0127 18.8428C12.3348 18.0883 13.8037 17.0448 15.1777 15.915C16.5526 14.7846 17.8044 13.5901 18.7021 12.5439C19.1521 12.0196 19.4954 11.553 19.7207 11.166C19.8329 10.9733 19.9068 10.8149 19.9512 10.6914C19.9662 10.6497 19.975 10.614 19.9824 10.585C19.9604 10.5432 19.93 10.4885 19.8877 10.4209C19.7479 10.1973 19.5283 9.898 19.2354 9.54199C18.6523 8.83343 17.8281 7.96215 16.8926 7.11719C15.9552 6.27055 14.9308 5.47216 13.9512 4.8916C12.9447 4.29518 12.103 4.00001 11.5 4C10.0155 3.99998 8.20716 4.70284 6.7373 5.66992C6.01274 6.14665 5.41666 6.65744 5.01465 7.12305C4.57756 7.62931 4.49999 7.92931 4.5 8Z" fill="currentColor"/>
<path d="M14 8.5C14 9.32843 13.3284 10 12.5 10C11.6716 10 11 9.32843 11 8.5C11 7.67157 11.6716 7 12.5 7C13.3284 7 14 7.67157 14 8.5Z" fill="currentColor"/>
</svg>
