<svg width="24" height="24" viewBox="0 0 24 24" fill="currentColor" xmlns="http://www.w3.org/2000/svg">
<path d="M7.17383 15C7.58594 16.1647 8.69415 17 10 17H3C2.44772 17 2 16.5523 2 16C2 15.4477 2.44772 15 3 15H7.17383ZM21 15C21.5523 15 22 15.4477 22 16C22 16.5523 21.5523 17 21 17H14C15.3059 17 16.4141 16.1647 16.8262 15H21Z" fill="currentColor"/>
<path d="M7 13H3C2.44772 13 2 12.5523 2 12C2 11.4477 2.44772 11 3 11H7V13ZM21 11C21.5523 11 22 11.4477 22 12C22 12.5523 21.5523 13 21 13H17V11H21Z" fill="currentColor"/>
<path d="M10 7C8.69415 7 7.58594 7.83532 7.17383 9H3C2.44772 9 2 8.55228 2 8C2 7.44772 2.44772 7 3 7H10ZM21 7C21.5523 7 22 7.44772 22 8C22 8.55228 21.5523 9 21 9H16.8262C16.4141 7.83532 15.3059 7 14 7H21Z" fill="currentColor"/>
<path d="M14 5C16.7614 5 19 7.23858 19 10V14C19 16.7614 16.7614 19 14 19H10C7.23858 19 5 16.7614 5 14V10C5 7.23858 7.23858 5 10 5H14ZM10 7C8.34315 7 7 8.34315 7 10V14C7 15.6569 8.34315 17 10 17H14C15.6569 17 17 15.6569 17 14V10C17 8.34315 15.6569 7 14 7H10Z" fill="currentColor"/>
<path d="M13.8945 13.9468C13.7351 14.2656 13.4179 14.4757 13.0621 14.4979C12.7064 14.5201 12.3655 14.3515 12.1677 14.0551L11.1235 12.4881L9.89408 14.9469C9.64709 15.4408 9.04642 15.6411 8.55244 15.3941C8.0587 15.147 7.85829 14.5463 8.10522 14.0524L10.105 10.0529C10.2644 9.73411 10.5818 9.52395 10.9374 9.50169C11.2932 9.47955 11.6337 9.6489 11.8314 9.94541L12.8761 11.5115L14.1055 9.05273C14.3525 8.55876 14.9531 8.35853 15.4471 8.60552C15.9411 8.85251 16.1413 9.45318 15.8943 9.94716L13.8945 13.9468Z" fill="currentColor"/>
</svg>
