<svg width="24" height="24" viewBox="0 0 24 24" fill="currentColor" xmlns="http://www.w3.org/2000/svg">
<path d="M17 8C17 7.44772 17.4477 7 18 7H21C21.5523 7 22 7.44772 22 8C22 8.55228 21.5523 9 21 9H18C17.4477 9 17 8.55228 17 8Z" fill="currentColor"/>
<path d="M17 12C17 11.4477 17.4477 11 18 11H21C21.5523 11 22 11.4477 22 12C22 12.5523 21.5523 13 21 13H18C17.4477 13 17 12.5523 17 12Z" fill="currentColor"/>
<path d="M17 16C17 15.4477 17.4477 15 18 15H21C21.5523 15 22 15.4477 22 16C22 16.5523 21.5523 17 21 17H18C17.4477 17 17 16.5523 17 16Z" fill="currentColor"/>
<path d="M2 8C2 7.44772 2.44772 7 3 7H6C6.55228 7 7 7.44772 7 8C7 8.55228 6.55228 9 6 9H3C2.44772 9 2 8.55228 2 8Z" fill="currentColor"/>
<path d="M2 12C2 11.4477 2.44772 11 3 11H6C6.55228 11 7 11.4477 7 12C7 12.5523 6.55228 13 6 13H3C2.44772 13 2 12.5523 2 12Z" fill="currentColor"/>
<path d="M2 16C2 15.4477 2.44772 15 3 15H6C6.55228 15 7 15.4477 7 16C7 16.5523 6.55228 17 6 17H3C2.44772 17 2 16.5523 2 16Z" fill="currentColor"/>
<path d="M14 5C16.7614 5 19 7.23858 19 10V14C19 16.7614 16.7614 19 14 19H10C7.23858 19 5 16.7614 5 14V10C5 7.23858 7.23858 5 10 5H14ZM10 7C8.34315 7 7 8.34315 7 10V14C7 15.6569 8.34315 17 10 17H14C15.6569 17 17 15.6569 17 14V10C17 8.34315 15.6569 7 14 7H10Z" fill="currentColor"/>
<path d="M8 10C8 9.44772 8.44772 9 9 9C9.55228 9 10 9.44772 10 10V14C10 14.5523 9.55228 15 9 15C8.44772 15 8 14.5523 8 14V10Z" fill="currentColor"/>
<path d="M11 10C11 9.44772 11.4477 9 12 9C12.5523 9 13 9.44772 13 10V14C13 14.5523 12.5523 15 12 15C11.4477 15 11 14.5523 11 14V10Z" fill="currentColor"/>
<path d="M14 10C14 9.44772 14.4477 9 15 9C15.5523 9 16 9.44772 16 10V14C16 14.5523 15.5523 15 15 15C14.4477 15 14 14.5523 14 14V10Z" fill="currentColor"/>
</svg>
