<svg width="24" height="24" viewBox="0 0 24 24" fill="currentColor" xmlns="http://www.w3.org/2000/svg">
<g clip-path="url(#clip0_3911_195)">
<path d="M3 4C3 3.44772 3.44772 3 4 3C4.55228 3 5 3.44772 5 4V20C5 20.5523 4.55228 21 4 21C3.44772 21 3 20.5523 3 20V4Z" fill="currentColor"/>
<path d="M3 20C3 19.4477 3.44772 19 4 19H20C20.5523 19 21 19.4477 21 20C21 20.5523 20.5523 21 20 21H4C3.44772 21 3 20.5523 3 20Z" fill="currentColor"/>
<path d="M6.68937 11.0937C7.49452 10.1013 8.64699 9.29898 10.1398 9.50959C12.1384 9.79153 12.7744 11.5496 13.1864 12.5791C13.6892 13.8354 13.9762 14.3819 14.6882 14.5181C15.1609 14.6084 15.6928 14.3973 16.3236 13.4789C16.9448 12.5744 17.4647 11.2373 17.878 9.78154C18.2861 8.34425 18.5687 6.87171 18.7496 5.75186C18.8398 5.1937 18.904 4.72663 18.9456 4.40082C18.9663 4.23818 18.9816 4.11087 18.9914 4.025C18.9963 3.98207 19.0003 3.94913 19.0026 3.92778C19.0037 3.91722 19.0038 3.90916 19.0044 3.90421C19.0046 3.90201 19.0047 3.90038 19.0049 3.89935L19.0055 3.89863C19.0617 3.34929 19.5524 2.94951 20.1018 3.00563C20.6167 3.05834 21.0004 3.49264 21.0002 3.99936L20.9948 4.10187L20.9942 4.10535C20.994 4.10719 20.9942 4.10983 20.9939 4.11297C20.9931 4.11981 20.9916 4.13025 20.9903 4.14284C20.9875 4.16802 20.9843 4.20486 20.9789 4.25182C20.9682 4.34586 20.9519 4.482 20.93 4.65402C20.8861 4.99829 20.8185 5.48712 20.7243 6.07043C20.5365 7.23339 20.2389 8.78804 19.8021 10.3268C19.3704 11.8472 18.7802 13.4358 17.9729 14.6114C17.175 15.773 15.9595 16.7976 14.3125 16.4827C12.3585 16.109 11.7387 14.3435 11.3299 13.3221C10.8305 12.0744 10.5494 11.5876 9.86091 11.4902C9.34268 11.4171 8.81892 11.6434 8.24298 12.3532C7.66081 13.0707 7.16268 14.131 6.75873 15.2963C6.36032 16.4457 6.07912 17.6228 5.89643 18.5198C5.80547 18.9664 5.7393 19.3396 5.69675 19.5993C5.67554 19.7288 5.66048 19.83 5.65044 19.8978C5.64547 19.9313 5.64142 19.957 5.63908 19.9736C5.63792 19.9819 5.63692 19.9887 5.63641 19.9924C5.63618 19.994 5.63595 19.9952 5.63586 19.9958L4.64477 19.863C3.72868 19.74 3.65954 19.7303 3.65434 19.7294L3.65362 19.7287L3.65423 19.7266C3.65446 19.7249 3.65492 19.7225 3.65532 19.7197C3.65612 19.7138 3.65695 19.7051 3.65842 19.6946C3.66137 19.6737 3.66564 19.6439 3.6713 19.6056C3.68275 19.5283 3.70015 19.4158 3.72319 19.2752C3.76924 18.9941 3.83955 18.5956 3.93632 18.1204C4.12924 17.1733 4.43202 15.9031 4.86952 14.6411C5.30152 13.3949 5.89052 12.0784 6.68937 11.0937Z" fill="currentColor"/>
</g>
<defs>
<clipPath id="clip0_3911_195">
<rect width="24" height="24" fill="currentColor"/>
</clipPath>
</defs>
</svg>
