<svg width="24" height="24" viewBox="0 0 24 24" fill="currentColor" xmlns="http://www.w3.org/2000/svg">
<path d="M4.00488 10.1025C4.05278 10.573 4.42703 10.9472 4.89746 10.9951L5 11H10L10.1025 10.9951C10.6067 10.9438 11 10.5177 11 10V5C11 4.44772 10.5523 4 10 4V2C11.6569 2 13 3.34315 13 5V10C13 11.6569 11.6569 13 10 13H5C3.34315 13 2 11.6569 2 10V5C2 3.34315 3.34315 2 5 2V4C4.44772 4 4 4.44772 4 5V10L4.00488 10.1025ZM10 2V4H5V2H10Z" fill="currentColor"/>
<path d="M13.0049 10.1025C13.0528 10.573 13.427 10.9472 13.8975 10.9951L14 11H19L19.1025 10.9951C19.6067 10.9438 20 10.5177 20 10V5C20 4.44772 19.5523 4 19 4V2C20.6569 2 22 3.34315 22 5V10C22 11.6569 20.6569 13 19 13H14C12.3431 13 11 11.6569 11 10V5C11 3.34315 12.3431 2 14 2V4C13.4477 4 13 4.44772 13 5V10L13.0049 10.1025ZM19 2V4H14V2H19Z" fill="currentColor"/>
<path d="M4.00488 19.1025C4.05278 19.573 4.42703 19.9472 4.89746 19.9951L5 20H10L10.1025 19.9951C10.6067 19.9438 11 19.5177 11 19V14C11 13.4477 10.5523 13 10 13V11C11.6569 11 13 12.3431 13 14V19C13 20.6569 11.6569 22 10 22H5C3.34315 22 2 20.6569 2 19V14C2 12.3431 3.34315 11 5 11V13C4.44772 13 4 13.4477 4 14V19L4.00488 19.1025ZM10 11V13H5V11H10Z" fill="currentColor"/>
<path d="M13.0049 19.1025C13.0528 19.573 13.427 19.9472 13.8975 19.9951L14 20H19L19.1025 19.9951C19.6067 19.9438 20 19.5177 20 19V14C20 13.4477 19.5523 13 19 13V11C20.6569 11 22 12.3431 22 14V19C22 20.6569 20.6569 22 19 22H14C12.3431 22 11 20.6569 11 19V14C11 12.3431 12.3431 11 14 11V13C13.4477 13 13 13.4477 13 14V19L13.0049 19.1025ZM19 11V13H14V11H19Z" fill="currentColor"/>
</svg>
