<svg width="24" height="24" viewBox="0 0 24 24" fill="currentColor" xmlns="http://www.w3.org/2000/svg">
<path d="M20 18.5C20 17.6716 19.3284 17 18.5 17C17.6716 17 17 17.6716 17 18.5C17 19.3284 17.6716 20 18.5 20V21C17.1193 21 16 19.8807 16 18.5C16 17.1193 17.1193 16 18.5 16C19.8807 16 21 17.1193 21 18.5C21 19.8807 19.8807 21 18.5 21V20C19.3284 20 20 19.3284 20 18.5Z" fill="currentColor"/>
<path d="M14.4004 12C14.4004 10.6745 13.3255 9.59961 12 9.59961C10.6745 9.59961 9.59961 10.6745 9.59961 12C9.59961 13.3255 10.6745 14.4004 12 14.4004V16C9.79086 16 8 14.2091 8 12C8 9.79086 9.79086 8 12 8C14.2091 8 16 9.79086 16 12C16 14.2091 14.2091 16 12 16V14.4004C13.3255 14.4004 14.4004 13.3255 14.4004 12Z" fill="currentColor"/>
<path d="M7 5.5C7 4.67157 6.32843 4 5.5 4C4.67157 4 4 4.67157 4 5.5C4 6.32843 4.67157 7 5.5 7V8C4.11929 8 3 6.88071 3 5.5C3 4.11929 4.11929 3 5.5 3C6.88071 3 8 4.11929 8 5.5C8 6.88071 6.88071 8 5.5 8V7C6.32843 7 7 6.32843 7 5.5Z" fill="currentColor"/>
<path d="M17.5879 16.1738C16.9415 16.4275 16.4275 16.9415 16.1738 17.5879L14.0312 15.4453C14.6138 15.1011 15.1011 14.6138 15.4453 14.0312L17.5879 16.1738ZM9.96777 8.55371C9.38545 8.89784 8.89784 9.38545 8.55371 9.96777L6.41113 7.8252C7.05798 7.57153 7.57153 7.05798 7.8252 6.41113L9.96777 8.55371Z" fill="currentColor"/>
</svg>
