<svg width="24" height="24" viewBox="0 0 24 24" fill="currentColor" xmlns="http://www.w3.org/2000/svg">
<path d="M19 12C19 8.13401 15.866 5 12 5C8.13401 5 5 8.13401 5 12V14H3V12C3 7.02944 7.02944 3 12 3C16.9706 3 21 7.02944 21 12V14H19V12Z" fill="currentColor"/>
<path d="M13 17C13 14.7909 14.7909 13 17 13H21V17C21 19.2091 19.2091 21 17 21C14.7909 21 13 19.2091 13 17Z" fill="currentColor"/>
<path d="M3 13H7C9.20914 13 11 14.7909 11 17C11 19.2091 9.20914 21 7 21C4.79086 21 3 19.2091 3 17V13Z" fill="currentColor"/>
</svg>
