<svg width="24" height="24" viewBox="0 0 24 24" fill="currentColor" xmlns="http://www.w3.org/2000/svg">
<path d="M2.80769 4.22188C2.41717 3.83135 2.41717 3.19819 2.80769 2.80766C3.19822 2.41714 3.83138 2.41714 4.22191 2.80766L21.1925 19.7782C21.583 20.1688 21.583 20.8019 21.1925 21.1924C20.8019 21.583 20.1688 21.583 19.7783 21.1924L2.80769 4.22188Z" fill="currentColor"/>
<path d="M5.6084 9.14368C5.21794 10.016 5 10.9825 5 12.0001V13.0001H7C9.20914 13.0001 11 14.791 11 17.0001C11 19.2093 9.20914 21.0001 7 21.0001C4.79086 21.0001 3 19.2093 3 17.0001V12.0001C3 10.4236 3.40599 8.94208 4.11816 7.65344L5.6084 9.14368ZM17.4395 20.9747C17.2951 20.9905 17.1486 21.0001 17 21.0001C14.7909 21.0001 13 19.2093 13 17.0001C13 16.8513 13.0086 16.7043 13.0244 16.5597L17.4395 20.9747ZM12 3.00012C16.9706 3.00012 21 7.02956 21 12.0001V17.0001C21 17.1487 20.9904 17.2952 20.9746 17.4396L16.5596 13.0245C16.7042 13.0087 16.8511 13.0001 17 13.0001H19V12.0001C19 8.13413 15.866 5.00012 12 5.00012C10.9824 5.00012 10.0159 5.21807 9.14355 5.60852L7.65332 4.11829C8.94196 3.40611 10.4235 3.00012 12 3.00012Z" fill="currentColor"/>
</svg>
