<svg width="24" height="24" viewBox="0 0 24 24" fill="currentColor" xmlns="http://www.w3.org/2000/svg">
<path d="M3.57312 5.50007C5.67062 3.50004 9.07138 3.49991 11.1688 5.50007L12.0057 6.29792L8.23716 9.89265C6.14015 11.8928 6.1401 15.1357 8.23716 17.1358C10.2618 19.0666 13.5002 19.1327 15.6092 17.336C13.5011 19.16 10.2406 19.1024 8.20591 17.1622L3.57312 12.7442C1.47563 10.744 1.47563 7.50031 3.57312 5.50007ZM12.8436 5.50007C14.9411 3.50021 18.3419 3.49995 20.4393 5.50007C22.5367 7.50028 22.5367 10.744 20.4393 12.7442L15.8328 17.1358C15.7601 17.2052 15.685 17.2714 15.6092 17.336C15.6743 17.2797 15.7388 17.2221 15.8016 17.1622C17.8991 15.162 17.8991 11.9183 15.8016 9.91804L12.0057 6.29792L12.8436 5.50007Z" fill="currentColor"/>
<path d="M12.0066 6.29797L12.4294 5.89368L20.0193 13.132L13.4363 19.4103C12.637 20.1724 11.3411 20.1722 10.5417 19.4103L3.97339 13.1466L11.5798 5.8927L12.0066 6.29797Z" fill="currentColor"/>
</svg>
