<svg width="24" height="24" viewBox="0 0 24 24" fill="currentColor" xmlns="http://www.w3.org/2000/svg">
<path d="M20 12C20 7.58172 16.4183 4 12 4C7.58172 4 4 7.58172 4 12C4 16.4183 7.58172 20 12 20V22C6.47715 22 2 17.5228 2 12C2 6.47715 6.47715 2 12 2C17.5228 2 22 6.47715 22 12C22 17.5228 17.5228 22 12 22V20C16.4183 20 20 16.4183 20 12Z" fill="currentColor"/>
<path d="M10.3635 14.5753V14.3579C10.3678 13.6122 10.4338 13.0177 10.5617 12.5746C10.6938 12.1314 10.8855 11.7734 11.137 11.5007C11.3884 11.228 11.6909 10.9808 12.0446 10.7592C12.3088 10.5888 12.5453 10.4119 12.7541 10.2287C12.963 10.0454 13.1292 9.84303 13.2527 9.62144C13.3763 9.39559 13.4381 9.14417 13.4381 8.86718C13.4381 8.57314 13.3678 8.31533 13.2272 8.09374C13.0865 7.87215 12.8969 7.70169 12.6583 7.58238C12.4239 7.46306 12.164 7.4034 11.8784 7.4034C11.6015 7.4034 11.3394 7.46519 11.0922 7.58877C10.8451 7.70809 10.6426 7.88706 10.485 8.1257C10.3273 8.36007 10.2421 8.65198 10.2293 9.00141H7.62134C7.64264 8.14914 7.84719 7.44601 8.23497 6.89203C8.62276 6.3338 9.13625 5.91831 9.77546 5.64559C10.4147 5.3686 11.1199 5.2301 11.8912 5.2301C12.7392 5.2301 13.4892 5.37073 14.1412 5.65198C14.7932 5.92897 15.3046 6.33167 15.6753 6.86007C16.0461 7.38848 16.2314 8.02556 16.2314 8.7713C16.2314 9.26988 16.1483 9.71306 15.9821 10.1008C15.8202 10.4844 15.5922 10.8253 15.2982 11.1236C15.0042 11.4176 14.6568 11.6839 14.2563 11.9226C13.9196 12.1229 13.6426 12.3317 13.4253 12.549C13.2122 12.7663 13.0524 13.0177 12.9459 13.3033C12.8436 13.5888 12.7904 13.9403 12.7861 14.3579V14.5753H10.3635ZM11.6291 18.6662C11.203 18.6662 10.8387 18.517 10.5361 18.2187C10.2378 17.9162 10.0908 17.554 10.0951 17.1321C10.0908 16.7145 10.2378 16.3565 10.5361 16.0582C10.8387 15.7599 11.203 15.6108 11.6291 15.6108C12.034 15.6108 12.3898 15.7599 12.6966 16.0582C13.0034 16.3565 13.159 16.7145 13.1632 17.1321C13.159 17.4133 13.0844 17.6712 12.9395 17.9055C12.7989 18.1356 12.6135 18.321 12.3834 18.4616C12.1533 18.598 11.9019 18.6662 11.6291 18.6662Z" fill="currentColor"/>
</svg>
