<svg width="24" height="24" viewBox="0 0 24 24" fill="currentColor" xmlns="http://www.w3.org/2000/svg">
<path d="M3.08787 5.73284C2.98613 5.19001 3.34393 4.66716 3.88676 4.56542C4.42941 4.46377 4.95177 4.8209 5.05371 5.36345L5.5922 8.24112L8.47073 7.70215C9.01331 7.60059 9.53572 7.95771 9.63767 8.50018C9.73941 9.04302 9.38162 9.56587 8.83879 9.6676L4.9791 10.3914C4.43627 10.4931 3.91342 10.1354 3.81168 9.59253L3.08787 5.73284Z" fill="currentColor"/>
<path d="M4.63659 11.9773C4.03396 11.9773 3.5384 12.4677 3.61354 13.0657C3.83427 14.8219 4.5855 16.4791 5.77973 17.8088C7.21827 19.4105 9.19808 20.424 11.3386 20.6544C13.4791 20.8849 15.6293 20.316 17.3758 19.0571C19.1222 17.7983 20.3418 15.9383 20.8 13.8348C21.2582 11.7312 20.9228 9.53254 19.8581 7.66135C18.7934 5.79016 17.0747 4.37852 15.0322 3.69779C12.9898 3.01706 10.7678 3.11527 8.79345 3.97355C7.15437 4.68606 5.78194 5.88065 4.85074 7.386C4.53371 7.89849 4.78039 8.55062 5.32842 8.80127V8.80127C5.87645 9.05191 6.51686 8.80393 6.85498 8.3051C7.54713 7.28395 8.51855 6.47263 9.66346 5.97493C11.1441 5.33127 12.8105 5.25762 14.3422 5.76813C15.8739 6.27864 17.1629 7.33729 17.9613 8.74058C18.7598 10.1439 19.0113 11.7928 18.6677 13.3703C18.3241 14.9479 17.4095 16.3427 16.0997 17.2868C14.7899 18.2308 13.1774 18.6575 11.5722 18.4847C9.96691 18.3119 8.48216 17.5518 7.40334 16.3506C6.56916 15.4218 6.0232 14.28 5.81848 13.0634C5.71847 12.4692 5.23922 11.9773 4.63659 11.9773V11.9773Z" fill="currentColor"/>
<path d="M11 12C11 11.4477 11.3918 11 11.875 11H17.125C17.6082 11 18 11.4477 18 12V12C18 12.5523 17.6082 13 17.125 13H11.875C11.3918 13 11 12.5523 11 12V12Z" fill="currentColor"/>
<path d="M12 13C11.4477 13 11 12.6082 11 12.125V6.875C11 6.39175 11.4477 6 12 6V6C12.5523 6 13 6.39175 13 6.875V12.125C13 12.6082 12.5523 13 12 13V13Z" fill="currentColor"/>
</svg>
