<svg width="24" height="24" viewBox="0 0 24 24" fill="currentColor" xmlns="http://www.w3.org/2000/svg">
<path d="M19 5C20.6569 5 22 6.34315 22 8V17C22 18.6569 20.6569 20 19 20H5C3.34315 20 2 18.6569 2 17V8C2 6.34315 3.34315 5 5 5H19ZM5.5 15C4.67157 15 4 15.6716 4 16.5C4 17.3284 4.67157 18 5.5 18H11.5C12.3284 18 13 17.3284 13 16.5C13 15.6716 12.3284 15 11.5 15H5.5ZM5.5 11C4.67157 11 4 11.6716 4 12.5C4 13.3284 4.67157 14 5.5 14H18.5C19.3284 14 20 13.3284 20 12.5C20 11.6716 19.3284 11 18.5 11H5.5ZM5.5 7C4.67157 7 4 7.67157 4 8.5C4 9.32843 4.67157 10 5.5 10H18.5C19.3284 10 20 9.32843 20 8.5C20 7.67157 19.3284 7 18.5 7H5.5Z" fill="currentColor"/>
<path d="M12 4L16 5H8L12 4Z" fill="currentColor"/>
</svg>
