<svg width="24" height="24" viewBox="0 0 24 24" fill="currentColor" xmlns="http://www.w3.org/2000/svg">
<path d="M12.001 6.25293C15.8475 6.25309 19.2026 8.56527 21 12C19.2026 15.4347 15.8475 17.7469 12.001 17.7471C8.15415 17.7471 4.79736 15.4351 3 12C4.79736 8.56489 8.15415 6.25293 12.001 6.25293ZM12 8C9.79086 8 8 9.79086 8 12C8 14.2091 9.79086 16 12 16C14.2091 16 16 14.2091 16 12C16 9.79086 14.2091 8 12 8Z" fill="currentColor"/>
<path d="M12 9C12.1895 9 12.3749 9.01719 12.5547 9.05078C11.6646 9.25329 11 10.0486 11 11C11 12.1046 11.8954 13 13 13C13.9517 13 14.746 12.3348 14.9482 11.4443C14.982 11.6244 15 11.8101 15 12C15 13.6569 13.6569 15 12 15C10.3431 15 9 13.6569 9 12C9 10.3431 10.3431 9 12 9Z" fill="currentColor"/>
</svg>
