<svg width="24" height="24" viewBox="0 0 24 24" fill="currentColor" xmlns="http://www.w3.org/2000/svg">
<path d="M18 20V22H6V20H18ZM20 18V6C20 4.89543 19.1046 4 18 4H6C4.89543 4 4 4.89543 4 6V18C4 19.1046 4.89543 20 6 20V22L5.79395 21.9951C3.7488 21.8913 2.10865 20.2512 2.00488 18.2061L2 18V6C2 3.79086 3.79086 2 6 2H18C20.2091 2 22 3.79086 22 6V18C22 20.14 20.3194 21.8879 18.2061 21.9951L18 22V20C19.1046 20 20 19.1046 20 18Z" fill="currentColor"/>
<path d="M4.625 10.5781C6.19683 8.10812 9.80319 8.10807 11.375 10.5781L12.8477 12.8925C12.2164 13.08 11.6242 13.4255 11.1367 13.9287L9.6875 11.6513C8.9016 10.4164 7.09843 10.4164 6.3125 11.6513L2.95605 16.9258L2.88184 17.0517C2.1918 18.3221 3.05501 19.8949 4.49707 19.9951L4.64355 20H7.18164C6.80734 20.6442 6.63602 21.3297 6.6377 22H6C3.79086 22 2 20.2091 2 18V14.7031L4.625 10.5781Z" fill="currentColor"/>
<path d="M10.624 14.5782C12.1958 12.1083 15.8022 12.1084 17.374 14.5782L20.7305 19.8526C20.8744 20.0787 20.9897 20.3116 21.083 20.5469C20.6283 21.0966 20.0298 21.522 19.3447 21.7666C19.3112 21.4813 19.2144 21.1952 19.043 20.9258L15.6865 15.6514C14.9006 14.4167 13.0974 14.4166 12.3115 15.6514L8.9551 20.9258L8.88088 21.0518C8.71438 21.3585 8.63974 21.683 8.64064 22H6.63869C6.63629 21.2788 6.83127 20.5385 7.2676 19.8526L10.624 14.5782Z" fill="currentColor"/>
</svg>
