<svg width="24" height="24" viewBox="0 0 24 24" fill="currentColor" xmlns="http://www.w3.org/2000/svg">
<path d="M2 16V8C2 5.79086 3.79086 4 6 4V6C4.89543 6 4 6.89543 4 8V16L4.01074 16.2041C4.113 17.2128 4.96435 18 6 18H18C19.0357 18 19.887 17.2128 19.9893 16.2041L20 16V8C20 6.89543 19.1046 6 18 6V4C20.2091 4 22 5.79086 22 8V16C22 18.2091 20.2091 20 18 20H6C3.79086 20 2 18.2091 2 16ZM18 4V6H6V4H18Z" fill="currentColor"/>
<path d="M17 15.5C17 15.7761 17.2239 16 17.5 16C17.7417 16 17.9437 15.8286 17.9902 15.6006L18 15.5V14.5C18 14.2239 17.7761 14 17.5 14C17.2239 14 17 14.2239 17 14.5V15.5ZM19 15.5C19 16.3284 18.3284 17 17.5 17C16.6716 17 16 16.3284 16 15.5V14.5C16 13.6716 16.6716 13 17.5 13C18.3284 13 19 13.6716 19 14.5V15.5Z" fill="currentColor"/>
<path d="M6 15.5C6 15.7761 6.22386 16 6.5 16C6.74171 16 6.94371 15.8286 6.99023 15.6006L7 15.5V14.5C7 14.2239 6.77614 14 6.5 14C6.22386 14 6 14.2239 6 14.5V15.5ZM8 15.5C8 16.3284 7.32843 17 6.5 17C5.67157 17 5 16.3284 5 15.5V14.5C5 13.6716 5.67157 13 6.5 13C7.32843 13 8 13.6716 8 14.5V15.5Z" fill="currentColor"/>
<path d="M8 11.5C8 11.2239 7.77614 11 7.5 11C7.22386 11 7 11.2239 7 11.5C7 11.7761 7.22386 12 7.5 12C7.77614 12 8 11.7761 8 11.5ZM9 11.5C9 12.3284 8.32843 13 7.5 13C6.67157 13 6 12.3284 6 11.5C6 10.6716 6.67157 10 7.5 10C8.32843 10 9 10.6716 9 11.5Z" fill="currentColor"/>
<path d="M11 11.5C11 11.2239 10.7761 11 10.5 11C10.2239 11 10 11.2239 10 11.5C10 11.7761 10.2239 12 10.5 12C10.7761 12 11 11.7761 11 11.5ZM12 11.5C12 12.3284 11.3284 13 10.5 13C9.67157 13 9 12.3284 9 11.5C9 10.6716 9.67157 10 10.5 10C11.3284 10 12 10.6716 12 11.5Z" fill="currentColor"/>
<path d="M14 11.5C14 11.2239 13.7761 11 13.5 11C13.2239 11 13 11.2239 13 11.5C13 11.7761 13.2239 12 13.5 12C13.7761 12 14 11.7761 14 11.5ZM15 11.5C15 12.3284 14.3284 13 13.5 13C12.6716 13 12 12.3284 12 11.5C12 10.6716 12.6716 10 13.5 10C14.3284 10 15 10.6716 15 11.5Z" fill="currentColor"/>
<path d="M17 11.5C17 11.2239 16.7761 11 16.5 11C16.2239 11 16 11.2239 16 11.5C16 11.7761 16.2239 12 16.5 12C16.7761 12 17 11.7761 17 11.5ZM18 11.5C18 12.3284 17.3284 13 16.5 13C15.6716 13 15 12.3284 15 11.5C15 10.6716 15.6716 10 16.5 10C17.3284 10 18 10.6716 18 11.5Z" fill="currentColor"/>
<path d="M7 8.5C7 8.22386 6.77614 8 6.5 8C6.22386 8 6 8.22386 6 8.5C6 8.77614 6.22386 9 6.5 9C6.77614 9 7 8.77614 7 8.5ZM8 8.5C8 9.32843 7.32843 10 6.5 10C5.67157 10 5 9.32843 5 8.5C5 7.67157 5.67157 7 6.5 7C7.32843 7 8 7.67157 8 8.5Z" fill="currentColor"/>
<path d="M10 8.5C10 8.22386 9.77614 8 9.5 8C9.22386 8 9 8.22386 9 8.5C9 8.77614 9.22386 9 9.5 9C9.77614 9 10 8.77614 10 8.5ZM11 8.5C11 9.32843 10.3284 10 9.5 10C8.67157 10 8 9.32843 8 8.5C8 7.67157 8.67157 7 9.5 7C10.3284 7 11 7.67157 11 8.5Z" fill="currentColor"/>
<path d="M13 8.5C13 8.22386 12.7761 8 12.5 8C12.2239 8 12 8.22386 12 8.5C12 8.77614 12.2239 9 12.5 9C12.7761 9 13 8.77614 13 8.5ZM14 8.5C14 9.32843 13.3284 10 12.5 10C11.6716 10 11 9.32843 11 8.5C11 7.67157 11.6716 7 12.5 7C13.3284 7 14 7.67157 14 8.5Z" fill="currentColor"/>
<path d="M15.5 8C15.2239 8 15 8.22386 15 8.5C15 8.77614 15.2239 9 15.5 9H17.5L17.6006 8.99023C17.8286 8.94371 18 8.74171 18 8.5C18 8.25829 17.8286 8.05629 17.6006 8.00977L17.5 8V7C18.3284 7 19 7.67157 19 8.5C19 9.32843 18.3284 10 17.5 10H15.5C14.6716 10 14 9.32843 14 8.5C14 7.67157 14.6716 7 15.5 7V8ZM17.5 7V8H15.5V7H17.5Z" fill="currentColor"/>
<path d="M8 15C8 13.8954 8.89543 13 10 13V14C9.44772 14 9 14.4477 9 15C9 15.5523 9.44772 16 10 16H14L14.1025 15.9951C14.6067 15.9438 15 15.5177 15 15C15 14.4823 14.6067 14.0562 14.1025 14.0049L14 14V13C15.1046 13 16 13.8954 16 15C16 16.1046 15.1046 17 14 17H10C8.89543 17 8 16.1046 8 15ZM14 13V14H10V13H14Z" fill="currentColor"/>
</svg>
