<svg width="24" height="24" viewBox="0 0 24 24" fill="currentColor" xmlns="http://www.w3.org/2000/svg">
<path d="M8.99512 8.10254C8.94722 8.57297 8.57297 8.94722 8.10254 8.99512L8 9H5L4.89746 8.99512C4.39333 8.94379 4 8.51768 4 8V5C4 4.44772 4.44772 4 5 4V2C3.34315 2 2 3.34315 2 5V8C2 9.65685 3.34315 11 5 11H8C9.65685 11 11 9.65685 11 8V5C11 3.34315 9.65685 2 8 2V4C8.55228 4 9 4.44772 9 5V8L8.99512 8.10254ZM5 2V4H8V2H5Z" fill="currentColor"/>
<path d="M20 19C20 19.5523 19.5523 20 19 20H13C12.4477 20 12 19.5523 12 19V13C12 12.4477 12.4477 12 13 12V10C11.3431 10 10 11.3431 10 13V19C10 20.6569 11.3431 22 13 22H19C20.6569 22 22 20.6569 22 19V13C22 11.3431 20.6569 10 19 10V12C19.5523 12 20 12.4477 20 13V19ZM13 10V12H19V10H13Z" fill="currentColor"/>
<path d="M4 10.8252C4.31314 10.936 4.64888 11 5 11H6V14.5L6.00488 14.6797C6.09842 16.5292 7.62727 18 9.5 18H10V19C10 19.351 10.0631 19.6869 10.1738 20H9.5C6.46243 20 4 17.5376 4 14.5V10.8252ZM14.5 4C17.5376 4 20 6.46243 20 9.5V10.1738C19.6869 10.0631 19.351 10 19 10H18V9.5C18 7.62727 16.5292 6.09842 14.6797 6.00488L14.5 6H11V5C11 4.649 10.9369 4.31306 10.8262 4H14.5Z" fill="currentColor"/>
<path d="M9 14L9.00488 14.1025C9.05278 14.573 9.42703 14.9472 9.89746 14.9951L10 15V17C8.34315 17 7 15.6569 7 14V11H8C8.35112 11 8.68686 10.936 9 10.8252V14ZM14 7C15.6569 7 17 8.34315 17 10H15C15 9.44772 14.5523 9 14 9H10.8262C10.9369 8.68694 11 8.351 11 8V7H14Z" fill="currentColor"/>
</svg>
