<svg width="24" height="24" viewBox="0 0 24 24" fill="currentColor" xmlns="http://www.w3.org/2000/svg">
<path d="M3.93611 8.12802H8.94011V10.306H3.93611V8.12802ZM10.9201 3.71802H13.2241V17.812C13.2241 18.46 13.1461 18.964 12.9901 19.324C12.8341 19.684 12.5641 19.96 12.1801 20.152C11.7961 20.344 11.3041 20.47 10.7041 20.53C10.1161 20.602 9.40811 20.638 8.58011 20.638C8.55611 20.41 8.49611 20.146 8.40011 19.846C8.31611 19.558 8.21411 19.27 8.09411 18.982C7.97411 18.682 7.85411 18.43 7.73411 18.226C8.32211 18.25 8.87411 18.262 9.39011 18.262C9.90611 18.262 10.2541 18.262 10.4341 18.262C10.6141 18.262 10.7401 18.226 10.8121 18.154C10.8841 18.082 10.9201 17.968 10.9201 17.812V3.71802ZM8.20211 8.12802H8.65211L9.04811 8.03802L10.5241 8.57802C10.2601 10.222 9.86411 11.716 9.33611 13.06C8.82011 14.404 8.20811 15.586 7.50011 16.606C6.80411 17.614 6.02411 18.436 5.16011 19.072C5.04011 18.892 4.87211 18.694 4.65611 18.478C4.44011 18.25 4.21211 18.034 3.97211 17.83C3.74411 17.626 3.54011 17.47 3.36011 17.362C4.18811 16.798 4.92611 16.09 5.57411 15.238C6.22211 14.374 6.76811 13.384 7.21211 12.268C7.66811 11.14 7.99811 9.91602 8.20211 8.59602V8.12802ZM13.0801 6.34602C13.3681 7.54602 13.7341 8.69802 14.1781 9.80202C14.6341 10.906 15.1681 11.938 15.7801 12.898C16.3921 13.858 17.1001 14.716 17.9041 15.472C18.7201 16.216 19.6321 16.828 20.6401 17.308C20.4601 17.452 20.2621 17.638 20.0461 17.866C19.8301 18.094 19.6261 18.34 19.4341 18.604C19.2541 18.856 19.0981 19.09 18.9661 19.306C17.5741 18.514 16.3921 17.494 15.4201 16.246C14.4481 14.986 13.6381 13.546 12.9901 11.926C12.3421 10.306 11.8021 8.56602 11.3701 6.70602L13.0801 6.34602ZM18.1381 6.52602L20.1721 7.94802C19.6561 8.47602 19.1101 9.02202 18.5341 9.58602C17.9581 10.15 17.3821 10.684 16.8061 11.188C16.2421 11.692 15.7081 12.13 15.2041 12.502L13.6381 11.296C14.1301 10.888 14.6461 10.414 15.1861 9.87402C15.7381 9.33402 16.2721 8.77602 16.7881 8.20002C17.3041 7.61202 17.7541 7.05402 18.1381 6.52602Z" fill="currentColor"/>
</svg>
