<svg width="24" height="24" viewBox="0 0 24 24" fill="currentColor" xmlns="http://www.w3.org/2000/svg">
<path d="M15 8C15 6.34315 13.6569 5 12 5C10.3431 5 9 6.34315 9 8V10H7V8C7 5.23858 9.23858 3 12 3C14.7614 3 17 5.23858 17 8V10H15V8Z" fill="currentColor"/>
<path d="M18 10C19.1046 10 20 10.8954 20 12V19C20 20.1046 19.1046 21 18 21H6C4.89543 21 4 20.1046 4 19V12C4 10.8954 4.89543 10 6 10H18ZM12 12C10.8954 12 10 12.8954 10 14C10 14.7398 10.4029 15.3835 11 15.7295V18C11 18.5523 11.4477 19 12 19C12.5523 19 13 18.5523 13 18V15.7295C13.5971 15.3835 14 14.7398 14 14C14 12.8954 13.1046 12 12 12Z" fill="currentColor"/>
</svg>
