<svg width="24" height="24" viewBox="0 0 24 24" fill="currentColor" xmlns="http://www.w3.org/2000/svg">
<path d="M15.7072 16.7067C15.3166 17.0973 14.6831 17.0973 14.2926 16.7067C13.9024 16.3163 13.9028 15.6839 14.293 15.2935L17.586 12.0009L14.2925 8.70743C13.902 8.31696 13.9021 7.68337 14.2925 7.29284C14.683 6.90232 15.3166 6.90232 15.7071 7.29284L19.7068 11.2925C20.0973 11.683 20.0973 12.3165 19.7068 12.7071L15.7072 16.7067Z" fill="currentColor"/>
<path d="M9.99998 12.9996C9.44773 12.9996 9.00021 12.5523 9.00017 12.0001C9.00017 11.4479 9.44757 11.0004 9.99974 11.0002L19.0001 10.9996C19.5522 10.9997 19.9994 11.4479 19.9994 12.0001C19.9994 12.5523 19.5521 12.9999 18.9999 12.9999L9.99998 12.9996Z" fill="currentColor"/>
<path d="M12 6H8C6.89543 6 6 6.89543 6 8L6 16C6 17.1046 6.89543 18 8 18H12C12.5523 18 13 18.4477 13 19C13 19.5523 12.5523 20 12 20H8C5.79086 20 4 18.2091 4 16L4 8C4 5.79086 5.79086 4 8 4H12C12.5523 4 13 4.44771 13 5C13 5.55229 12.5523 6 12 6Z" fill="currentColor"/>
</svg>
