<svg width="24" height="24" viewBox="0 0 24 24" fill="currentColor" xmlns="http://www.w3.org/2000/svg">
<path d="M6.5 13C6.78297 13 7.05964 13.0272 7.32812 13.0771C5.99493 13.3824 5 14.5743 5 16C5 17.6569 6.34315 19 8 19C9.426 19 10.6169 18.0045 10.9219 16.6709C10.972 16.9397 11 17.2166 11 17.5C11 19.9853 8.98528 22 6.5 22C4.01472 22 2 19.9853 2 17.5C2 15.0147 4.01472 13 6.5 13Z" fill="currentColor"/>
<path d="M17.5 13C19.9853 13 22 15.0147 22 17.5C22 19.9853 19.9853 22 17.5 22C15.0147 22 13 19.9853 13 17.5C13 17.2167 13.0271 16.9397 13.0771 16.6709C13.382 18.0046 14.5739 19 16 19C17.6569 19 19 17.6569 19 16C19 14.5739 18.0046 13.382 16.6709 13.0771C16.9397 13.0271 17.2167 13 17.5 13Z" fill="currentColor"/>
<path d="M17.5 2C19.9853 2 22 4.01472 22 6.5C22 8.98528 19.9853 11 17.5 11C17.2166 11 16.9397 10.972 16.6709 10.9219C18.0045 10.6169 19 9.426 19 8C19 6.34315 17.6569 5 16 5C14.5743 5 13.3824 5.99493 13.0771 7.32812C13.0272 7.05964 13 6.78297 13 6.5C13 4.01472 15.0147 2 17.5 2Z" fill="currentColor"/>
<path d="M6.5 2C8.98528 2 11 4.01472 11 6.5C11 6.78303 10.9719 7.05958 10.9219 7.32812C10.6166 5.99503 9.42567 5 8 5C6.34315 5 5 6.34315 5 8C5 9.42567 5.99503 10.6166 7.32812 10.9219C7.05958 10.9719 6.78303 11 6.5 11C4.01472 11 2 8.98528 2 6.5C2 4.01472 4.01472 2 6.5 2Z" fill="currentColor"/>
<circle cx="18" cy="6" r="3" fill="currentColor"/>
<circle cx="6" cy="6" r="3" fill="currentColor"/>
<circle cx="12" cy="12" r="4" fill="currentColor"/>
<circle cx="6" cy="18" r="3" fill="currentColor"/>
<circle cx="18" cy="18" r="3" fill="currentColor"/>
</svg>
