<svg width="24" height="24" viewBox="0 0 24 24" fill="currentColor" xmlns="http://www.w3.org/2000/svg">
<path d="M21 8C21 8.55228 20.5523 9 20 9C19.4477 9 19 9.44772 19 10V11C19 11.5523 19.4477 12 20 12C20.5523 12 21 12.4477 21 13V17C21 17.5523 20.5523 18 20 18C19.4477 18 19 17.5523 19 17C19 16.4477 18.5523 16 18 16C17.4477 16 17 16.4477 17 17C17 17.5523 16.5523 18 16 18C15.4477 18 15 17.5523 15 17C15 16.4477 14.5523 16 14 16C13.4477 16 13 16.4477 13 17C13 17.5523 12.5523 18 12 18C11.4477 18 11 17.5523 11 17C11 16.4477 10.5523 16 10 16C9.44772 16 9 16.4477 9 17C9 17.5523 8.55228 18 8 18C7.44772 18 7 17.5523 7 17C7 16.4477 6.55228 16 6 16C5.44772 16 5 16.4477 5 17C5 17.5523 4.55228 18 4 18C3.44772 18 3 17.5523 3 17V13C3 12.4477 3.44772 12 4 12C4.55228 12 5 11.5523 5 11V10C5 9.44772 4.55228 9 4 9C3.44772 9 3 8.55228 3 8V7C3 5.89543 3.89543 5 5 5H19C20.1046 5 21 5.89543 21 7V8ZM7 13C7 13.5523 7.44772 14 8 14C8.55228 14 9 13.5523 9 13C9 12.4477 8.55228 12 8 12C7.44772 12 7 12.4477 7 13ZM11 13C11 13.5523 11.4477 14 12 14C12.5523 14 13 13.5523 13 13V8C13 7.44772 12.5523 7 12 7C11.4477 7 11 7.44772 11 8V13ZM15 13C15 13.5523 15.4477 14 16 14C16.5523 14 17 13.5523 17 13V8C17 7.44772 16.5523 7 16 7C15.4477 7 15 7.44772 15 8V13ZM7 9C7 9.55228 7.44772 10 8 10C8.55228 10 9 9.55228 9 9V8C9 7.44772 8.55228 7 8 7C7.44772 7 7 7.44772 7 8V9Z" fill="currentColor"/>
</svg>
