<svg width="24" height="24" viewBox="0 0 24 24" fill="currentColor" xmlns="http://www.w3.org/2000/svg">
<path d="M18 4C19.1046 4 20 4.89543 20 6C20 7.10457 19.1046 8 18 8H6C4.89543 8 4 7.10457 4 6C4 4.89543 4.89543 4 6 4L18 4Z" fill="currentColor"/>
<path d="M18 10C19.1046 10 20 10.8954 20 12C20 13.1046 19.1046 14 18 14H6C4.89543 14 4 13.1046 4 12C4 10.8954 4.89543 10 6 10H18Z" fill="currentColor"/>
<path d="M18 16C19.1046 16 20 16.8954 20 18C20 19.1046 19.1046 20 18 20H6C4.89543 20 4 19.1046 4 18C4 16.8954 4.89543 16 6 16H18Z" fill="currentColor"/>
</svg>
