<svg width="24" height="24" viewBox="0 0 24 24" fill="currentColor" xmlns="http://www.w3.org/2000/svg">
<path d="M2.80769 4.22188C2.41717 3.83135 2.41717 3.19819 2.80769 2.80766C3.19822 2.41714 3.83138 2.41714 4.22191 2.80766L21.1925 19.7782C21.583 20.1688 21.583 20.8019 21.1925 21.1924C20.8019 21.583 20.1688 21.583 19.7783 21.1924L2.80769 4.22188Z" fill="currentColor"/>
<path d="M8 11.5353V12.0001C8 14.2093 9.79086 16.0001 12 16.0001C12.1486 16.0001 12.2951 15.9905 12.4395 15.9747L14.0879 17.6232C13.7392 17.7526 13.3758 17.8521 13 17.9152V19.0001H15.4648L17.4648 21.0001H6C5.44772 21.0001 5 20.5524 5 20.0001C5 19.4478 5.44772 19.0001 6 19.0001H11V17.9152C8.16245 17.4389 6 14.973 6 12.0001V10.0001H6.46484L8 11.5353ZM18 12.0001C18 12.7353 17.867 13.4392 17.625 14.09L15.9746 12.4396C15.9904 12.2952 16 12.1487 16 12.0001V10.0001H18V12.0001ZM12 3.00012C13.6569 3.00012 15 4.34327 15 6.00012V11.465L9.04004 5.505C9.27602 4.0837 10.5118 3.00012 12 3.00012Z" fill="currentColor"/>
</svg>
