<svg width="24" height="24" viewBox="0 0 24 24" fill="currentColor" xmlns="http://www.w3.org/2000/svg">
<path d="M9 6C9 4.34315 10.3431 3 12 3C13.6569 3 15 4.34315 15 6V12C15 13.6569 13.6569 15 12 15C10.3431 15 9 13.6569 9 12V6Z" fill="currentColor"/>
<path d="M5 20C5 19.4477 5.44772 19 6 19H18C18.5523 19 19 19.4477 19 20C19 20.5523 18.5523 21 18 21H6C5.44772 21 5 20.5523 5 20Z" fill="currentColor"/>
<path d="M11 17C11 16.4477 11.4477 16 12 16C12.5523 16 13 16.4477 13 17V20C13 20.5523 12.5523 21 12 21C11.4477 21 11 20.5523 11 20V17Z" fill="currentColor"/>
<path d="M8 12C8 14.2091 9.79086 16 12 16C14.2091 16 16 14.2091 16 12V10H18V12C18 15.3137 15.3137 18 12 18C8.68629 18 6 15.3137 6 12L6 10H8L8 12Z" fill="currentColor"/>
</svg>
