<svg width="24" height="24" viewBox="0 0 24 24" fill="currentColor" xmlns="http://www.w3.org/2000/svg">
<path d="M20 12C20 7.58172 16.4183 4 12 4C7.58172 4 4 7.58172 4 12C4 16.4183 7.58172 20 12 20V22C6.47715 22 2 17.5228 2 12C2 6.47715 6.47715 2 12 2C17.5228 2 22 6.47715 22 12C22 17.5228 17.5228 22 12 22V20C16.4183 20 20 16.4183 20 12Z" fill="currentColor"/>
<path d="M7.81836 7V13.3643L8.06055 13.3633V13.3643H7.81836V14.1816C7.81836 14.7339 8.26607 15.1816 8.81836 15.1816H15C15.5523 15.1816 16 14.7339 16 14.1816V9.72754C16 9.22549 15.5929 8.81841 15.0908 8.81836C14.5887 8.81836 14.1816 9.22546 14.1816 9.72754V13.3633H12.3633V9.72754C12.3633 9.22546 11.9562 8.81836 11.4541 8.81836C10.9522 8.81858 10.5459 9.2256 10.5459 9.72754V13.3633H8.72754V9.72754C8.72754 8.22131 9.94885 7 11.4551 7C12.1542 7.00007 12.7898 7.2656 13.2725 7.69824C13.7552 7.26531 14.3914 7.00006 15.0908 7C16.5971 7 17.8184 8.22131 17.8184 9.72754V14.7275C17.8181 15.9825 16.8008 16.9997 15.5459 17H9C7.34315 17 6 15.6569 6 14V7H7.81836Z" fill="currentColor"/>
</svg>
