<svg width="24" height="24" viewBox="0 0 24 24" fill="currentColor" xmlns="http://www.w3.org/2000/svg">
<path d="M3 8C3 7.44772 3.44772 7 4 7H8C8.55228 7 9 7.44772 9 8C9 8.55228 8.55228 9 8 9H4C3.44772 9 3 8.55228 3 8Z" fill="currentColor"/>
<path d="M4 12C4 11.4477 4.44772 11 5 11H9C9.55228 11 10 11.4477 10 12C10 12.5523 9.55228 13 9 13H5C4.44772 13 4 12.5523 4 12Z" fill="currentColor"/>
<path d="M5 16C5 15.4477 5.44772 15 6 15H10C10.5523 15 11 15.4477 11 16C11 16.5523 10.5523 17 10 17H6C5.44772 17 5 16.5523 5 16Z" fill="currentColor"/>
<path d="M15 3C17.7614 3 20 5.23858 20 8V16C20 18.7614 17.7614 21 15 21C13.303 21 11.8043 20.154 10.9004 18.8613C12.1171 18.4788 13 17.343 13 16C13 14.9367 12.4456 14.0045 11.6113 13.4717C11.8571 13.0365 12 12.5354 12 12C12 10.9367 11.4456 10.0045 10.6113 9.47168C10.8571 9.03653 11 8.5354 11 8C11 7.29959 10.7577 6.657 10.3555 6.14648C11.0919 4.30284 12.8935 3 15 3Z" fill="currentColor"/>
<path d="M14 6C14 5.44772 14.4477 5 15 5C15.5523 5 16 5.44772 16 6V10C16 10.5523 15.5523 11 15 11C14.4477 11 14 10.5523 14 10V6Z" fill="currentColor"/>
</svg>
