<svg width="24" height="24" viewBox="0 0 24 24" fill="currentColor" xmlns="http://www.w3.org/2000/svg">
<path d="M20 12C20 7.58172 16.4183 4 12 4C7.58172 4 4 7.58172 4 12C4 16.4183 7.58172 20 12 20V22C6.47715 22 2 17.5228 2 12C2 6.47715 6.47715 2 12 2C17.5228 2 22 6.47715 22 12C22 17.5228 17.5228 22 12 22V20C16.4183 20 20 16.4183 20 12Z" fill="currentColor"/>
<path d="M15 12C15 9.48178 14.4858 7.30065 13.7471 5.82324C12.9486 4.22621 12.2151 4 12 4C11.7849 4 11.0514 4.22621 10.2529 5.82324C9.51424 7.30065 9 9.48178 9 12C9 14.5182 9.51424 16.6994 10.2529 18.1768C11.0514 19.7738 11.7849 20 12 20V22C9.23858 22 7 17.5228 7 12C7 6.47715 9.23858 2 12 2C14.7614 2 17 6.47715 17 12C17 17.5228 14.7614 22 12 22V20C12.2151 20 12.9486 19.7738 13.7471 18.1768C14.4858 16.6994 15 14.5182 15 12Z" fill="currentColor"/>
<path d="M3 9C3 8.44772 3.44772 8 4 8H20C20.5523 8 21 8.44772 21 9C21 9.55228 20.5523 10 20 10H4C3.44772 10 3 9.55228 3 9Z" fill="currentColor"/>
<path d="M3 15C3 14.4477 3.44772 14 4 14H20C20.5523 14 21 14.4477 21 15C21 15.5523 20.5523 16 20 16H4C3.44772 16 3 15.5523 3 15Z" fill="currentColor"/>
</svg>
