<svg width="24" height="24" viewBox="0 0 24 24" fill="currentColor" xmlns="http://www.w3.org/2000/svg">
<path d="M3 9C3 8.44772 3.44772 8 4 8H20C20.5523 8 21 8.44772 21 9C21 9.55228 20.5523 10 20 10H4C3.44772 10 3 9.55228 3 9Z" fill="currentColor"/>
<path d="M12 2C14.7614 2 17 6.47715 17 12C17 12.0248 16.9981 12.0495 16.998 12.0742C16.286 12.1538 15.5906 12.4031 14.9805 12.8223C14.9926 12.5526 15 12.2784 15 12C15 9.48178 14.4858 7.30065 13.7471 5.82324C12.9486 4.22621 12.2151 4 12 4C11.7849 4 11.0514 4.22621 10.2529 5.82324C9.51424 7.30065 9 9.48178 9 12C9 14.5182 9.51424 16.6994 10.2529 18.1768C10.5365 18.7439 10.8127 19.1375 11.0596 19.4102C11.0324 20.3327 11.3009 21.2329 11.7949 21.9893C9.12868 21.7739 7 17.3853 7 12C7 6.47715 9.23858 2 12 2Z" fill="currentColor"/>
<path d="M13.7686 14.0703L12.5146 16H4C3.44772 16 3 15.5523 3 15C3 14.4477 3.44772 14 4 14H13.8174C13.8014 14.0236 13.7842 14.0463 13.7686 14.0703Z" fill="currentColor"/>
<path d="M12 2C17.5228 2 22 6.47715 22 12C22 12.931 21.8698 13.8314 21.6318 14.6865L21.2314 14.0703C20.8834 13.5348 20.4477 13.1072 19.9609 12.7842C19.986 12.5261 20 12.2646 20 12C20 7.58172 16.4183 4 12 4C7.58172 4 4 7.58172 4 12C4 16.1061 7.09367 19.4876 11.0771 19.9453C11.1457 20.6798 11.3981 21.3839 11.7979 21.9941C6.36835 21.8864 2 17.4553 2 12C2 6.47715 6.47715 2 12 2Z" fill="currentColor"/>
<path d="M15.4458 15.1604C16.4121 13.6743 18.5882 13.6741 19.5543 15.1604L21.5396 18.2152C22.5989 19.8451 21.4288 22.0004 19.4849 22.0004H15.5142C13.5703 22.0004 12.4011 19.8451 13.4605 18.2152L15.4458 15.1604ZM18.3189 16.471C17.9208 15.9023 17.0783 15.9023 16.6802 16.471L15.1011 18.7269C14.6372 19.3897 15.1114 20.3002 15.9205 20.3002H19.0787C19.8877 20.3002 20.362 19.3897 19.898 18.7269L18.3189 16.471Z" fill="currentColor"/>
<path d="M16.75 17C16.75 16.5858 17.0858 16.25 17.5 16.25C17.9142 16.25 18.25 16.5858 18.25 17V17.75C18.25 18.1642 17.9142 18.5 17.5 18.5C17.0858 18.5 16.75 18.1642 16.75 17.75V17Z" fill="currentColor"/>
<path d="M16.75 19.375C16.75 18.9608 17.0858 18.625 17.5 18.625C17.9142 18.625 18.25 18.9608 18.25 19.375C18.25 19.7892 17.9142 20.125 17.5 20.125C17.0858 20.125 16.75 19.7892 16.75 19.375Z" fill="currentColor"/>
</svg>
