<svg width="24" height="24" viewBox="0 0 24 24" fill="currentColor" xmlns="http://www.w3.org/2000/svg">
<path d="M3 9C3 8.44772 3.44772 8 4 8H20C20.5523 8 21 8.44772 21 9C21 9.55228 20.5523 10 20 10H4C3.44772 10 3 9.55228 3 9Z" fill="currentColor"/>
<path d="M13.5293 14C13.0126 14.5771 12.6063 15.2546 12.3428 16H4C3.44772 16 3 15.5523 3 15C3 14.4477 3.44772 14 4 14H13.5293Z" fill="currentColor"/>
<path d="M12 2C14.7614 2 17 6.47715 17 12C17 12.028 16.9982 12.056 16.998 12.084C16.273 12.2059 15.5925 12.4582 14.9805 12.8154C14.9924 12.548 15 12.276 15 12C15 9.48178 14.4858 7.30065 13.7471 5.82324C12.9486 4.22621 12.2151 4 12 4C11.7849 4 11.0514 4.22621 10.2529 5.82324C9.51424 7.30065 9 9.48178 9 12C9 14.5182 9.51424 16.6994 10.2529 18.1768C11.0514 19.7738 11.7849 20 12 20C12.0633 20 12.1708 19.9786 12.3125 19.9102C12.5292 20.5556 12.8525 21.1513 13.2617 21.6777C12.8585 21.8875 12.436 22 12 22C9.23858 22 7 17.5228 7 12C7 6.47715 9.23858 2 12 2Z" fill="currentColor"/>
<path d="M12 2C17.5228 2 22 6.47715 22 12C22 12.4886 21.9622 12.9686 21.8945 13.4385C21.3381 12.963 20.6948 12.5866 19.9902 12.3389C19.9949 12.2265 20 12.1136 20 12C20 7.58172 16.4183 4 12 4C7.58172 4 4 7.58172 4 12C4 16.4183 7.58172 20 12 20C12.1136 20 12.2265 19.9949 12.3389 19.9902C12.5866 20.6948 12.963 21.3381 13.4385 21.8945C12.9686 21.9622 12.4886 22 12 22C6.47715 22 2 17.5228 2 12C2 6.47715 6.47715 2 12 2Z" fill="currentColor"/>
<path d="M18 14C20.2091 14 22 15.7909 22 18C22 20.2091 20.2091 22 18 22C15.7909 22 14 20.2091 14 18C14 15.7909 15.7909 14 18 14ZM18 16C16.8954 16 16 16.8954 16 18C16 19.1046 16.8954 20 18 20C19.1046 20 20 19.1046 20 18C20 16.8954 19.1046 16 18 16Z" fill="currentColor"/>
<path d="M15.7071 17.1213C15.3166 16.7308 15.3166 16.0976 15.7071 15.7071C16.0976 15.3166 16.7308 15.3166 17.1213 15.7071L19.9497 18.5355C20.3403 18.926 20.3403 19.5592 19.9497 19.9497C19.5592 20.3402 18.9261 20.3402 18.5355 19.9497L15.7071 17.1213Z" fill="currentColor"/>
</svg>
