<svg width="24" height="24" viewBox="0 0 24 24" fill="currentColor" xmlns="http://www.w3.org/2000/svg">
<path d="M10.332 15.5H20L19 17.5H11.5L10.332 15.5Z" fill="currentColor"/>
<path d="M16.5 17.5L17.5 19.5L17 20.5H15.5L14 17.5H16.5Z" fill="currentColor"/>
<path d="M14.1973 15.1946L19.0312 6.82187L20.2633 8.6879L16.5133 15.1831L14.1973 15.1946Z" fill="currentColor"/>
<path d="M18 11L20.9999 11L21.5 12L20.9999 13.0001L17.7631 13.0181L18 11Z" fill="currentColor"/>
<path d="M15.8649 11.6946L11 3.5L13.5001 3.50001L17.0129 9.6831L15.8649 11.6946Z" fill="currentColor"/>
<path d="M14.5127 5.353L15.7447 3.48698L17 3.48698L17.6108 4.71903L15.7627 7.51807L14.5127 5.353Z" fill="currentColor"/>
<path d="M13.668 8.5L4 8.5L5 6.5L12.5 6.5L13.668 8.5Z" fill="currentColor"/>
<path d="M7.5 6.5L6.5 4.5L7 3.5L8.5 3.5L10 6.5L7.5 6.5Z" fill="currentColor"/>
<path d="M9.80273 8.80542L5 17L4 15L7.4867 8.81691L9.80273 8.80542Z" fill="currentColor"/>
<path d="M5.50021 13.0001L3.00027 13.0002L2.5 12L3.00027 10.9821L6.49998 11L5.50021 13.0001Z" fill="currentColor"/>
<path d="M8.13515 12.3054L13 20.5L10.4999 20.5L6.98708 14.3169L8.13515 12.3054Z" fill="currentColor"/>
<path d="M9.4873 18.647L8.5 20.5L7 20.513L6.38923 19.281L8.2373 16.4819L9.4873 18.647Z" fill="currentColor"/>
</svg>
