<svg width="24" height="24" viewBox="0 0 24 24" fill="currentColor" xmlns="http://www.w3.org/2000/svg">
<path d="M6.32899 7.74125C7.0255 0.912416 16.9743 0.912424 17.6708 7.74125L17.8085 9.09184C17.9194 10.1796 18.2273 11.2386 18.7177 12.2159L20.8934 16.5518C21.0489 16.8618 21.0326 17.2303 20.8505 17.5254C20.6683 17.8204 20.3466 18 19.9999 18H3.99989C3.65321 18 3.33148 17.8204 3.1493 17.5254C2.9672 17.2303 2.95084 16.8618 3.10633 16.5518L5.28212 12.2159C5.77251 11.2386 6.08035 10.1796 6.1913 9.09184L6.32899 7.74125ZM15.6806 7.94438C15.2284 3.51163 8.77135 3.51163 8.31923 7.94438L8.18153 9.29497C8.04594 10.6244 7.66856 11.918 7.06923 13.1123L5.62001 16H18.3798L16.9306 13.1123C16.3312 11.918 15.9538 10.6244 15.8182 9.29497L15.6806 7.94438Z" fill="currentColor"/>
<path d="M9 19H15C15 20.6569 13.6569 22 12 22C10.3431 22 9 20.6569 9 19Z" fill="currentColor"/>
<path d="M15 19C15 20.6569 13.6569 22 12 22C10.3431 22 9 20.6569 9 19H15Z" fill="currentColor"/>
</svg>
