<svg width="24" height="24" viewBox="0 0 24 24" fill="currentColor" xmlns="http://www.w3.org/2000/svg">
<path d="M10 5H5V9.35547C4.93727 9.38335 4.87513 9.4138 4.81445 9.44629C4.38864 9.6735 4.04964 10.0094 3.79785 10.4541C3.54787 10.8973 3.42287 11.4431 3.42285 12.0908C3.42285 12.7348 3.54785 13.2795 3.79785 13.7246C4.04963 14.1675 4.38861 14.5043 4.81445 14.7354C4.87499 14.7678 4.93742 14.7974 5 14.8252V19H10V22H2V2H10V5ZM22 22H14V19H19V14.7939L19.1094 15H20.8252L19.6426 12.8291C19.9444 12.6843 20.1821 12.4798 20.3535 12.2129C20.539 11.927 20.6318 11.5757 20.6318 11.1592C20.6318 10.7463 20.5413 10.3921 20.3613 10.0967C20.1815 9.80142 19.9301 9.57513 19.6064 9.41797C19.422 9.32844 19.2195 9.2651 19 9.22656V5H14V2H22V22Z" fill="currentColor"/>
<path d="M22 16H2V8H22V16ZM6.25195 9.10254C5.72183 9.1026 5.24236 9.21719 4.81445 9.44629C4.38864 9.6735 4.04964 10.0094 3.79785 10.4541C3.54787 10.8973 3.42287 11.4431 3.42285 12.0908C3.42285 12.7348 3.54785 13.2795 3.79785 13.7246C4.04963 14.1675 4.38861 14.5043 4.81445 14.7354C5.24236 14.9645 5.72183 15.079 6.25195 15.0791C6.77847 15.0791 7.25654 14.9656 7.68457 14.7383C8.11232 14.5092 8.45231 14.1734 8.7041 13.7305C8.956 13.2854 9.08203 12.7385 9.08203 12.0908C9.08202 11.4431 8.95598 10.8973 8.7041 10.4541C8.4523 10.0093 8.11231 9.6735 7.68457 9.44629C7.25654 9.21712 6.77847 9.10254 6.25195 9.10254ZM12.5967 9.10254C12.0741 9.10256 11.6009 9.21721 11.1768 9.44629C10.7526 9.6735 10.415 10.0092 10.165 10.4541C9.91505 10.8973 9.79005 11.4431 9.79004 12.0908C9.79004 12.7348 9.91193 13.2795 10.1562 13.7246C10.4024 14.1696 10.737 14.5062 11.1592 14.7354C11.5834 14.9645 12.0627 15.0791 12.5967 15.0791C13.0227 15.0791 13.3969 15.0144 13.7188 14.8838C14.0407 14.7531 14.3105 14.5802 14.5283 14.3662C14.748 14.1503 14.9178 13.9158 15.0371 13.6621C15.1564 13.4065 15.2252 13.1554 15.2441 12.9092L13.6426 12.8975C13.6237 13.0224 13.5861 13.135 13.5312 13.2354C13.4783 13.3337 13.4093 13.4182 13.3242 13.4883C13.2391 13.5583 13.1388 13.6125 13.0234 13.6504C12.9079 13.6864 12.7767 13.7041 12.6309 13.7041C12.3752 13.7041 12.1564 13.6447 11.9746 13.5254C11.7929 13.4042 11.6532 13.2239 11.5566 12.9854C11.4621 12.7449 11.415 12.4466 11.415 12.0908C11.415 11.7537 11.4619 11.4651 11.5547 11.2246C11.6493 10.9843 11.7871 10.7997 11.9688 10.6709C12.1525 10.5421 12.3774 10.4775 12.6426 10.4775C12.794 10.4776 12.9296 10.4994 13.0488 10.543C13.168 10.5846 13.2693 10.6451 13.3525 10.7246C13.4377 10.8022 13.5044 10.895 13.5518 11.0029C13.6009 11.1107 13.6312 11.2309 13.6426 11.3633H15.2441C15.2138 11.0017 15.1283 10.6806 14.9863 10.4004C14.8443 10.1202 14.6567 9.8846 14.4238 9.69336C14.1909 9.50023 13.9199 9.35331 13.6113 9.25293C13.3026 9.15255 12.9641 9.10254 12.5967 9.10254ZM15.9609 9.18164V15H17.541V13.0791H18.0879L19.1094 15H20.8252L19.6426 12.8291C19.9444 12.6843 20.1821 12.4798 20.3535 12.2129C20.539 11.927 20.6318 11.5757 20.6318 11.1592C20.6318 10.7463 20.5413 10.3921 20.3613 10.0967C20.1815 9.80143 19.9301 9.57513 19.6064 9.41797C19.2826 9.26078 18.9044 9.18165 18.4727 9.18164H15.9609ZM6.25195 10.4775C6.51326 10.4775 6.73312 10.5401 6.91113 10.665C7.09096 10.7881 7.22647 10.9696 7.31738 11.21C7.41018 11.4486 7.45702 11.7424 7.45703 12.0908C7.45703 12.4393 7.41019 12.7341 7.31738 12.9746C7.22647 13.2131 7.09099 13.3946 6.91113 13.5195C6.73311 13.6426 6.51329 13.7041 6.25195 13.7041C5.99082 13.704 5.77063 13.6425 5.59082 13.5195C5.41285 13.3946 5.27737 13.2131 5.18457 12.9746C5.09366 12.7341 5.04785 12.4393 5.04785 12.0908C5.04786 11.7424 5.09367 11.4486 5.18457 11.21C5.27737 10.9696 5.41288 10.7881 5.59082 10.665C5.77062 10.5402 5.99084 10.4776 6.25195 10.4775ZM18.0977 10.4434C18.2832 10.4434 18.4416 10.4684 18.5723 10.5195C18.7048 10.5688 18.8059 10.6469 18.876 10.7529C18.9479 10.8571 18.9844 10.9925 18.9844 11.1592C18.9844 11.3239 18.9479 11.4573 18.876 11.5596C18.8059 11.6618 18.7047 11.7368 18.5723 11.7842C18.4416 11.8296 18.2832 11.8525 18.0977 11.8525H17.541V10.4434H18.0977Z" fill="currentColor"/>
</svg>
