<svg width="24" height="24" viewBox="0 0 24 24" fill="currentColor" xmlns="http://www.w3.org/2000/svg">
<path d="M12 8.10156H8C6.89543 8.10156 6 8.99699 6 10.1016V16.1016L6.01074 16.3057C6.10641 17.247 6.85451 17.9954 7.7959 18.0908L8 18.1016H14L14.2041 18.0908C15.2126 17.9886 15.9998 17.137 16 16.1016V12.1016H18V16.1016C17.9997 18.3105 16.209 20.1016 14 20.1016H8C5.79102 20.1016 4.00026 18.3105 4 16.1016V10.1016C4 7.89242 5.79086 6.10059 8 6.10059H12V8.10156Z" fill="currentColor"/>
<path d="M11.9198 12.1906C11.5292 11.8001 11.5292 11.1669 11.9198 10.7764L18.2837 4.41245C18.6742 4.02193 19.3074 4.02193 19.6979 4.41245C20.0885 4.80298 20.0885 5.43614 19.6979 5.82667L13.334 12.1906C12.9434 12.5812 12.3103 12.5812 11.9198 12.1906Z" fill="currentColor"/>
<path d="M18.9934 10.3674C18.4411 10.3674 17.9934 9.91972 17.9934 9.36743V5.12285C17.9934 4.57056 18.4411 4.12285 18.9934 4.12285C19.5457 4.12285 19.9934 4.57056 19.9934 5.12285V9.36743C19.9934 9.91972 19.5457 10.3674 18.9934 10.3674Z" fill="currentColor"/>
<path d="M13.751 5.11963C13.751 4.56734 14.1987 4.11963 14.751 4.11963H18.9879C19.5402 4.11963 19.9879 4.56734 19.9879 5.11963C19.9879 5.67191 19.5402 6.11963 18.9879 6.11963H14.751C14.1987 6.11963 13.751 5.67191 13.751 5.11963Z" fill="currentColor"/>
</svg>
