<svg width="24" height="24" viewBox="0 0 24 24" fill="currentColor" xmlns="http://www.w3.org/2000/svg">
<path d="M6.00488 17.1025C6.05278 17.573 6.42703 17.9472 6.89746 17.9951L7 18H7.83301V20H7C5.34315 20 4 18.6569 4 17V16.167H6V17L6.00488 17.1025ZM11.167 18V20H9.5V18H11.167ZM14.5 18V20H12.833V18H14.5ZM18 17V16.167H20V17C20 18.6569 18.6569 20 17 20H16.167V18H17L17.1025 17.9951C17.6067 17.9438 18 17.5177 18 17ZM20 12.833V14.5H18V12.833H20ZM6 12.833V14.5H4V12.833H6ZM20 9.5V11.167H18V9.5H20ZM6 9.5V11.167H4V9.5H6ZM18 7C18 6.44772 17.5523 6 17 6V4C18.6569 4 20 5.34315 20 7V7.83301H18V7ZM7 6C6.44772 6 6 6.44772 6 7V7.83301H4V7C4 5.34315 5.34315 4 7 4V6ZM7.83301 4V6H7V4H7.83301ZM11.167 4V6H9.5V4H11.167ZM14.5 4V6H12.833V4H14.5ZM17 4V6H16.167V4H17Z" fill="currentColor"/>
</svg>
