<svg width="24" height="24" viewBox="0 0 24 24" fill="currentColor" xmlns="http://www.w3.org/2000/svg">
<path d="M19 2C20.6569 2 22 3.34315 22 5V13C22 14.6051 20.7394 15.9158 19.1543 15.9961L19 16V14C19.5523 14 20 13.5523 20 13V5C20 4.44772 19.5523 4 19 4H11C10.4477 4 10 4.44772 10 5H8C8 3.34315 9.34315 2 11 2H19Z" fill="currentColor"/>
<path d="M13 8C14.6569 8 16 9.34315 16 11V19C16 20.6569 14.6569 22 13 22H5C3.34315 22 2 20.6569 2 19V11C2 9.34315 3.34315 8 5 8H13ZM5 10C4.44772 10 4 10.4477 4 11V19C4 19.5523 4.44772 20 5 20H13C13.5523 20 14 19.5523 14 19V11C14 10.4477 13.5523 10 13 10H5Z" fill="currentColor"/>
<path d="M16 5C17.6569 5 19 6.34315 19 8V16C19 17.6051 17.7394 18.9158 16.1543 18.9961L16 19V17C16.5523 17 17 16.5523 17 16V8C17 7.44772 16.5523 7 16 7H8C7.44772 7 7 7.44772 7 8H5C5 6.34315 6.34315 5 8 5H16Z" fill="currentColor"/>
</svg>
