<svg width="24" height="24" viewBox="0 0 24 24" fill="currentColor" xmlns="http://www.w3.org/2000/svg">
<path d="M17.2881 13.7118C17.288 12.7168 17.0122 11.788 16.5342 10.993C16.4562 11.0265 16.3756 11.0567 16.292 11.0819C15.692 11.263 15.1203 11.1743 14.6836 10.9862C13.8905 10.6446 13.2709 9.86551 13.1963 8.89829L13.1885 8.702C13.1884 7.54224 12.6817 6.5006 11.8789 5.78204C11.4808 7.14636 10.7047 8.34786 9.6748 9.26548C9.46493 9.54315 9.18256 9.77193 8.83789 9.91588L8.82031 9.92271C8.64599 10.0381 8.4652 10.1468 8.27832 10.2489C8.20549 10.3187 8.11871 10.4075 8.02734 10.5223C7.94096 10.6309 7.84651 10.7273 7.74609 10.8124C7.15084 11.6875 6.76914 12.6496 6.71875 13.5185L6.71289 13.7118C6.71291 16.6321 9.08019 18.9997 12 19V21L11.625 20.9902C7.8989 20.8011 4.91155 17.813 4.72266 14.0868L4.71289 13.7118C4.71308 12.1067 5.44861 10.5105 6.38965 9.27427C6.39889 9.26212 6.41825 9.2626 6.42676 9.27524C6.43098 9.28158 6.43743 9.28573 6.44434 9.28599L6.46289 9.2772C6.6797 9.00474 6.89 8.79695 7.07129 8.64242C7.10822 8.61099 7.1492 8.58441 7.19238 8.56235C7.41918 8.44643 7.63659 8.31501 7.84375 8.16976C7.85747 8.16014 7.87223 8.1518 7.8877 8.14535L8.06738 8.07015C8.07653 8.06624 8.08353 8.05921 8.08691 8.05062L8.08594 8.02328C8.07949 8.00836 8.08392 7.99039 8.09668 7.98031C9.28376 7.04192 10.0737 5.62329 10.168 4.0164L10.1777 3.69218C10.1777 3.26749 10.538 2.90308 10.9453 3.02323C13.398 3.74672 15.1883 6.01493 15.1885 8.702C15.1885 9.10067 15.6473 9.33898 15.8701 9.05844L15.9121 8.99497C15.9803 8.86741 16.0434 8.73672 16.1016 8.60336C16.2501 8.26254 16.6822 8.11554 16.9551 8.36801C16.9737 8.38521 16.9924 8.40235 17.0107 8.41977C18.413 9.74787 19.2879 11.628 19.2881 13.7118L19.2783 14.0868C19.0831 17.9372 15.8988 20.9997 12 21V19C14.8288 18.9997 17.1394 16.7776 17.2812 13.9843L17.2881 13.7118ZM10.0605 7.7098C10.0593 7.70198 10.0579 7.69418 10.0566 7.68636C10.058 7.69418 10.0593 7.70198 10.0605 7.7098ZM10.0342 7.57601C10.0262 7.541 10.0168 7.5063 10.0068 7.47151C10.017 7.50629 10.026 7.54106 10.0342 7.57601ZM9.9873 7.40413C9.98511 7.39738 9.98371 7.39036 9.98145 7.38362L9.9209 7.22835C9.94607 7.28645 9.96791 7.34515 9.9873 7.40413Z" fill="currentColor"/>
</svg>
