<svg width="24" height="24" viewBox="0 0 24 24" fill="currentColor" xmlns="http://www.w3.org/2000/svg">
<path d="M3 17V7C3 4.79086 4.79086 3 7 3V5C5.89543 5 5 5.89543 5 7V17L5.01074 17.2041C5.1062 18.1457 5.85435 18.8938 6.7959 18.9893L7 19H17L17.2041 18.9893C18.2128 18.887 19 18.0357 19 17V7C19 5.89543 18.1046 5 17 5V3C19.2091 3 21 4.79086 21 7V17C21 19.2091 19.2091 21 17 21H7C4.79086 21 3 19.2091 3 17ZM17 3V5H7V3H17Z" fill="currentColor"/>
<path d="M8 17C8 16.4477 8.44772 16 9 16H15C15.5523 16 16 16.4477 16 17C16 17.5523 15.5523 18 15 18H9C8.44772 18 8 17.5523 8 17Z" fill="currentColor"/>
</svg>
