<svg width="24" height="24" viewBox="0 0 24 24" fill="currentColor" xmlns="http://www.w3.org/2000/svg">
<path d="M6 17C5.44772 17 5 17.4477 5 18C5 18.5523 5.44772 19 6 19H18L18.1025 18.9951C18.6067 18.9438 19 18.5177 19 18C19 17.4823 18.6067 17.0562 18.1025 17.0049L18 17V15C19.6569 15 21 16.3431 21 18C21 19.6569 19.6569 21 18 21H6C4.34315 21 3 19.6569 3 18C3 16.3431 4.34315 15 6 15V17ZM18 15V17H6V15H18Z" fill="currentColor"/>
<path d="M13 18C13 17.4477 12.5523 17 12 17C11.4477 17 11 17.4477 11 18C11 18.5523 11.4477 19 12 19C12.5523 19 13 18.5523 13 18ZM15 18C15 19.6569 13.6569 21 12 21C10.3431 21 9 19.6569 9 18C9 16.3431 10.3431 15 12 15C13.6569 15 15 16.3431 15 18Z" fill="currentColor"/>
<path d="M7.29248 9.20715C6.902 8.81662 6.90284 8.18309 7.29335 7.79258C7.68391 7.40241 8.31665 7.40261 8.70705 7.79302L11.9987 11.0864L15.293 7.79302C15.6835 7.40253 16.3166 7.40212 16.7071 7.79258C17.0975 8.18298 17.0977 8.81617 16.7075 9.20672L12.7071 13.2072C12.3166 13.5977 11.683 13.5968 11.2925 13.2063L7.29248 9.20715Z" fill="currentColor"/>
<path d="M10.9999 4.00008C10.9999 3.4478 11.4477 2.99996 12 2.99996C12.5523 2.99997 13.0001 3.4478 13.0001 4.00008L12.9997 12.4998C12.9997 13.052 12.5518 13.4999 11.9996 13.4999C11.4475 13.4997 11.0004 13.0522 11.0003 12.5002L10.9999 4.00008Z" fill="currentColor"/>
</svg>
