<svg width="24" height="24" viewBox="0 0 24 24" fill="currentColor" xmlns="http://www.w3.org/2000/svg">
<path d="M5 11L4.89746 11.0049C4.39333 11.0562 4 11.4823 4 12C4 12.5177 4.39333 12.9438 4.89746 12.9951L5 13H19C19.5523 13 20 12.5523 20 12C20 11.4477 19.5523 11 19 11V9C20.6569 9 22 10.3431 22 12C22 13.6569 20.6569 15 19 15H5C3.34315 15 2 13.6569 2 12C2 10.3431 3.34315 9 5 9V11ZM19 9V11H5V9H19Z" fill="currentColor"/>
<path d="M13 12C13 11.4477 12.5523 11 12 11C11.4477 11 11 11.4477 11 12C11 12.5523 11.4477 13 12 13C12.5523 13 13 12.5523 13 12ZM15 12C15 13.6569 13.6569 15 12 15C10.3431 15 9 13.6569 9 12C9 10.3431 10.3431 9 12 9C13.6569 9 15 10.3431 15 12Z" fill="currentColor"/>
<path d="M5 4L4.89746 4.00488C4.39333 4.05621 4 4.48232 4 5C4 5.51768 4.39333 5.94379 4.89746 5.99512L5 6H19C19.5523 6 20 5.55228 20 5C20 4.44772 19.5523 4 19 4V2C20.6569 2 22 3.34315 22 5C22 6.65685 20.6569 8 19 8H5C3.34315 8 2 6.65685 2 5C2 3.34315 3.34315 2 5 2V4ZM19 2V4H5V2H19Z" fill="currentColor"/>
<path d="M13 5C13 4.44772 12.5523 4 12 4C11.4477 4 11 4.44772 11 5C11 5.55228 11.4477 6 12 6C12.5523 6 13 5.55228 13 5ZM15 5C15 6.65685 13.6569 8 12 8C10.3431 8 9 6.65685 9 5C9 3.34315 10.3431 2 12 2C13.6569 2 15 3.34315 15 5Z" fill="currentColor"/>
<path d="M5 18L4.89746 18.0049C4.39333 18.0562 4 18.4823 4 19C4 19.5177 4.39333 19.9438 4.89746 19.9951L5 20H19C19.5523 20 20 19.5523 20 19C20 18.4477 19.5523 18 19 18V16C20.6569 16 22 17.3431 22 19C22 20.6569 20.6569 22 19 22H5C3.34315 22 2 20.6569 2 19C2 17.3431 3.34315 16 5 16V18ZM19 16V18H5V16H19Z" fill="currentColor"/>
<path d="M13 19C13 18.4477 12.5523 18 12 18C11.4477 18 11 18.4477 11 19C11 19.5523 11.4477 20 12 20C12.5523 20 13 19.5523 13 19ZM15 19C15 20.6569 13.6569 22 12 22C10.3431 22 9 20.6569 9 19C9 17.3431 10.3431 16 12 16C13.6569 16 15 17.3431 15 19Z" fill="currentColor"/>
</svg>
