<svg width="24" height="24" viewBox="0 0 24 24" fill="currentColor" xmlns="http://www.w3.org/2000/svg">
<path d="M16 6C16 8.20914 14.2091 10 12 10C9.79086 10 8 8.20914 8 6C8 3.79086 9.79086 2 12 2C14.2091 2 16 3.79086 16 6Z" fill="currentColor"/>
<path d="M12 10C16.4183 10 20 15.3726 20 22H17.6572C16.8334 19.6698 14.6123 18 12 18C9.38772 18 7.16657 19.6698 6.34277 22H4C4 15.3726 7.58172 10 12 10ZM12 12C10.3431 12 9 13.3431 9 15C9 16.6569 10.3431 18 12 18C13.6569 18 15 16.6569 15 15C15 13.3431 13.6569 12 12 12Z" fill="currentColor"/>
</svg>
