<svg width="24" height="24" viewBox="0 0 24 24" fill="currentColor" xmlns="http://www.w3.org/2000/svg">
<path d="M11.1298 2.95218C11.6432 2.11779 12.6853 1.77778 13.5917 2.14945C14.4982 2.52123 15.0025 3.49557 14.7822 4.45023L13.6552 9.33304H15.4999C16.2245 9.33304 16.8926 9.72497 17.246 10.3575C17.5994 10.9899 17.5827 11.7639 17.2031 12.3809L11.8701 21.0479C11.3566 21.8823 10.3146 22.2223 9.40814 21.8506C8.50166 21.4788 7.99738 20.5045 8.21771 19.5498L9.34466 14.667H7.49993C6.77539 14.667 6.10729 14.2751 5.75384 13.6426C5.40048 13.0102 5.41718 12.2362 5.79681 11.6192L11.1298 2.95218ZM7.49993 12.667H11.8593L10.1669 20L15.4999 11.333H11.1406L12.8329 4.00004L7.49993 12.667Z" fill="currentColor"/>
</svg>
