<svg width="24" height="24" viewBox="0 0 24 24" fill="currentColor" xmlns="http://www.w3.org/2000/svg">
<path d="M5 18V6C5 3.79086 6.79086 2 9 2V4C7.89543 4 7 4.89543 7 6V18C7 19.0357 7.78722 19.887 8.7959 19.9893L9 20H15L15.2041 19.9893C16.2128 19.887 17 19.0357 17 18V6C17 4.89543 16.1046 4 15 4V2C17.2091 2 19 3.79086 19 6V18C19 20.2091 17.2091 22 15 22H9C6.79086 22 5 20.2091 5 18ZM15 2V4H9V2H15Z" fill="currentColor"/>
<path d="M11 5C12.1046 5 13 5.89543 13 7V12C13 13.1046 12.1046 14 11 14H10C8.89543 14 8 13.1046 8 12V7C8 5.89543 8.89543 5 10 5H11ZM10.5 10C9.67157 10 9 10.6716 9 11.5C9 12.3284 9.67157 13 10.5 13C11.3284 13 12 12.3284 12 11.5C12 10.6716 11.3284 10 10.5 10ZM10.5 6C9.67157 6 9 6.67157 9 7.5C9 8.32843 9.67157 9 10.5 9C11.3284 9 12 8.32843 12 7.5C12 6.67157 11.3284 6 10.5 6Z" fill="currentColor"/>
</svg>
