<svg width="24" height="24" viewBox="0 0 24 24" fill="currentColor" xmlns="http://www.w3.org/2000/svg">
<path d="M5.05007 9.04991C6.22164 7.87834 8.12113 7.87834 9.29271 9.04991L14.9496 14.7068C16.1211 15.8783 16.1211 17.7778 14.9496 18.9494C13.778 20.121 11.8785 20.121 10.7069 18.9494L5.05007 13.2925C3.87849 12.121 3.87849 10.2215 5.05007 9.04991Z" fill="currentColor"/>
<path d="M2.2499 21.7494C2.10506 21.6044 2.0833 21.3771 2.19799 21.2072L8.13301 12.417C9.00407 11.1269 10.8354 10.951 11.9361 12.0517C13.0357 13.1513 12.8614 14.9804 11.574 15.8526L2.79303 21.8013C2.62297 21.9165 2.39506 21.8947 2.2499 21.7494Z" fill="currentColor"/>
<path d="M11.5857 6.75718C12.7573 5.58561 14.6568 5.58561 15.8284 6.75718L17.2426 8.1714C18.4141 9.34297 18.4141 11.2425 17.2426 12.414L14.4141 15.2425C13.2426 16.414 11.3431 16.414 10.1715 15.2425L8.75728 13.8283C7.58571 12.6567 7.58571 10.7572 8.75728 9.58561L11.5857 6.75718Z" fill="currentColor"/>
<path d="M12.9646 7.49986C11.793 6.32829 11.793 4.42879 12.9646 3.25722L13.322 2.89982C14.4936 1.72825 16.393 1.72825 17.5646 2.89982L21.1002 6.43536C22.2717 7.60693 22.2717 9.50643 21.1002 10.678L20.7428 11.0354C19.5712 12.207 17.6717 12.207 16.5001 11.0354L12.9646 7.49986Z" fill="currentColor"/>
</svg>
