<svg width="24" height="24" viewBox="0 0 24 24" fill="currentColor" xmlns="http://www.w3.org/2000/svg">
<path d="M2 5C2 3.34315 3.34315 2 5 2H8C9.65685 2 11 3.34315 11 5V8C11 9.65685 9.65685 11 8 11H5C3.34315 11 2 9.65685 2 8V5Z" fill="currentColor"/>
<path d="M13.338 7.19002C12.9474 6.79949 12.9474 6.16633 13.338 5.7758L16.8099 2.30385C17.2004 1.91332 17.8336 1.91332 18.2241 2.30385L21.6961 5.7758C22.0866 6.16633 22.0866 6.79949 21.6961 7.19002L18.2241 10.662C17.8336 11.0525 17.2004 11.0525 16.8099 10.662L13.338 7.19002Z" fill="currentColor"/>
<path d="M2 16C2 14.3431 3.34315 13 5 13H8C9.65685 13 11 14.3431 11 16V19C11 20.6569 9.65685 22 8 22H5C3.34315 22 2 20.6569 2 19V16Z" fill="currentColor"/>
<path d="M13 16C13 14.3431 14.3431 13 16 13H19C20.6569 13 22 14.3431 22 16V19C22 20.6569 20.6569 22 19 22H16C14.3431 22 13 20.6569 13 19V16Z" fill="currentColor"/>
</svg>
