<svg width="24" height="24" viewBox="0 0 24 24" fill="currentColor" xmlns="http://www.w3.org/2000/svg">
<path d="M12 2C17.5228 2 22 6.47715 22 12C22 17.5228 17.5228 22 12 22C6.47715 22 2 17.5228 2 12C2 6.47715 6.47715 2 12 2ZM7.75 17.5C7.33579 17.5 7 17.8358 7 18.25C7 18.6642 7.33579 19 7.75 19H16.25C16.6642 19 17 18.6642 17 18.25C17 17.8358 16.6642 17.5 16.25 17.5H7.75ZM14.6035 15C14.4544 15 14.3098 15.0444 14.1875 15.126L14.0732 15.2197C13.6008 15.6922 13.9354 16.5 14.6035 16.5H14.75C15.1642 16.5 15.5 16.1642 15.5 15.75C15.5 15.3358 15.1642 15 14.75 15H14.6035ZM9.99902 4.5C9.13688 4.5 8.25625 4.81027 7.55371 5.23047C6.91088 5.61495 6.32916 6.1451 6.0752 6.71484L6.0293 6.8291C5.95291 7.03889 5.97748 7.26426 6.00781 7.42383C6.04172 7.60209 6.10315 7.79816 6.17676 7.99707C6.3247 8.39677 6.54579 8.86683 6.78125 9.33301C7.01794 9.80161 7.27621 10.2808 7.50488 10.7012C7.6649 10.9953 7.80621 11.2573 7.91895 11.4697L7.91504 11.4766L8.0625 11.7432L10.3311 15.8252C10.6086 16.3248 11.2873 16.4198 11.6914 16.0156C11.9276 15.7793 12.0058 15.4273 11.8916 15.1133L10.7676 12.0234C11.7905 11.7277 12.9188 11.0459 13.4629 9.68555C14.0398 8.24313 13.6591 6.92924 12.8994 5.99707C12.1582 5.0876 11.0237 4.50015 9.99902 4.5ZM16.5 8C15.7076 7.759 15.2008 8.19639 15 9C14.5003 10.9998 14.5007 13.839 15 14C15.6335 14.2027 16.0858 12.8285 17.5 10C18 9 17.2702 8.23441 16.5 8Z" fill="currentColor"/>
<path d="M10.4998 10C9.49964 10.5001 7.99961 6.5 8.99981 6.5C10 6.5 10.701 7.2528 10.9998 7.99998C11.2987 8.74716 11.5 9.49986 10.4998 10Z" fill="currentColor"/>
</svg>
