<svg width="24" height="24" viewBox="0 0 24 24" fill="currentColor" xmlns="http://www.w3.org/2000/svg">
<path d="M5.00488 18.1025C5.05278 18.573 5.42703 18.9472 5.89746 18.9951L6 19H7L7.10254 18.9951C7.57297 18.9472 7.94722 18.573 7.99512 18.1025L8 18V6C8 5.44772 7.55228 5 7 5V3C8.65685 3 10 4.34315 10 6V18C10 19.6569 8.65686 21 7 21H6C4.34315 21 3 19.6569 3 18V6C3 4.34315 4.34315 3 6 3V5C5.44772 5 5 5.44772 5 6V18L5.00488 18.1025ZM7 3V5H6V3H7Z" fill="currentColor"/>
<path d="M13.0049 18.1025C13.0562 18.6067 13.4823 19 14 19H18L18.1025 18.9951C18.6067 18.9438 19 18.5177 19 18V13C19 12.4823 18.6067 12.0562 18.1025 12.0049L18 12V10C19.6569 10 21 11.3431 21 13V18C21 19.6569 19.6569 21 18 21H14C12.3431 21 11 19.6569 11 18V13C11 11.3431 12.3431 10 14 10V12C13.4477 12 13 12.4477 13 13V18L13.0049 18.1025ZM18 10V12H14V10H18Z" fill="currentColor"/>
<path d="M20.2313 5.51764C20.7224 5.65171 20.7224 6.34841 20.2313 6.48248L11.6317 8.82818C11.3532 8.90414 11.0777 8.72973 11.0135 8.46393L10.9999 8.34576L10.9999 3.65436C11.0001 3.32484 11.3137 3.08522 11.6317 3.17193L20.2313 5.51764ZM12.4999 4.96393V7.03619L16.2997 6.00006L12.4999 4.96393Z" fill="currentColor"/>
</svg>
