<svg width="24" height="24" viewBox="0 0 24 24" fill="currentColor" xmlns="http://www.w3.org/2000/svg">
<path d="M11.333 18.2949C11.333 18.6843 11.6318 19 12 19C12.322 19 12.591 18.7586 12.6533 18.4375L12.667 18.2949V15.8642C14.5939 14.8347 15.9129 12.9446 15.9961 10.7607L16 10.541C16 8.18906 14.5702 6.14468 12.4688 5.10935C12.1719 4.96314 11.8281 4.96314 11.5312 5.10935C9.42982 6.14468 8 8.18906 8 10.541L8.00391 10.7607C8.08708 12.9446 9.40612 14.8347 11.333 15.8642V18.2949ZM18 10.541C17.9999 13.1961 16.6611 15.4963 14.667 16.9638V18.2949C14.667 19.682 13.5766 21 12 21C10.4234 21 9.33301 19.682 9.33301 18.2949V16.9638C7.33894 15.4963 6.00008 13.1961 6 10.541C6 7.33688 7.94769 4.64552 10.6475 3.31541L10.8096 3.24119C11.5714 2.91912 12.4286 2.91912 13.1904 3.24119L13.3525 3.31541L13.6025 3.44431C16.1716 4.81436 18 7.43677 18 10.541Z" fill="currentColor"/>
</svg>
