<svg width="24" height="24" viewBox="0 0 24 24" fill="currentColor" xmlns="http://www.w3.org/2000/svg">
<path d="M11 5C11 4.44772 11.4477 4 12 4C12.5523 4 13 4.44772 13 5V11C13 11.5523 12.5523 12 12 12C11.4477 12 11 11.5523 11 11V5Z" fill="currentColor"/>
<path d="M8.79605 6.77913C8.54253 6.28689 7.93347 6.08841 7.47677 6.40146C6.28129 7.22094 5.32534 8.35391 4.71944 9.68436C3.97438 11.3204 3.80206 13.1596 4.23026 14.9056C4.65845 16.6515 5.66222 18.2023 7.07968 19.308C8.49714 20.4136 10.2457 21.0096 12.0433 20.9999C13.841 20.9901 15.5829 20.3752 16.9883 19.2543C18.3937 18.1334 19.3807 16.5718 19.7899 14.8213C20.1992 13.0708 20.0069 11.2335 19.2442 9.6057C18.6239 8.28188 17.6558 7.15934 16.4515 6.35286C15.9914 6.04477 15.3845 6.24984 15.1364 6.74479C14.8882 7.23975 15.0948 7.83591 15.5416 8.16301C16.3487 8.75398 16.9996 9.54099 17.4286 10.4564C18.0001 11.6763 18.1442 13.0531 17.8375 14.3648C17.5308 15.6766 16.7912 16.8468 15.7381 17.6868C14.6849 18.5267 13.3796 18.9875 12.0325 18.9948C10.6854 19.0021 9.37507 18.5555 8.31288 17.727C7.25068 16.8984 6.4985 15.7363 6.17762 14.428C5.85674 13.1196 5.98588 11.7413 6.5442 10.5154C6.96319 9.59534 7.60556 8.80133 8.40623 8.20166C8.8494 7.86974 9.04957 7.27137 8.79605 6.77913Z" fill="currentColor"/>
</svg>
