<svg width="24" height="24" viewBox="0 0 24 24" fill="currentColor" xmlns="http://www.w3.org/2000/svg">
<path d="M6 7C6 5.89543 6.89543 5 8 5H16C17.1046 5 18 5.89543 18 7V8H6V7Z" fill="currentColor"/>
<path d="M19 9C20.1046 9 21 9.89543 21 11V13C21 14.0357 20.2128 14.887 19.2041 14.9893L19 15V16C19 17.6569 17.6569 19 16 19H8C6.34315 19 5 17.6569 5 16V15L4.7959 14.9893C3.78722 14.887 3 14.0357 3 13V11C3 9.89543 3.89543 9 5 9H19ZM7 13V16C7 16.5523 7.44772 17 8 17H16C16.5523 17 17 16.5523 17 16V13H7Z" fill="currentColor"/>
</svg>
