<svg width="24" height="24" viewBox="0 0 24 24" fill="currentColor" xmlns="http://www.w3.org/2000/svg">
<path d="M9.95023 17.021L10.0625 17.1275C11.2402 18.191 13.0586 18.1558 14.1934 17.021L14.8994 16.314L17.0205 18.4351L16.3145 19.1421C13.9714 21.4852 10.1723 21.485 7.82913 19.1421L7.1221 18.4351L9.2432 16.313L9.95023 17.021ZM19.1426 7.82865C21.4854 10.1717 21.4854 13.9709 19.1426 16.314L18.4346 17.021L16.3135 14.8999L17.0215 14.1919L17.128 14.0806C18.1572 12.9411 18.1571 11.2016 17.128 10.062L17.0215 9.94974L16.3145 9.24271L18.4356 7.12064L19.1426 7.82865ZM7.82816 9.24271L7.1221 9.94974C5.95057 11.1213 5.95064 13.0203 7.1221 14.1919L7.82913 14.899L5.70707 17.0201L5.00101 16.314C2.65787 13.9709 2.65787 10.1718 5.00101 7.82865L5.70707 7.12162L7.82816 9.24271ZM7.82913 4.99955C10.1723 2.65706 13.9715 2.65672 16.3145 4.99955L17.0215 5.70658L14.8994 7.82767L14.1934 7.12162C13.0586 5.98678 11.2402 5.95151 10.0625 7.01517L9.95023 7.12162L9.24222 7.82865L7.12113 5.70756L7.82913 4.99955Z" fill="currentColor"/>
<path d="M9.24258 13.4854C8.46153 12.7043 8.46153 11.438 9.24258 10.657L10.6568 9.24274C11.4378 8.46169 12.7042 8.46169 13.4852 9.24274L14.8994 10.657C15.6805 11.438 15.6805 12.7043 14.8994 13.4854L13.4852 14.8996C12.7042 15.6806 11.4378 15.6806 10.6568 14.8996L9.24258 13.4854Z" fill="currentColor"/>
</svg>
