<svg width="24" height="24" viewBox="0 0 24 24" fill="currentColor" xmlns="http://www.w3.org/2000/svg">
<path d="M10 13C10.5523 13 11 13.4477 11 14V21C11 21.5523 10.5523 22 10 22H3C2.44772 22 2 21.5523 2 21V14C2 13.4477 2.44772 13 3 13H10ZM4.5 15C4.22386 15 4 15.2239 4 15.5V19.5C4 19.7761 4.22386 20 4.5 20H8.5C8.77614 20 9 19.7761 9 19.5V15.5C9 15.2239 8.77614 15 8.5 15H4.5Z" fill="currentColor"/>
<path d="M10 2C10.5523 2 11 2.44772 11 3V10C11 10.5523 10.5523 11 10 11H3C2.44772 11 2 10.5523 2 10V3C2 2.44772 2.44772 2 3 2H10ZM4.5 4C4.22386 4 4 4.22386 4 4.5V8.5C4 8.77614 4.22386 9 4.5 9H8.5C8.77614 9 9 8.77614 9 8.5V4.5C9 4.22386 8.77614 4 8.5 4H4.5Z" fill="currentColor"/>
<path d="M21 2C21.5523 2 22 2.44772 22 3V10C22 10.5523 21.5523 11 21 11H14C13.4477 11 13 10.5523 13 10V3C13 2.44772 13.4477 2 14 2H21ZM15.5 4C15.2239 4 15 4.22386 15 4.5V8.5C15 8.77614 15.2239 9 15.5 9H19.5C19.7761 9 20 8.77614 20 8.5V4.5C20 4.22386 19.7761 4 19.5 4H15.5Z" fill="currentColor"/>
<path d="M13 14C13 13.4477 13.4477 13 14 13H15C15.5523 13 16 13.4477 16 14V15C16 15.5523 15.5523 16 15 16H14C13.4477 16 13 15.5523 13 15V14Z" fill="currentColor"/>
<path d="M19 14C19 13.4477 19.4477 13 20 13H21C21.5523 13 22 13.4477 22 14V15C22 15.5523 21.5523 16 21 16H20C19.4477 16 19 15.5523 19 15V14Z" fill="currentColor"/>
<path d="M16 17C16 16.4477 16.4477 16 17 16H18C18.5523 16 19 16.4477 19 17V18C19 18.5523 18.5523 19 18 19H17C16.4477 19 16 18.5523 16 18V17Z" fill="currentColor"/>
<path d="M19 20C19 19.4477 19.4477 19 20 19H21C21.5523 19 22 19.4477 22 20V21C22 21.5523 21.5523 22 21 22H20C19.4477 22 19 21.5523 19 21V20Z" fill="currentColor"/>
<path d="M13 20C13 19.4477 13.4477 19 14 19H15C15.5523 19 16 19.4477 16 20V21C16 21.5523 15.5523 22 15 22H14C13.4477 22 13 21.5523 13 21V20Z" fill="currentColor"/>
</svg>
