<svg width="24" height="24" viewBox="0 0 24 24" fill="currentColor" xmlns="http://www.w3.org/2000/svg">
<rect x="15" y="4" width="5" height="5" rx="2" stroke="currentColor" stroke-width="2"/>
<path d="M12 5C12.7246 5 13.4237 5.10912 14.0811 5.31348C14.0294 5.5341 14 5.76362 14 6V7C14 7.14621 14.0101 7.29004 14.0303 7.43066C13.4097 7.15453 12.723 7 12 7H10C7.23858 7 5 9.23858 5 12V14C5 16.7614 7.23858 19 10 19H12C14.7614 19 17 16.7614 17 14V12C17 11.2765 16.8448 10.5896 16.5684 9.96875C16.7093 9.98907 16.8534 10 17 10H18C18.2361 10 18.4651 9.96955 18.6855 9.91797C18.8901 10.5756 19 11.275 19 12V14C19 17.866 15.866 21 12 21H10C6.13401 21 3 17.866 3 14V12C3 8.13401 6.13401 5 10 5H12Z" fill="currentColor"/>
<path d="M14.1738 5C14.0631 5.31306 14 5.649 14 6V7H10C9.44772 7 9 7.44772 9 8V14C9 14.5523 9.44772 15 10 15H16C16.5523 15 17 14.5523 17 14V10H18C18.3511 10 18.6869 9.93604 19 9.8252V14C19 15.6569 17.6569 17 16 17H10C8.34315 17 7 15.6569 7 14V8C7 6.34315 8.34315 5 10 5H14.1738Z" fill="currentColor"/>
<path d="M14.1738 5C14.0631 5.31306 14 5.649 14 6V7H13V11H17V10H18C18.3511 10 18.6869 9.93604 19 9.8252V12C19 12.5523 18.5523 13 18 13H12C11.4477 13 11 12.5523 11 12V6C11 5.44772 11.4477 5 12 5H14.1738Z" fill="currentColor"/>
</svg>
