<svg width="24" height="24" viewBox="0 0 24 24" fill="currentColor" xmlns="http://www.w3.org/2000/svg">
<path d="M6 14.5C6 14.2239 6.22386 14 6.5 14V14C6.77614 14 7 14.2239 7 14.5V16.5C7 16.7761 6.77614 17 6.5 17V17C6.22386 17 6 16.7761 6 16.5V14.5Z" fill="currentColor"/>
<path d="M14 15.5C14 15.2239 14.2239 15 14.5 15V15C14.7761 15 15 15.2239 15 15.5V18.5C15 18.7761 14.7761 19 14.5 19V19C14.2239 19 14 18.7761 14 18.5V15.5Z" fill="currentColor"/>
<path d="M16 19.5C16 19.2239 16.2239 19 16.5 19V19C16.7761 19 17 19.2239 17 19.5V20.5C17 20.7761 16.7761 21 16.5 21V21C16.2239 21 16 20.7761 16 20.5V19.5Z" fill="currentColor"/>
<path d="M8 15.5C8 15.2239 8.22386 15 8.5 15V15C8.77614 15 9 15.2239 9 15.5V16.5C9 16.7761 8.77614 17 8.5 17V17C8.22386 17 8 16.7761 8 16.5V15.5Z" fill="currentColor"/>
<path d="M17 15.5C17 15.2239 17.2239 15 17.5 15V15C17.7761 15 18 15.2239 18 15.5V17.5C18 17.7761 17.7761 18 17.5 18V18C17.2239 18 17 17.7761 17 17.5V15.5Z" fill="currentColor"/>
<path d="M4 19.5C4 19.2239 4.22386 19 4.5 19V19C4.77614 19 5 19.2239 5 19.5V21.5C5 21.7761 4.77614 22 4.5 22V22C4.22386 22 4 21.7761 4 21.5V19.5Z" fill="currentColor"/>
<path d="M4 12.5C4 12.2239 4.22386 12 4.5 12V12C4.77614 12 5 12.2239 5 12.5V16.5C5 16.7761 4.77614 17 4.5 17V17C4.22386 17 4 16.7761 4 16.5V12.5Z" fill="currentColor"/>
<path d="M12 14.5C12 14.2239 12.2239 14 12.5 14V14C12.7761 14 13 14.2239 13 14.5V16.5C13 16.7761 12.7761 17 12.5 17V17C12.2239 17 12 16.7761 12 16.5V14.5Z" fill="currentColor"/>
<path d="M15 12.5C15 12.2239 15.2239 12 15.5 12V12C15.7761 12 16 12.2239 16 12.5V14.5C16 14.7761 15.7761 15 15.5 15V15C15.2239 15 15 14.7761 15 14.5V12.5Z" fill="currentColor"/>
<path d="M19 17.5C19 17.2239 19.2239 17 19.5 17V17C19.7761 17 20 17.2239 20 17.5V21.5C20 21.7761 19.7761 22 19.5 22V22C19.2239 22 19 21.7761 19 21.5V17.5Z" fill="currentColor"/>
<path d="M7 19.5C7 19.2239 7.22386 19 7.5 19V19C7.77614 19 8 19.2239 8 19.5V21.5C8 21.7761 7.77614 22 7.5 22V22C7.22386 22 7 21.7761 7 21.5V19.5Z" fill="currentColor"/>
<path d="M12 19.5C12 19.2239 12.2239 19 12.5 19V19C12.7761 19 13 19.2239 13 19.5V21.5C13 21.7761 12.7761 22 12.5 22V22C12.2239 22 12 21.7761 12 21.5V19.5Z" fill="currentColor"/>
<path d="M19 12.5C19 12.2239 19.2239 12 19.5 12V12C19.7761 12 20 12.2239 20 12.5V14.5C20 14.7761 19.7761 15 19.5 15V15C19.2239 15 19 14.7761 19 14.5V12.5Z" fill="currentColor"/>
<path d="M10 17.5C10 17.2239 10.2239 17 10.5 17V17C10.7761 17 11 17.2239 11 17.5V20.5C11 20.7761 10.7761 21 10.5 21V21C10.2239 21 10 20.7761 10 20.5V17.5Z" fill="currentColor"/>
<path d="M16 7.5C16 10.5376 13.5376 13 10.5 13C7.46243 13 5 10.5376 5 7.5C5 4.46243 7.46243 2 10.5 2C13.5376 2 16 4.46243 16 7.5Z" fill="currentColor"/>
<path d="M22 10.5C22 12.433 20.433 14 18.5 14C16.567 14 15 12.433 15 10.5C15 8.567 16.567 7 18.5 7C20.433 7 22 8.567 22 10.5Z" fill="currentColor"/>
<path d="M19 8C19 9.65685 17.6569 11 16 11C14.3431 11 13 9.65685 13 8C13 6.34315 14.3431 5 16 5C17.6569 5 19 6.34315 19 8Z" fill="currentColor"/>
<path d="M9 10.5C9 12.433 7.433 14 5.5 14C3.567 14 2 12.433 2 10.5C2 8.567 3.567 7 5.5 7C7.433 7 9 8.567 9 10.5Z" fill="currentColor"/>
<path d="M5 10H19V14H5V10Z" fill="currentColor"/>
</svg>
