<svg width="24" height="24" viewBox="0 0 24 24" fill="currentColor" xmlns="http://www.w3.org/2000/svg">
<path d="M20.9121 5.73284C21.0139 5.19001 20.6561 4.66716 20.1132 4.56542C19.5706 4.46377 19.0482 4.8209 18.9463 5.36345L18.4078 8.24112L15.5293 7.70215C14.9867 7.60059 14.4643 7.95771 14.3623 8.50018C14.2606 9.04302 14.6184 9.56587 15.1612 9.6676L19.0209 10.3914C19.5637 10.4931 20.0866 10.1354 20.1883 9.59253L20.9121 5.73284Z" fill="currentColor"/>
<path d="M19.3634 11.9772C19.966 11.9772 20.4616 12.4676 20.3865 13.0655C20.1657 14.8218 19.4145 16.479 18.2203 17.8087C16.7817 19.4104 14.8019 20.4239 12.6614 20.6543C10.5209 20.8847 8.37074 20.3159 6.62425 19.057C4.87776 17.7982 3.6582 15.9382 3.19998 13.8347C2.74177 11.7311 3.07724 9.53242 4.14192 7.66123C5.2066 5.79004 6.92534 4.3784 8.96776 3.69767C11.0102 3.01693 13.2322 3.11514 15.2066 3.97342C16.8456 4.68594 18.2181 5.88053 19.1493 7.38588C19.4663 7.89837 19.2196 8.5505 18.6716 8.80115C18.1236 9.05179 17.4831 8.80381 17.145 8.30498C16.4529 7.28383 15.4814 6.4725 14.3365 5.97481C12.8559 5.33115 11.1895 5.25749 9.6578 5.76801C8.12609 6.27852 6.83713 7.33717 6.03868 8.74046C5.24024 10.1437 4.98865 11.7926 5.33229 13.3702C5.67592 14.9477 6.59052 16.3426 7.90029 17.2867C9.21006 18.2307 10.8226 18.6574 12.4278 18.4845C14.0331 18.3117 15.5178 17.5517 16.5967 16.3505C17.4308 15.4217 17.9768 14.2798 18.1815 13.0633C18.2815 12.469 18.7608 11.9772 19.3634 11.9772Z" fill="currentColor"/>
</svg>
