<svg width="24" height="24" viewBox="0 0 24 24" fill="currentColor" xmlns="http://www.w3.org/2000/svg">
<path d="M3.49881 6.29143C3.39707 5.7486 3.75487 5.22575 4.2977 5.12401C4.84026 5.02249 5.3627 5.37959 5.46465 5.92204L5.94292 8.47857L8.49898 7.99945C9.04182 7.89772 9.56467 8.2555 9.6664 8.79833C9.76794 9.34106 9.41025 9.86404 8.86751 9.96575L5.32935 10.628C4.78652 10.7297 4.26367 10.372 4.16193 9.82913L3.49881 6.29143Z" fill="currentColor"/>
<path d="M18.9999 12C19.5523 12 20.0065 11.5505 19.9377 11.0024C19.7593 9.58348 19.2029 8.23173 18.3182 7.09273C17.2281 5.68918 15.7016 4.68858 13.9797 4.24881C12.2578 3.80904 10.4385 3.95514 8.80889 4.66405C7.48639 5.23934 6.3499 6.15871 5.51303 7.31831C5.18975 7.76625 5.37282 8.37857 5.85757 8.64346C6.34233 8.90835 6.94404 8.72337 7.28571 8.28929C7.89625 7.51362 8.69225 6.89631 9.60687 6.49845C10.829 5.9668 12.1934 5.85724 13.4847 6.18704C14.776 6.51685 15.9208 7.26724 16.7383 8.31982C17.3501 9.10754 17.7526 10.0309 17.9165 11.0044C18.0081 11.5491 18.4475 12 18.9999 12Z" fill="currentColor"/>
<path d="M20.5012 17.7087C20.6029 18.2515 20.2451 18.7744 19.7023 18.8761C19.1597 18.9776 18.6373 18.6205 18.5354 18.0781L18.0571 15.5215L15.501 16.0007C14.9582 16.1024 14.4353 15.7446 14.3336 15.2018C14.2321 14.6591 14.5898 14.1361 15.1325 14.0344L18.6707 13.3721C19.2135 13.2704 19.7363 13.6282 19.8381 14.171L20.5012 17.7087Z" fill="currentColor"/>
<path d="M5.00013 12.0001C4.44772 12.0001 3.99345 12.4497 4.06234 12.9978C4.24631 14.4616 4.83263 15.8531 5.76519 17.0129C6.90767 18.4339 8.50125 19.422 10.282 19.8135C12.0628 20.205 13.9238 19.9765 15.557 19.1658C16.89 18.5041 18.0059 17.4869 18.787 16.2352C19.0794 15.7666 18.8556 15.1679 18.3541 14.9362C17.8527 14.7045 17.2647 14.9295 16.953 15.3856C16.3769 16.2284 15.5918 16.9152 14.6675 17.374C13.4427 17.982 12.047 18.1533 10.7116 17.8597C9.37611 17.5661 8.18101 16.8251 7.32422 15.7594C6.6776 14.9552 6.25296 14.0025 6.08353 12.9957C5.99185 12.451 5.55254 12.0001 5.00013 12.0001Z" fill="currentColor"/>
</svg>
