<svg width="24" height="24" viewBox="0 0 24 24" fill="currentColor" xmlns="http://www.w3.org/2000/svg">
<path d="M19 2C20.6569 2 22 3.34315 22 5V19C22 20.6569 20.6569 22 19 22H5C3.34315 22 2 20.6569 2 19V5C2 3.34315 3.34315 2 5 2H19ZM6 10C4.89543 10 4 10.8954 4 12V18C4 19.1046 4.89543 20 6 20H12C13.1046 20 14 19.1046 14 18V12C14 10.8954 13.1046 10 12 10H6ZM16.5 17C15.6716 17 15 17.6716 15 18.5C15 19.3284 15.6716 20 16.5 20H18.5C19.3284 20 20 19.3284 20 18.5C20 17.6716 19.3284 17 18.5 17H16.5ZM17 11C15.8954 11 15 11.8954 15 13V14C15 15.1046 15.8954 16 17 16H18C19.1046 16 20 15.1046 20 14V13C20 11.8954 19.1046 11 18 11H17ZM16 4C14.8954 4 14 4.89543 14 6V8C14 9.10457 14.8954 10 16 10H18C19.1046 10 20 9.10457 20 8V6C20 4.89543 19.1046 4 18 4H16ZM5.5 4C4.67157 4 4 4.67157 4 5.5V7.5C4 8.32843 4.67157 9 5.5 9C6.32843 9 7 8.32843 7 7.5V5.5C7 4.67157 6.32843 4 5.5 4ZM10 4C8.89543 4 8 4.89543 8 6V7C8 8.10457 8.89543 9 10 9H11C12.1046 9 13 8.10457 13 7V6C13 4.89543 12.1046 4 11 4H10Z" fill="currentColor"/>
</svg>
