<svg width="24" height="24" viewBox="0 0 24 24" fill="currentColor" xmlns="http://www.w3.org/2000/svg">
<path d="M19 7C20.6569 7 22 8.34315 22 10V19C22 20.6569 20.6569 22 19 22H5C3.34315 22 2 20.6569 2 19V10C2 8.34315 3.34315 7 5 7H19ZM11 18C10.4477 18 10 18.4477 10 19C10 19.5523 10.4477 20 11 20H13C13.5523 20 14 19.5523 14 19C14 18.4477 13.5523 18 13 18H11ZM6 9C4.89543 9 4 9.89543 4 11V14C4 15.1046 4.89543 16 6 16H18C19.1046 16 20 15.1046 20 14V11C20 9.89543 19.1046 9 18 9H6Z" fill="currentColor"/>
<path d="M15 11.5C15 10.6716 15.6716 10 16.5 10C17.3284 10 18 10.6716 18 11.5V13.5C18 14.3284 17.3284 15 16.5 15C15.6716 15 15 14.3284 15 13.5V11.5Z" fill="currentColor"/>
<path d="M6 11.5C6 10.6716 6.67157 10 7.5 10C8.32843 10 9 10.6716 9 11.5V13.5C9 14.3284 8.32843 15 7.5 15C6.67157 15 6 14.3284 6 13.5V11.5Z" fill="currentColor"/>
<path d="M11 5H13V7H11V5Z" fill="currentColor"/>
<path d="M13 4C13 3.44772 12.5523 3 12 3C11.4477 3 11 3.44772 11 4C11 4.55228 11.4477 5 12 5V6C10.8954 6 10 5.10457 10 4C10 2.89543 10.8954 2 12 2C13.1046 2 14 2.89543 14 4C14 5.10457 13.1046 6 12 6V5C12.5523 5 13 4.55228 13 4Z" fill="currentColor"/>
</svg>
