<svg width="24" height="24" viewBox="0 0 24 24" fill="currentColor" xmlns="http://www.w3.org/2000/svg">
<path d="M9.17149 19.0711C9.56201 19.4616 10.1952 19.4616 10.5857 19.0711L19.071 10.5858L19.14 10.5098C19.4602 10.1171 19.437 9.53764 19.071 9.17159L14.8283 4.92895C14.4623 4.5629 13.8829 4.53972 13.4901 4.8599L13.4141 4.92895L11.9999 3.51474C13.1715 2.34316 15.071 2.34316 16.2426 3.51474L20.4852 7.75738C21.6568 8.92895 21.6568 10.8284 20.4852 12L11.9999 20.4853C10.8283 21.6569 8.92885 21.6569 7.75727 20.4853L3.51463 16.2427C2.34306 15.0711 2.34306 13.1716 3.51463 12L4.92884 13.4142C4.53832 13.8048 4.53832 14.4379 4.92884 14.8284L9.17149 19.0711ZM11.9999 3.51474L13.4141 4.92895L4.92884 13.4142L3.51463 12L11.9999 3.51474Z" fill="currentColor"/>
<path d="M13.4999 21.1509C13.4999 21.6199 13.8811 22.0045 14.3477 21.9577C15.1731 21.8749 15.9835 21.6717 16.7528 21.353C17.784 20.9259 18.7211 20.2998 19.5104 19.5105C20.2997 18.7212 20.9258 17.7841 21.3529 16.7529C21.6715 15.9837 21.8748 15.1732 21.9576 14.3478C22.0043 13.8812 21.6198 13.5001 21.1508 13.5001C20.6818 13.5001 20.3071 13.8817 20.2487 14.347C20.1731 14.9492 20.0171 15.5399 19.7839 16.103C19.442 16.9282 18.941 17.678 18.3094 18.3096C17.6779 18.9412 16.928 19.4422 16.1028 19.784C15.5398 20.0172 14.9491 20.1732 14.3469 20.2488C13.8816 20.3072 13.4999 20.6819 13.4999 21.1509Z" fill="currentColor"/>
<path d="M10.5 2.84917C10.5 2.38019 10.1189 1.99561 9.65223 2.04238C8.82682 2.12512 8.01641 2.3284 7.24719 2.64702C6.21592 3.07419 5.27889 3.70029 4.48959 4.48959C3.70029 5.27889 3.07419 6.21592 2.64702 7.24719C2.3284 8.01641 2.12512 8.82682 2.04238 9.65223C1.99561 10.1189 2.38019 10.5 2.84917 10.5C3.31815 10.5 3.69288 10.1184 3.75128 9.65303C3.82686 9.05084 3.98286 8.46019 4.21609 7.89712C4.5579 7.0719 5.05891 6.32209 5.6905 5.6905C6.32209 5.05891 7.0719 4.5579 7.89712 4.21609C8.46019 3.98286 9.05084 3.82686 9.65303 3.75128C10.1184 3.69288 10.5 3.31815 10.5 2.84917Z" fill="currentColor"/>
</svg>
