<svg width="24" height="24" viewBox="0 0 24 24" fill="currentColor" xmlns="http://www.w3.org/2000/svg">
<path d="M2.80769 4.22163C2.41717 3.83111 2.41717 3.19794 2.80769 2.80742C3.19822 2.4169 3.83138 2.4169 4.22191 2.80742L21.1925 19.778C21.583 20.1685 21.583 20.8017 21.1925 21.1922C20.8019 21.5827 20.1688 21.5827 19.7783 21.1922L2.80769 4.22163Z" fill="currentColor"/>
<path d="M4.06259 8.30574C3.96229 8.59982 3.88089 8.90135 3.82138 9.20906C3.66102 10.0387 3.6585 10.8857 3.80673 11.7071L5.63486 9.87801L7.04989 11.293L4.9288 13.4141C4.53829 13.8047 4.53831 14.4387 4.9288 14.8292L9.17099 19.0714C9.56145 19.4618 10.1945 19.4617 10.5851 19.0714L12.7061 16.9493L14.1202 18.3634L12.2921 20.1925C13.1116 20.3404 13.9567 20.3388 14.7843 20.1798C15.0941 20.1202 15.3974 20.0376 15.6934 19.9366L17.002 21.2452C16.3988 21.5182 15.7623 21.7213 15.1046 21.8477C13.461 22.1636 11.7634 21.9852 10.2237 21.3419C9.34526 21.4432 8.43078 21.1593 7.75693 20.4854L3.51474 16.2432C2.84048 15.569 2.55545 14.6535 2.65732 13.7745C2.01401 12.2335 1.83613 10.5334 2.15439 8.8868C2.281 8.23205 2.48342 7.59856 2.75497 6.99813L4.06259 8.30574ZM9.72177 2.03621C11.1106 1.90862 12.5027 2.1258 13.7774 2.65828C14.6552 2.55761 15.5689 2.84149 16.2423 3.51473L20.4845 7.75789C21.1582 8.43158 21.442 9.34545 21.3409 10.2237C21.9163 11.6005 22.1229 13.1091 21.9288 14.5987C21.8199 15.4342 21.5863 16.2426 21.2433 17.0011L19.9366 15.6944C20.0815 15.2693 20.1856 14.829 20.2442 14.379C20.3352 13.6806 20.3161 12.9768 20.1925 12.2921L20.4854 12.0001H20.4845L18.3634 14.1212L16.9493 12.7071L19.0704 10.586L19.1397 10.5098C19.4598 10.1171 19.4364 9.53795 19.0704 9.17195L14.8175 4.91902C14.4509 4.56293 13.8784 4.54331 13.4893 4.86043L13.4142 4.92879L11.2921 7.04988L9.87802 5.63582L11.7061 3.8077C11.1066 3.69959 10.4913 3.67118 9.87704 3.72762C9.33858 3.77715 8.81156 3.89122 8.30575 4.06356L6.99814 2.75594C7.85431 2.36883 8.77408 2.12336 9.72177 2.03621Z" fill="currentColor"/>
</svg>
