<svg width="24" height="24" viewBox="0 0 24 24" fill="currentColor" xmlns="http://www.w3.org/2000/svg">
<path d="M18 7L6 7C3.79086 7 2 8.79086 2 11H4C4 9.89543 4.89543 9 6 9H18C19.0357 9 19.887 9.78722 19.9893 10.7959L20 11V13L19.9893 13.2041C19.887 14.2128 19.0357 15 18 15H6C4.89543 15 4 14.1046 4 13H2C2 15.2091 3.79086 17 6 17H18C20.2091 17 22 15.2091 22 13V11C22 8.79086 20.2091 7 18 7ZM2 13H4V11H2V13Z" fill="currentColor"/>
<path d="M6 8C5.44772 8 5 8.44772 5 9V12C5 12.5523 5.44772 13 6 13C6.55228 13 7 12.5523 7 12V9C7 8.44772 6.55228 8 6 8Z" fill="currentColor"/>
<path d="M18 8C17.4477 8 17 8.44772 17 9V12C17 12.5523 17.4477 13 18 13C18.5523 13 19 12.5523 19 12V9C19 8.44772 18.5523 8 18 8Z" fill="currentColor"/>
<path d="M15 8C14.4477 8 14 8.44772 14 9V13C14 13.5523 14.4477 14 15 14C15.5523 14 16 13.5523 16 13V9C16 8.44772 15.5523 8 15 8Z" fill="currentColor"/>
<path d="M9 8C8.44772 8 8 8.44772 8 9V13C8 13.5523 8.44772 14 9 14C9.55228 14 10 13.5523 10 13V9C10 8.44772 9.55228 8 9 8Z" fill="currentColor"/>
<path d="M12 8C11.4477 8 11 8.44772 11 9V12C11 12.5523 11.4477 13 12 13C12.5523 13 13 12.5523 13 12V9C13 8.44772 12.5523 8 12 8Z" fill="currentColor"/>
</svg>
