<svg width="24" height="24" viewBox="0 0 24 24" fill="currentColor" xmlns="http://www.w3.org/2000/svg">
<path d="M2 17V7C2 4.23858 4.23858 2 7 2V4C5.34315 4 4 5.34315 4 7V17C4 18.6569 5.34315 20 7 20H17C18.6569 20 20 18.6569 20 17V7L17 4H7V2H17.8281L22 6.17188V17C22 19.7614 19.7614 22 17 22H7C4.23858 22 2 19.7614 2 17Z" fill="currentColor"/>
<path d="M8 16C8 14.8954 8.89543 14 10 14H14C15.1046 14 16 14.8954 16 16V19H8V16Z" fill="currentColor"/>
<path d="M16 16C16 14.9643 15.2128 14.113 14.2041 14.0107L14 14V12C16.2091 12 18 13.7909 18 16V21H6V16C6 13.7909 7.79086 12 10 12V14C8.89543 14 8 14.8954 8 16V19H16V16ZM14 12V14H10V12H14Z" fill="currentColor"/>
<path d="M17 6C17 8.20914 15.2091 10 13 10H11C8.79086 10 7 8.20914 7 6V2H17V6ZM13 4V7C13 7.55228 13.4477 8 14 8C14.5523 8 15 7.55228 15 7V4H13Z" fill="currentColor"/>
</svg>
