<svg width="24" height="24" viewBox="0 0 24 24" fill="currentColor" xmlns="http://www.w3.org/2000/svg">
<path d="M11 6H13C15.7614 6 18 8.23858 18 11H16C16 9.34315 14.6569 8 13 8L11 8C9.34315 8 8 9.34315 8 11V13C8 14.6569 9.34315 16 11 16H13C14.6569 16 16 14.6569 16 13H18C18 15.7614 15.7614 18 13 18H11C8.23858 18 6 15.7614 6 13V11C6 8.23858 8.23858 6 11 6ZM18 13H16L16 11H18V13Z" fill="currentColor"/>
<path d="M7 8C6.56324 8.58142 6.25059 9.26109 6.10059 10H5C4.44772 10 4 10.4477 4 11V13C4 13.5523 4.44772 14 5 14H6.10059C6.25059 14.7389 6.56324 15.4186 7 16H5C3.34315 16 2 14.6569 2 13V11C2 9.34315 3.34315 8 5 8H7ZM22 13C22 14.6569 20.6569 16 19 16H17.8262C17.9369 15.6869 18 15.351 18 15V14H19C19.5177 14 19.9438 13.6067 19.9951 13.1025L20 13V11C20 10.4477 19.5523 10 19 10H18V9C18 8.649 17.9369 8.31306 17.8262 8H19C20.6569 8 22 9.34315 22 11V13Z" fill="currentColor"/>
<path d="M17 8C17.4368 8.58142 17.7494 9.26109 17.8994 10H19C19.5523 10 20 10.4477 20 11V13C20 13.5523 19.5523 14 19 14H17.8994C17.7494 14.7389 17.4368 15.4186 17 16H19C20.6569 16 22 14.6569 22 13V11C22 9.34315 20.6569 8 19 8H17ZM2 13C2 14.6569 3.34315 16 5 16H6.17383C6.06306 15.6869 6 15.351 6 15V14H5C4.48232 14 4.05622 13.6067 4.00488 13.1025L4 13V11C4 10.4477 4.44772 10 5 10H6V9C6 8.649 6.06306 8.31306 6.17383 8H5C3.34315 8 2 9.34315 2 11V13Z" fill="currentColor"/>
</svg>
