<svg width="24" height="24" viewBox="0 0 24 24" fill="currentColor" xmlns="http://www.w3.org/2000/svg">
<path d="M13.1622 2C14.1362 2.00007 14.9256 2.7897 14.9258 3.76367V3.95508C14.9259 4.5513 15.2949 5.07878 15.8106 5.37793C16.3267 5.67727 16.9628 5.72976 17.4796 5.43164L17.6456 5.33594C18.49 4.84868 19.5703 5.13806 20.0577 5.98242L21.2325 8.01758C21.72 8.86217 21.4298 9.94157 20.585 10.4287L20.421 10.5244C19.9037 10.8228 19.6319 11.4028 19.6319 12C19.6319 12.5962 19.9027 13.1755 20.419 13.4736L20.585 13.5693C21.4301 14.0573 21.7201 15.1382 21.2325 15.9834L20.0577 18.0186C19.5704 18.8629 18.4907 19.1524 17.6466 18.665L17.4796 18.5684C16.9627 18.2699 16.3257 18.3223 15.8096 18.6221C15.2944 18.9215 14.926 19.449 14.9258 20.0449V20.2363C14.9258 21.2108 14.1357 22.001 13.1612 22.001H10.8077C9.83312 22.001 9.04301 21.2109 9.04301 20.2363V20.0449C9.04298 19.4489 8.67476 18.9211 8.15922 18.6221C7.64293 18.3227 7.00608 18.2708 6.48929 18.5693L6.32327 18.665C5.47936 19.1525 4.40048 18.8635 3.91311 18.0195L2.73732 15.9834C2.24934 15.1382 2.53883 14.0577 3.38381 13.5693L3.54983 13.4727C4.06551 13.1746 4.33694 12.5956 4.33694 12C4.33692 11.4033 4.06568 10.8236 3.54885 10.5254L3.38381 10.4297C2.53892 9.94215 2.24963 8.86235 2.73732 8.01758L3.91311 5.98145C4.40046 5.13761 5.47928 4.84791 6.32327 5.33496L6.48929 5.43164C7.00608 5.72989 7.64305 5.67728 8.15922 5.37793C8.67472 5.07877 9.043 4.5511 9.04301 3.95508V3.76367C9.04322 2.78978 9.83279 2.0002 10.8067 2H13.1622ZM12 6.5C8.96247 6.5 6.50003 8.96243 6.50003 12C6.50003 15.0376 8.96247 17.5 12 17.5C15.0376 17.5 17.5001 15.0376 17.5001 12C17.5001 8.96243 15.0376 6.5 12 6.5ZM12 9C13.6569 9 15.0001 10.3431 15.0001 12C15.0001 13.6569 13.6569 15 12 15C10.3432 15 9.00004 13.6569 9.00004 12C9.00004 10.3431 10.3432 9 12 9Z" fill="currentColor"/>
</svg>
