<svg width="24" height="24" viewBox="0 0 24 24" fill="currentColor" xmlns="http://www.w3.org/2000/svg">
<path d="M19 7C20.6569 7 22 8.34315 22 10V14C22 15.6569 20.6569 17 19 17H5C3.34315 17 2 15.6569 2 14V10C2 8.34315 3.34315 7 5 7H19ZM6.33594 13.5117C6.1163 13.5117 5.92767 13.5879 5.77051 13.7412C5.6152 13.8946 5.53912 14.08 5.54102 14.2959C5.53922 14.5172 5.61551 14.7052 5.77051 14.8604C5.92769 15.0137 6.11627 15.0908 6.33594 15.0908C6.47609 15.0908 6.60627 15.0554 6.72559 14.9854C6.84455 14.9135 6.94091 14.8182 7.01465 14.6992C7.09033 14.5781 7.12987 14.4435 7.13184 14.2959C7.12994 14.08 7.0477 13.8946 6.88672 13.7412C6.72771 13.588 6.54411 13.5117 6.33594 13.5117ZM10.3135 9.10254C9.8533 9.10254 9.4449 9.17969 9.08887 9.33496C8.7349 9.49017 8.45757 9.70717 8.25684 9.98535C8.05806 10.2617 7.95913 10.585 7.96094 10.9541C7.95904 11.4086 8.10592 11.768 8.40137 12.0312C8.69871 12.2926 9.10497 12.4791 9.62012 12.5908L10.1992 12.7158C10.4151 12.7632 10.587 12.8142 10.7139 12.8691C10.8405 12.9221 10.9314 12.9827 10.9863 13.0508C11.0431 13.1171 11.0723 13.1952 11.0742 13.2842C11.0723 13.3788 11.0421 13.4633 10.9834 13.5371C10.9248 13.6108 10.8389 13.6684 10.7256 13.71C10.6119 13.7516 10.4703 13.7725 10.3018 13.7725C10.1011 13.7724 9.92801 13.7412 9.78223 13.6787C9.63834 13.6162 9.52681 13.5245 9.44727 13.4033C9.36772 13.2821 9.32295 13.1321 9.31348 12.9541H7.81348C7.81537 13.4408 7.91954 13.8408 8.12598 14.1533C8.33431 14.4639 8.62598 14.6941 9.00098 14.8438C9.37773 14.9933 9.81879 15.0683 10.3242 15.0684C10.8166 15.0684 11.2385 14.9986 11.5889 14.8604C11.941 14.7221 12.212 14.5209 12.4014 14.2559C12.5908 13.9907 12.6866 13.6667 12.6885 13.2842C12.6866 13.0627 12.6501 12.8583 12.5801 12.6709C12.5119 12.4835 12.4054 12.3146 12.2598 12.165C12.114 12.0136 11.9263 11.8813 11.6973 11.7695C11.4681 11.6578 11.1921 11.5682 10.8701 11.5L10.3926 11.3975C10.2545 11.3691 10.1354 11.3367 10.0352 11.3008C9.93486 11.2648 9.85246 11.2252 9.78809 11.1816C9.72369 11.1362 9.67581 11.0862 9.64551 11.0312C9.61713 10.9745 9.60461 10.9109 9.6084 10.8408C9.61031 10.7556 9.63632 10.6795 9.68555 10.6133C9.73479 10.5471 9.81096 10.4949 9.91309 10.457C10.0172 10.4174 10.1508 10.3975 10.3135 10.3975C10.5691 10.3975 10.7598 10.4506 10.8848 10.5566C11.0116 10.6627 11.0825 10.8107 11.0977 11H12.6084C12.6065 10.6193 12.5117 10.287 12.3242 10.0029C12.1386 9.71704 11.8749 9.49506 11.5322 9.33789C11.1895 9.18071 10.7831 9.10256 10.3135 9.10254ZM13.2891 9.18164V15H14.8691V12.7275H16.96V15H18.5391V9.18164H16.96V11.4541H14.8691V9.18164H13.2891Z" fill="currentColor"/>
</svg>
