<svg width="24" height="24" viewBox="0 0 24 24" fill="currentColor" xmlns="http://www.w3.org/2000/svg">
<path d="M17 4H7V13.542C7.00003 13.8487 7.14073 14.1386 7.38184 14.3281L11.3818 17.4707C11.7444 17.7556 12.2556 17.7556 12.6182 17.4707L16.6182 14.3281C16.8593 14.1386 17 13.8487 17 13.542V4ZM18.9951 13.7139C18.946 14.5699 18.532 15.3672 17.8535 15.9004L13.8535 19.0439L13.6445 19.1943C12.6473 19.8486 11.3527 19.8486 10.3555 19.1943L10.1465 19.0439L6.14648 15.9004C5.46801 15.3672 5.05397 14.5699 5.00488 13.7139L5 13.542V2H19V13.542L18.9951 13.7139Z" fill="currentColor"/>
</svg>
