<svg width="24" height="24" viewBox="0 0 24 24" fill="currentColor" xmlns="http://www.w3.org/2000/svg">
<path d="M21 11C21.5523 11 22 11.4477 22 12C22 12.5523 21.5523 13 21 13H17C16.4477 13 16 12.5523 16 12C16 11.4477 16.4477 11 17 11L21 11Z" fill="currentColor"/>
<path d="M10 10C11.1046 10 12 10.8954 12 12C12 13.1046 11.1046 14 10 14L4 14C2.89543 14 2 13.1046 2 12C2 10.8954 2.89543 10 4 10L10 10Z" fill="currentColor"/>
<path d="M14 14C15.1046 14 16 13.1046 16 12C16 10.8954 15.1046 10 14 10C12.8954 10 12 10.8954 12 12C12 13.1046 12.8954 14 14 14ZM14 16C11.7909 16 10 14.2091 10 12C10 9.79086 11.7909 8 14 8C16.2091 8 18 9.79086 18 12C18 14.2091 16.2091 16 14 16Z" fill="currentColor"/>
</svg>
