<svg width="24" height="24" viewBox="0 0 24 24" fill="currentColor" xmlns="http://www.w3.org/2000/svg">
<path d="M11.3635 3.69231C11.3635 3.30996 11.6735 3 12.0558 3C12.4382 3 12.7481 3.30996 12.7481 3.69231V20.3077C12.7481 20.69 12.4382 21 12.0558 21C11.6735 21 11.3635 20.69 11.3635 20.3077V3.69231Z" fill="currentColor"/>
<path d="M14.1748 4.52799C14.4451 4.25762 14.8835 4.25762 15.1538 4.52799C15.4242 4.79835 15.4242 5.2367 15.1538 5.50706L12.7062 7.95474C12.4358 8.2251 11.9975 8.2251 11.7271 7.95474C11.4567 7.68437 11.4567 7.24603 11.7271 6.97566L14.1748 4.52799Z" fill="currentColor"/>
<path d="M8.95755 5.50699C8.68719 5.23663 8.68719 4.79828 8.95755 4.52792C9.22792 4.25756 9.66626 4.25756 9.93662 4.52792L12.3843 6.9756C12.6547 7.24596 12.6547 7.68431 12.3843 7.95467C12.1139 8.22503 11.6756 8.22503 11.4052 7.95467L8.95755 5.50699Z" fill="currentColor"/>
<path d="M11.7271 16.9301C11.4567 16.6597 11.4567 16.2214 11.7271 15.951C11.9974 15.6807 12.4358 15.6807 12.7062 15.951L15.1538 18.3987C15.4242 18.6691 15.4242 19.1074 15.1538 19.3778C14.8835 19.6481 14.4451 19.6481 14.1748 19.3778L11.7271 16.9301Z" fill="currentColor"/>
<path d="M9.93656 19.3779C9.66619 19.6483 9.22785 19.6483 8.95749 19.3779C8.68712 19.1075 8.68712 18.6692 8.95749 18.3988L11.4052 15.9511C11.6755 15.6808 12.1139 15.6808 12.3842 15.9511C12.6546 16.2215 12.6546 16.6599 12.3842 16.9302L9.93656 19.3779Z" fill="currentColor"/>
<path d="M4.5146 8.44576C4.18347 8.25459 4.07002 7.83118 4.26119 7.50005C4.45237 7.16893 4.87578 7.05548 5.2069 7.24665L19.5962 15.5543C19.9274 15.7455 20.0408 16.1689 19.8496 16.5001C19.6585 16.8312 19.2351 16.9446 18.9039 16.7535L4.5146 8.44576Z" fill="currentColor"/>
<path d="M6.64378 6.42885C6.54482 6.05953 6.76399 5.67991 7.13332 5.58095C7.50264 5.48199 7.88226 5.70116 7.98122 6.07049L8.87713 9.41408C8.97609 9.7834 8.75692 10.163 8.38759 10.262C8.01827 10.3609 7.63865 10.1418 7.53969 9.77244L6.64378 6.42885Z" fill="currentColor"/>
<path d="M4.88307 11.4364C4.51375 11.5354 4.13413 11.3162 4.03517 10.9469C3.93621 10.5776 4.15539 10.1979 4.52471 10.099L7.8683 9.20307C8.23762 9.10411 8.61724 9.32328 8.7162 9.69261C8.81516 10.0619 8.59599 10.4415 8.22666 10.5405L4.88307 11.4364Z" fill="currentColor"/>
<path d="M16.1604 14.7498C15.7911 14.8487 15.4115 14.6296 15.3125 14.2602C15.2136 13.8909 15.4327 13.5113 15.8021 13.4123L19.1456 12.5164C19.515 12.4175 19.8946 12.6366 19.9935 13.006C20.0925 13.3753 19.8733 13.7549 19.504 13.8539L16.1604 14.7498Z" fill="currentColor"/>
<path d="M17.3853 17.524C17.4842 17.8934 17.2651 18.273 16.8957 18.3719C16.5264 18.4709 16.1468 18.2517 16.0478 17.8824L15.1519 14.5388C15.053 14.1695 15.2721 13.7899 15.6415 13.6909C16.0108 13.5919 16.3904 13.8111 16.4894 14.1804L17.3853 17.524Z" fill="currentColor"/>
<path d="M5.20698 16.7535C4.87585 16.9446 4.45244 16.8312 4.26127 16.5001C4.07009 16.1689 4.18354 15.7455 4.51467 15.5543L18.904 7.24665C19.2351 7.05548 19.6585 7.16893 19.8497 7.50005C20.0409 7.83118 19.9274 8.25459 19.5963 8.44576L5.20698 16.7535Z" fill="currentColor"/>
<path d="M4.52516 13.901C4.15584 13.802 3.93667 13.4224 4.03563 13.0531C4.13459 12.6838 4.51421 12.4646 4.88353 12.5635L8.22712 13.4595C8.59644 13.5584 8.81561 13.938 8.71665 14.3074C8.61769 14.6767 8.23808 14.8959 7.86875 14.7969L4.52516 13.901Z" fill="currentColor"/>
<path d="M7.98143 17.9294C7.88247 18.2987 7.50285 18.5179 7.13353 18.419C6.76421 18.32 6.54503 17.9404 6.64399 17.5711L7.53991 14.2275C7.63886 13.8581 8.01848 13.639 8.38781 13.7379C8.75713 13.8369 8.9763 14.2165 8.87734 14.5858L7.98143 17.9294Z" fill="currentColor"/>
<path d="M16.4895 9.81969C16.3905 10.189 16.0109 10.4082 15.6416 10.3092C15.2723 10.2103 15.0531 9.83064 15.152 9.46132L16.048 6.11773C16.1469 5.74841 16.5265 5.52924 16.8959 5.6282C17.2652 5.72716 17.4844 6.10677 17.3854 6.4761L16.4895 9.81969Z" fill="currentColor"/>
<path d="M19.5044 10.1461C19.8737 10.2451 20.0929 10.6247 19.9939 10.994C19.895 11.3634 19.5153 11.5825 19.146 11.4836L15.8024 10.5877C15.4331 10.4887 15.2139 10.1091 15.3129 9.73976C15.4118 9.37044 15.7915 9.15126 16.1608 9.25022L19.5044 10.1461Z" fill="currentColor"/>
</svg>
