<svg width="24" height="24" viewBox="0 0 24 24" fill="currentColor" xmlns="http://www.w3.org/2000/svg">
<path d="M4 12.5C4 13.3284 4.67157 14 5.5 14H18.5C19.3284 14 20 13.3284 20 12.5V12.5C20 11.6716 19.3284 11 18.5 11H5.5C4.67157 11 4 11.6716 4 12.5V12.5Z" fill="currentColor"/>
<path d="M5 16C5 16.5523 5.44772 17 6 17H18C18.5523 17 19 16.5523 19 16V16C19 15.4477 18.5523 15 18 15H6C5.44772 15 5 15.4477 5 16V16Z" fill="currentColor"/>
<path d="M6 18.5C6 18.7761 6.22386 19 6.5 19H17.5C17.7761 19 18 18.7761 18 18.5V18.5C18 18.2239 17.7761 18 17.5 18H6.5C6.22386 18 6 18.2239 6 18.5V18.5Z" fill="currentColor"/>
<path d="M20 5C21.1046 5 22 5.89543 22 7V8C22 9.10457 21.1046 10 20 10H4C2.89543 10 2 9.10457 2 8V7C2 5.89543 2.89543 5 4 5H20ZM4 6C3.44772 6 3 6.44772 3 7V8C3 8.55228 3.44772 9 4 9H20C20.5523 9 21 8.55228 21 8V7C21 6.44772 20.5523 6 20 6H4Z" fill="currentColor"/>
</svg>
