<svg width="24" height="24" viewBox="0 0 24 24" fill="currentColor" xmlns="http://www.w3.org/2000/svg">
<path d="M7 3C9.20914 3 11 4.79086 11 7H9C9 5.89543 8.10457 5 7 5C5.96435 5 5.113 5.78722 5.01074 6.7959L5 7L5 17L5.01074 17.2041C5.113 18.2128 5.96435 19 7 19C8.10457 19 9 18.1046 9 17H11C11 19.2091 9.20914 21 7 21C4.79086 21 3 19.2091 3 17L3 7C3 4.79086 4.79086 3 7 3ZM11 17H9L9 7H11L11 17Z" fill="currentColor"/>
<path d="M17 10C17.5523 10 18 10.4477 18 11L18 20C18 20.5523 17.5523 21 17 21C16.4477 21 16 20.5523 16 20L16 11C16 10.4477 16.4477 10 17 10Z" fill="currentColor"/>
<path d="M13.287 16.2911C13.6776 15.9006 14.3107 15.9006 14.7012 16.2911L17.7026 19.2925C18.0931 19.683 18.0931 20.3162 17.7026 20.7067C17.3121 21.0972 16.6789 21.0972 16.2884 20.7067L13.287 17.7053C12.8965 17.3148 12.8965 16.6816 13.287 16.2911Z" fill="currentColor"/>
<path d="M20.705 16.2948C21.0955 16.6854 21.0955 17.3185 20.705 17.7091L17.7091 20.705C17.3185 21.0955 16.6854 21.0955 16.2948 20.705C15.9043 20.3145 15.9043 19.6813 16.2948 19.2908L19.2908 16.2948C19.6813 15.9043 20.3145 15.9043 20.705 16.2948Z" fill="currentColor"/>
<path d="M17 14C16.4477 14 16 13.5523 16 13L16 4C16 3.44772 16.4477 3 17 3C17.5523 3 18 3.44772 18 4L18 13C18 13.5523 17.5523 14 17 14Z" fill="currentColor"/>
</svg>
