<svg width="24" height="24" viewBox="0 0 24 24" fill="currentColor" xmlns="http://www.w3.org/2000/svg">
<path d="M3 17.0001C3 14.791 4.79086 13.0001 7 13.0001V15.0001C5.89543 15.0001 5 15.8956 5 17.0001C5 18.0358 5.78722 18.8871 6.7959 18.9894L7 19.0001H17L17.2041 18.9894C18.2128 18.8871 19 18.0358 19 17.0001C19 15.8956 18.1046 15.0001 17 15.0001V13.0001C19.2091 13.0001 21 14.791 21 17.0001C21 19.2093 19.2091 21.0001 17 21.0001H7C4.79086 21.0001 3 19.2093 3 17.0001ZM17 13.0001V15.0001H7V13.0001H17Z" fill="currentColor"/>
<path d="M10 7.00012C10 6.44784 10.4477 6.00012 11 6.00012H20C20.5523 6.00012 21 6.44784 21 7.00012C21 7.55241 20.5523 8.00012 20 8.00012H11C10.4477 8.00012 10 7.55241 10 7.00012Z" fill="currentColor"/>
<path d="M14 7.00012C14 7.55241 13.5523 8.00012 13 8.00012L4 8.00012C3.44772 8.00012 3 7.55241 3 7.00012C3 6.44784 3.44772 6.00012 4 6.00012L13 6.00012C13.5523 6.00012 14 6.44784 14 7.00012Z" fill="currentColor"/>
<path d="M7.70696 3.29692C8.09748 3.68745 8.09748 4.32061 7.70696 4.71114L4.71162 7.70647C4.3211 8.09699 3.68793 8.09699 3.29741 7.70647C2.90689 7.31594 2.90689 6.68278 3.29741 6.29225L6.29274 3.29692C6.68327 2.9064 7.31643 2.9064 7.70696 3.29692Z" fill="currentColor"/>
<path d="M7.70906 10.709C7.31854 11.0996 6.68537 11.0996 6.29485 10.709L3.29872 7.7129C2.9082 7.32238 2.9082 6.68922 3.29872 6.29869C3.68924 5.90817 4.32241 5.90817 4.71293 6.29869L7.70906 9.29482C8.09958 9.68534 8.09958 10.3185 7.70906 10.709Z" fill="currentColor"/>
</svg>
