<svg width="24" height="24" viewBox="0 0 24 24" fill="currentColor" xmlns="http://www.w3.org/2000/svg">
<path d="M7 3C9.20914 3 11 4.79086 11 7H9C9 5.89543 8.10457 5 7 5C5.96435 5 5.113 5.78722 5.01074 6.7959L5 7L5 17L5.01074 17.2041C5.113 18.2128 5.96435 19 7 19C8.10457 19 9 18.1046 9 17H11C11 19.2091 9.20914 21 7 21C4.79086 21 3 19.2091 3 17L3 7C3 4.79086 4.79086 3 7 3ZM11 17H9L9 7H11L11 17Z" fill="currentColor"/>
<path d="M17 10C17.5523 10 18 10.4477 18 11L18 20C18 20.5523 17.5523 21 17 21C16.4477 21 16 20.5523 16 20L16 11C16 10.4477 16.4477 10 17 10Z" fill="currentColor"/>
<path d="M17 14C16.4477 14 16 13.5523 16 13L16 4C16 3.44772 16.4477 3 17 3C17.5523 3 18 3.44772 18 4L18 13C18 13.5523 17.5523 14 17 14Z" fill="currentColor"/>
<path d="M20.7032 7.70696C20.3127 8.09748 19.6795 8.09748 19.289 7.70696L16.2937 4.71162C15.9031 4.3211 15.9031 3.68793 16.2937 3.29741C16.6842 2.90689 17.3173 2.90689 17.7079 3.29741L20.7032 6.29274C21.0937 6.68327 21.0937 7.31643 20.7032 7.70696Z" fill="currentColor"/>
<path d="M13.2911 7.70906C12.9006 7.31854 12.9006 6.68537 13.2911 6.29485L16.2872 3.29872C16.6777 2.9082 17.3109 2.9082 17.7014 3.29872C18.092 3.68924 18.092 4.32241 17.7014 4.71293L14.7053 7.70906C14.3148 8.09958 13.6816 8.09958 13.2911 7.70906Z" fill="currentColor"/>
</svg>
