<svg width="24" height="24" viewBox="0 0 24 24" fill="currentColor" xmlns="http://www.w3.org/2000/svg">
<path d="M20.5903 17.0001C20.5903 14.791 18.7995 13.0001 16.5903 13.0001V15.0001C17.6949 15.0001 18.5903 15.8956 18.5903 17.0001C18.5903 18.0358 17.8031 18.8871 16.7944 18.9894L16.5903 19.0001H6.59033L6.38623 18.9894C5.37755 18.8871 4.59033 18.0358 4.59033 17.0001C4.59033 15.8956 5.48576 15.0001 6.59033 15.0001V13.0001C4.38119 13.0001 2.59033 14.791 2.59033 17.0001C2.59033 19.2093 4.38119 21.0001 6.59033 21.0001H16.5903C18.7995 21.0001 20.5903 19.2093 20.5903 17.0001ZM6.59033 13.0001V15.0001H16.5903V13.0001H6.59033Z" fill="currentColor"/>
<path d="M13.5903 7.00012C13.5903 6.44784 13.1426 6.00012 12.5903 6.00012H3.59033C3.03805 6.00012 2.59033 6.44784 2.59033 7.00012C2.59033 7.55241 3.03805 8.00012 3.59033 8.00012H12.5903C13.1426 8.00012 13.5903 7.55241 13.5903 7.00012Z" fill="currentColor"/>
<path d="M9.59033 7.00012C9.59033 7.55241 10.038 8.00012 10.5903 8.00012L19.5903 8.00012C20.1426 8.00012 20.5903 7.55241 20.5903 7.00012C20.5903 6.44784 20.1426 6.00012 19.5903 6.00012L10.5903 6.00012C10.038 6.00012 9.59033 6.44784 9.59033 7.00012Z" fill="currentColor"/>
<path d="M15.8834 3.29692C15.4929 3.68745 15.4929 4.32061 15.8834 4.71114L18.8787 7.70647C19.2692 8.09699 19.9024 8.09699 20.2929 7.70647C20.6834 7.31594 20.6834 6.68278 20.2929 6.29225L17.2976 3.29692C16.9071 2.9064 16.2739 2.9064 15.8834 3.29692Z" fill="currentColor"/>
<path d="M15.8813 10.709C16.2718 11.0996 16.905 11.0996 17.2955 10.709L20.2916 7.7129C20.6821 7.32238 20.6821 6.68922 20.2916 6.29869C19.9011 5.90817 19.2679 5.90817 18.8774 6.29869L15.8813 9.29482C15.4907 9.68534 15.4907 10.3185 15.8813 10.709Z" fill="currentColor"/>
</svg>
