<svg width="24" height="24" viewBox="0 0 24 24" fill="currentColor" xmlns="http://www.w3.org/2000/svg">
<path d="M20 14C21.1046 14 22 14.8954 22 16V17C22 18.1046 21.1046 19 20 19H4C2.89543 19 2 18.1046 2 17V16C2 14.8954 2.89543 14 4 14H20ZM4 15C3.44772 15 3 15.4477 3 16V17C3 17.5523 3.44772 18 4 18H20C20.5523 18 21 17.5523 21 17V16C21 15.4477 20.5523 15 20 15H4Z" fill="currentColor"/>
<path d="M4 11.5C4 10.6716 4.67157 10 5.5 10H18.5C19.3284 10 20 10.6716 20 11.5V11.5C20 12.3284 19.3284 13 18.5 13H5.5C4.67157 13 4 12.3284 4 11.5V11.5Z" fill="currentColor"/>
<path d="M5 8C5 7.44772 5.44772 7 6 7H18C18.5523 7 19 7.44772 19 8V8C19 8.55228 18.5523 9 18 9H6C5.44772 9 5 8.55228 5 8V8Z" fill="currentColor"/>
<path d="M6 5.5C6 5.22386 6.22386 5 6.5 5H17.5C17.7761 5 18 5.22386 18 5.5V5.5C18 5.77614 17.7761 6 17.5 6H6.5C6.22386 6 6 5.77614 6 5.5V5.5Z" fill="currentColor"/>
</svg>
