<svg width="24" height="24" viewBox="0 0 24 24" fill="currentColor" xmlns="http://www.w3.org/2000/svg">
<path d="M11 12C11 11.4477 11.4477 11 12 11H18C18.5523 11 19 11.4477 19 12C19 12.5523 18.5523 13 18 13H12C11.4477 13 11 12.5523 11 12Z" fill="currentColor"/>
<path d="M2 8C2 7.44772 2.44772 7 3 7H7C7.55228 7 8 7.44772 8 8C8 8.55228 7.55228 9 7 9H3C2.44772 9 2 8.55228 2 8Z" fill="currentColor"/>
<path d="M3 12C3 11.4477 3.44772 11 4 11H8C8.55228 11 9 11.4477 9 12C9 12.5523 8.55228 13 8 13H4C3.44772 13 3 12.5523 3 12Z" fill="currentColor"/>
<path d="M4 16C4 15.4477 4.44772 15 5 15H9C9.55228 15 10 15.4477 10 16C10 16.5523 9.55228 17 9 17H5C4.44772 17 4 16.5523 4 16Z" fill="currentColor"/>
<path d="M12 2C17.5228 2 22 6.47715 22 12C22 17.5228 17.5228 22 12 22C9.20079 22 6.67057 20.8496 4.85547 18.9961C4.90337 18.9984 4.95154 19 5 19H8.12793C9.27516 19.6365 10.5948 20 12 20C16.4183 20 20 16.4183 20 12C20 7.58172 16.4183 4 12 4C10.4979 4 9.09243 4.41373 7.8916 5.13379C7.61001 5.04629 7.31038 5 7 5H4.86035C6.67521 3.14916 9.20306 2 12 2Z" fill="currentColor"/>
<path d="M12 13C11.4477 13 11 12.5523 11 12V6C11 5.44772 11.4477 5 12 5C12.5523 5 13 5.44772 13 6V12C13 12.5523 12.5523 13 12 13Z" fill="currentColor"/>
</svg>
