<svg width="24" height="24" viewBox="0 0 24 24" fill="currentColor" xmlns="http://www.w3.org/2000/svg">
<path d="M11.0489 4.92707C11.3483 4.00576 12.6517 4.00576 12.951 4.92707L14.0206 8.21886C14.1545 8.63089 14.5384 8.90985 14.9717 8.90985H18.4329C19.4016 8.90985 19.8044 10.1495 19.0207 10.7189L16.2205 12.7533C15.87 13.008 15.7233 13.4593 15.8572 13.8713L16.9268 17.1631C17.2261 18.0844 16.1717 18.8506 15.3879 18.2812L12.5878 16.2467C12.2373 15.9921 11.7627 15.9921 11.4122 16.2467L8.61203 18.2812C7.82832 18.8506 6.77384 18.0844 7.07319 17.1631L8.14276 13.8713C8.27663 13.4593 8.12997 13.008 7.77949 12.7533L4.97932 10.7189C4.1956 10.1495 4.59838 8.90985 5.5671 8.90985H9.0283C9.46153 8.90985 9.84548 8.63089 9.97936 8.21886L11.0489 4.92707Z" fill="currentColor"/>
</svg>
