<svg width="24" height="24" viewBox="0 0 24 24" fill="currentColor" xmlns="http://www.w3.org/2000/svg">
<path d="M10 12C10 11.4477 10.4477 11 11 11H20C20.5523 11 21 11.4477 21 12C21 12.5523 20.5523 13 20 13H11C10.4477 13 10 12.5523 10 12Z" fill="currentColor"/>
<path d="M16.2911 15.7127C15.9006 15.3222 15.9006 14.689 16.2911 14.2985L19.2925 11.2971C19.683 10.9066 20.3162 10.9066 20.7067 11.2971C21.0972 11.6877 21.0972 12.3208 20.7067 12.7113L17.7053 15.7127C17.3148 16.1032 16.6816 16.1032 16.2911 15.7127Z" fill="currentColor"/>
<path d="M16.2948 8.295C16.6854 7.90447 17.3185 7.90447 17.7091 8.295L20.705 11.2909C21.0955 11.6815 21.0955 12.3146 20.705 12.7052C20.3145 13.0957 19.6813 13.0957 19.2908 12.7052L16.2948 9.70921C15.9043 9.31869 15.9043 8.68552 16.2948 8.295Z" fill="currentColor"/>
<path d="M14 12C14 12.5523 13.5523 13 13 13L4 13C3.44772 13 3 12.5523 3 12C3 11.4477 3.44772 11 4 11L13 11C13.5523 11 14 11.4477 14 12Z" fill="currentColor"/>
<path d="M7.70696 8.2968C8.09748 8.68732 8.09748 9.32049 7.70696 9.71101L4.71162 12.7063C4.3211 13.0969 3.68793 13.0969 3.29741 12.7063C2.90689 12.3158 2.90689 11.6827 3.29741 11.2921L6.29274 8.2968C6.68327 7.90628 7.31643 7.90628 7.70696 8.2968Z" fill="currentColor"/>
<path d="M7.70906 15.7089C7.31854 16.0994 6.68537 16.0994 6.29485 15.7089L3.29872 12.7128C2.9082 12.3223 2.9082 11.6891 3.29872 11.2986C3.68924 10.908 4.32241 10.908 4.71293 11.2986L7.70906 14.2947C8.09958 14.6852 8.09958 15.3184 7.70906 15.7089Z" fill="currentColor"/>
</svg>
