<svg width="24" height="24" viewBox="0 0 24 24" fill="currentColor" xmlns="http://www.w3.org/2000/svg">
<path d="M16 12C16 14.2091 14.2091 16 12 16C9.79086 16 8 14.2091 8 12C8 9.79086 9.79086 8 12 8C14.2091 8 16 9.79086 16 12Z" fill="currentColor"/>
<path d="M7.05239 7.05234C6.66069 6.66063 6.01977 6.65729 5.68011 7.0949C4.59687 8.49054 4 10.2145 4 11.9999C4 13.7854 4.59687 15.5094 5.68011 16.905C6.01977 17.3426 6.66069 17.3393 7.05239 16.9476C7.4441 16.5558 7.43585 15.9246 7.11486 15.4731C6.39833 14.4653 6.00605 13.2529 6.00605 11.9999C6.00605 10.747 6.39833 9.53457 7.11486 8.52675C7.43585 8.07527 7.4441 7.44405 7.05239 7.05234Z" fill="currentColor"/>
<path d="M16.9536 16.9536C17.342 17.342 17.9774 17.3453 18.3147 16.9118C19.4012 15.5149 20 13.7883 20 12C20 10.2117 19.4012 8.48505 18.3147 7.08823C17.9774 6.65469 17.342 6.658 16.9536 7.04638C16.5652 7.43476 16.5733 8.06066 16.8924 8.50771C17.6152 9.52021 18.011 10.7397 18.011 12C18.011 13.2603 17.6152 14.4798 16.8924 15.4923C16.5733 15.9393 16.5652 16.5652 16.9536 16.9536Z" fill="currentColor"/>
</svg>
