<svg width="24" height="24" viewBox="0 0 24 24" fill="currentColor" xmlns="http://www.w3.org/2000/svg">
<path d="M12.0002 10C12.5525 10 13.0002 10.4477 13.0002 11L13.0002 20C13.0002 20.5523 12.5525 21 12.0002 21C11.448 21 11.0002 20.5523 11.0002 20L11.0002 11C11.0002 10.4477 11.448 10 12.0002 10Z" fill="currentColor"/>
<path d="M8.28728 16.2911C8.6778 15.9006 9.31097 15.9006 9.70149 16.2911L12.7029 19.2925C13.0934 19.683 13.0934 20.3162 12.7029 20.7067C12.3123 21.0972 11.6792 21.0972 11.2887 20.7067L8.28728 17.7053C7.89675 17.3148 7.89675 16.6816 8.28728 16.2911Z" fill="currentColor"/>
<path d="M15.7052 16.2948C16.0958 16.6854 16.0958 17.3185 15.7052 17.7091L12.7093 20.705C12.3188 21.0955 11.6856 21.0955 11.2951 20.705C10.9046 20.3145 10.9046 19.6813 11.2951 19.2908L14.291 16.2948C14.6816 15.9043 15.3147 15.9043 15.7052 16.2948Z" fill="currentColor"/>
<path d="M12.0002 14C11.448 14 11.0002 13.5523 11.0002 13L11.0002 4C11.0002 3.44772 11.448 3 12.0002 3C12.5525 3 13.0002 3.44772 13.0002 4L13.0002 13C13.0002 13.5523 12.5525 14 12.0002 14Z" fill="currentColor"/>
<path d="M15.7034 7.70696C15.3129 8.09748 14.6798 8.09748 14.2892 7.70696L11.2939 4.71162C10.9034 4.3211 10.9034 3.68793 11.2939 3.29741C11.6844 2.90689 12.3176 2.90689 12.7081 3.29741L15.7034 6.29274C16.094 6.68327 16.094 7.31643 15.7034 7.70696Z" fill="currentColor"/>
<path d="M8.29134 7.70906C7.90081 7.31854 7.90081 6.68537 8.29134 6.29485L11.2875 3.29872C11.678 2.9082 12.3112 2.9082 12.7017 3.29872C13.0922 3.68924 13.0922 4.32241 12.7017 4.71293L9.70555 7.70906C9.31502 8.09958 8.68186 8.09958 8.29134 7.70906Z" fill="currentColor"/>
</svg>
