<svg width="24" height="24" viewBox="0 0 24 24" fill="currentColor" xmlns="http://www.w3.org/2000/svg">
<path d="M19 5C20.6569 5 22 6.34315 22 8V14C22 15.6569 20.6569 17 19 17H5C3.34315 17 2 15.6569 2 14V8C2 6.34315 3.34315 5 5 5H19ZM5 13C4.44772 13 4 13.4477 4 14C4 14.5523 4.44772 15 5 15C5.55228 15 6 14.5523 6 14C6 13.4477 5.55228 13 5 13ZM8 13C7.44772 13 7 13.4477 7 14C7 14.5523 7.44772 15 8 15H12C12.5523 15 13 14.5523 13 14C13 13.4477 12.5523 13 12 13H8ZM15 13C14.4477 13 14 13.4477 14 14C14 14.5523 14.4477 15 15 15H19C19.5523 15 20 14.5523 20 14C20 13.4477 19.5523 13 19 13H15ZM5 10C4.44772 10 4 10.4477 4 11C4 11.5523 4.44772 12 5 12H14C14.5523 12 15 11.5523 15 11C15 10.4477 14.5523 10 14 10H5ZM17 10C16.4477 10 16 10.4477 16 11C16 11.5523 16.4477 12 17 12H19C19.5523 12 20 11.5523 20 11C20 10.4477 19.5523 10 19 10H17Z" fill="currentColor"/>
<path d="M11.4453 18.6301C11.7812 18.8541 12.2188 18.8541 12.5547 18.6301L15 16.9999H9L11.4453 18.6301Z" fill="currentColor"/>
</svg>
