<svg width="24" height="24" viewBox="0 0 24 24" fill="currentColor" xmlns="http://www.w3.org/2000/svg">
<path d="M12 6C15.3137 6 18 8.68629 18 12C18 15.3137 15.3137 18 12 18C8.68629 18 6 15.3137 6 12C6 8.68629 8.68629 6 12 6ZM12 8C9.79086 8 8 9.79086 8 12C8 14.2091 9.79086 16 12 16C14.2091 16 16 14.2091 16 12C16 9.79086 14.2091 8 12 8Z" fill="currentColor"/>
<path d="M12.9912 15.875C12.9963 15.916 13 15.9576 13 16V21C13 21.5523 12.5523 22 12 22C11.4477 22 11 21.5523 11 21V16C11 15.9577 11.0027 15.916 11.0078 15.875C11.3251 15.956 11.6574 16 12 16C12.3422 16 12.6742 15.9559 12.9912 15.875ZM8.55859 14.0391C8.90097 14.6157 9.38438 15.098 9.96094 15.4404C9.9355 15.4732 9.90898 15.5061 9.87891 15.5361L6.34375 19.0713C5.95323 19.4618 5.31924 19.4618 4.92871 19.0713C4.53846 18.6809 4.53856 18.0477 4.92871 17.6572L8.46484 14.1211C8.49463 14.0913 8.5262 14.0643 8.55859 14.0391ZM15.4404 14.0391C15.473 14.0644 15.5052 14.0911 15.5352 14.1211L19.0713 17.6572C19.4614 18.0478 19.4616 18.6809 19.0713 19.0713C18.6808 19.4618 18.0468 19.4618 17.6562 19.0713L14.1211 15.5352C14.091 15.505 14.0635 15.4732 14.0381 15.4404C14.6148 15.098 15.0979 14.6157 15.4404 14.0391ZM8 11C8.042 11 8.08338 11.0028 8.12402 11.0078C8.04305 11.3251 8 11.6575 8 12C8 12.3422 8.0432 12.6742 8.12402 12.9912C8.08334 12.9962 8.04205 13 8 13H3C2.44772 13 2 12.5523 2 12C2 11.4477 2.44772 11 3 11H8ZM21 11C21.5523 11 22 11.4477 22 12C22 12.5523 21.5523 13 21 13H16C15.9576 13 15.916 12.9963 15.875 12.9912C15.9559 12.6742 16 12.3422 16 12C16 11.6574 15.956 11.3251 15.875 11.0078C15.916 11.0027 15.9577 11 16 11H21ZM4.92871 4.92871C5.31917 4.5383 5.95225 4.5384 6.34277 4.92871L9.87891 8.46484C9.90867 8.49464 9.93572 8.52619 9.96094 8.55859C9.38419 8.90106 8.90106 9.38419 8.55859 9.96094C8.52604 9.9356 8.49379 9.90883 8.46387 9.87891L4.92871 6.34277C4.53838 5.95223 4.53825 5.31917 4.92871 4.92871ZM17.6572 4.92871C18.0477 4.53852 18.6808 4.53845 19.0713 4.92871C19.4618 5.31924 19.4618 5.95323 19.0713 6.34375L15.5361 9.87891C15.506 9.90899 15.4732 9.93549 15.4404 9.96094C15.098 9.38438 14.6157 8.90097 14.0391 8.55859C14.0643 8.5262 14.0913 8.49463 14.1211 8.46484L17.6572 4.92871ZM12 2C12.5523 2 13 2.44772 13 3V8C13 8.04205 12.9962 8.08334 12.9912 8.12402C12.6742 8.0432 12.3422 8 12 8C11.6575 8 11.3251 8.04305 11.0078 8.12402C11.0028 8.08338 11 8.042 11 8V3C11 2.44772 11.4477 2 12 2Z" fill="currentColor"/>
</svg>
