<svg width="24" height="24" viewBox="0 0 24 24" fill="currentColor" xmlns="http://www.w3.org/2000/svg">
<path d="M16.0001 6.02075C15.9886 5.46868 16.4268 5.01177 16.9788 5.00011C17.531 4.9885 17.9879 5.42668 17.9995 5.97882L17.1221 5.9976L17.9999 5.98013L17.9999 5.98668C18 5.99002 18.0003 5.99432 18.0004 5.99891C18.0004 6.00825 18 6.02039 17.9999 6.03472C17.9998 6.06337 17.9989 6.10189 17.9973 6.14915C17.9941 6.24358 17.9874 6.37435 17.9715 6.5326C17.9398 6.84762 17.8729 7.28228 17.7304 7.76811C17.4473 8.73319 16.8426 9.97267 15.5547 10.8314C12.5546 12.8313 12.5548 12.8322 9.55483 14.8323C8.78822 15.3434 8.39232 16.1027 8.18916 16.7949C8.0886 17.1377 8.04019 17.4471 8.01797 17.668C8.00695 17.7775 8.00278 17.8635 8.00093 17.9182C8.00002 17.9454 7.99968 17.9649 7.99962 17.9754C7.99962 17.9767 8.00006 17.9779 8.00006 17.9789C8.01158 18.5309 7.57322 18.9877 7.02134 18.9996C6.50359 19.0104 6.06927 18.6258 6.00769 18.1226L5.99983 18.0204L6.00026 18.0195L6.00026 18.013C6.00021 18.0096 5.99987 18.0053 5.99983 18.0007C5.99975 17.9914 6.00019 17.9793 6.00026 17.9649C6.00041 17.9363 6.00042 17.8973 6.00201 17.8501C6.0052 17.7557 6.01275 17.6251 6.02865 17.4671C6.06037 17.152 6.12719 16.7174 6.26973 16.2315C6.55296 15.2665 7.15761 14.027 8.44553 13.1683C11.4455 11.1683 11.4453 11.1674 14.4454 9.1674C15.2121 8.65624 15.608 7.89695 15.811 7.20473C15.9115 6.8622 15.9596 6.55343 15.9818 6.33258C15.9928 6.22312 15.997 6.13708 15.9988 6.08233C15.9997 6.0553 16.0001 6.03572 16.0001 6.02512C16.0001 6.02338 16.0014 6.02156 16.0014 6.02031L16.0001 6.02075Z" fill="currentColor"/>
<path d="M8.00013 6.02075C8.01166 5.46868 7.57347 5.01177 7.02141 5.00011C6.46926 4.9885 6.01239 5.42668 6.00077 5.97882L6.87816 5.9976L6.00033 5.98013L6.00033 5.98668C6.00028 5.99002 5.99993 5.99432 5.99989 5.99891C5.99982 6.00825 6.00026 6.02039 6.00033 6.03472C6.00047 6.06337 6.00137 6.10189 6.00295 6.14915C6.00612 6.24358 6.01282 6.37435 6.02872 6.5326C6.0604 6.84762 6.1273 7.28228 6.26979 7.76811C6.55294 8.73319 7.1576 9.97267 8.44559 10.8314C11.4457 12.8313 11.4454 12.8322 14.4454 14.8323C15.212 15.3434 15.6079 16.1027 15.8111 16.7949C15.9116 17.1377 15.96 17.4471 15.9823 17.668C15.9933 17.7775 15.9975 17.8635 15.9993 17.9182C16.0002 17.9454 16.0006 17.9649 16.0006 17.9754C16.0006 17.9767 16.0002 17.9779 16.0002 17.9789C15.9887 18.5309 16.427 18.9877 16.9789 18.9996C17.4967 19.0104 17.931 18.6258 17.9926 18.1226L18.0004 18.0204L18 18.0195L18 18.013C18 18.0096 18.0004 18.0053 18.0004 18.0007C18.0005 17.9914 18.0001 17.9793 18 17.9649C17.9998 17.9363 17.9998 17.8973 17.9982 17.8501C17.995 17.7557 17.9875 17.6251 17.9716 17.4671C17.9399 17.152 17.8731 16.7174 17.7305 16.2315C17.4473 15.2665 16.8426 14.027 15.5547 13.1683C12.5547 11.1683 12.555 11.1674 9.55489 9.1674C8.78818 8.65624 8.39228 7.89695 8.18923 7.20473C8.08877 6.8622 8.04068 6.55343 8.01847 6.33258C8.00747 6.22312 8.00328 6.13708 8.00144 6.08233C8.00053 6.0553 8.00018 6.03572 8.00013 6.02512C8.00012 6.02338 7.99882 6.02156 7.99882 6.02031L8.00013 6.02075Z" fill="currentColor"/>
<path d="M4 5C4 4.44772 4.44772 4 5 4H19C19.5523 4 20 4.44772 20 5C20 5.55228 19.5523 6 19 6H5C4.44772 6 4 5.55228 4 5Z" fill="currentColor"/>
<path d="M4 19C4 18.4477 4.44772 18 5 18H19C19.5523 18 20 18.4477 20 19C20 19.5523 19.5523 20 19 20H5C4.44772 20 4 19.5523 4 19Z" fill="currentColor"/>
</svg>
