<svg width="24" height="24" viewBox="0 0 24 24" fill="currentColor" xmlns="http://www.w3.org/2000/svg">
<path d="M16 16C18.2091 16 20 14.2091 20 12C20 9.79086 18.2091 8 16 8L8 8C5.79086 8 4 9.79086 4 12C4 14.14 5.68056 15.8879 7.79395 15.9951L8 16H16ZM8 18C4.68629 18 2 15.3137 2 12C2 8.68629 4.68629 6 8 6L16 6C19.3137 6 22 8.68629 22 12C22 15.3137 19.3137 18 16 18H8Z" fill="currentColor"/>
<path d="M16 16C18.2091 16 20 14.2091 20 12C20 9.79086 18.2091 8 16 8C13.7909 8 12 9.79086 12 12C12 14.2091 13.7909 16 16 16ZM16 18C12.6863 18 10 15.3137 10 12C10 8.68629 12.6863 6 16 6C19.3137 6 22 8.68629 22 12C22 15.3137 19.3137 18 16 18Z" fill="currentColor"/>
</svg>
