<svg width="24" height="24" viewBox="0 0 24 24" fill="currentColor" xmlns="http://www.w3.org/2000/svg">
<path d="M12 2C10.0222 2 8.08879 2.58649 6.4443 3.6853C4.79981 4.78412 3.51809 6.3459 2.76121 8.17316C2.00433 10.0004 1.8063 12.0111 2.19215 13.9509C2.578 15.8907 3.53041 17.6725 4.92894 19.0711C6.32746 20.4696 8.10929 21.422 10.0491 21.8078C11.9889 22.1937 13.9996 21.9957 15.8268 21.2388C17.6541 20.4819 19.2159 19.2002 20.3147 17.5557C21.4135 15.9112 22 13.9778 22 12H19.9974C19.9974 13.5817 19.5284 15.128 18.6496 16.4431C17.7708 17.7583 16.5218 18.7833 15.0605 19.3886C13.5991 19.9939 11.9911 20.1523 10.4398 19.8437C8.88844 19.5352 7.46344 18.7735 6.34498 17.655C5.22653 16.5366 4.46485 15.1116 4.15627 13.5602C3.84768 12.0089 4.00606 10.4009 4.61136 8.93952C5.21667 7.47819 6.24172 6.22917 7.55688 5.3504C8.87205 4.47163 10.4183 4.00259 12 4.00259V2Z" fill="currentColor"/>
<path d="M5.98071 15.5733C6.54924 16.531 7.33808 17.3392 8.28171 17.9308C9.22534 18.5224 10.2965 18.8803 11.4062 18.9748C12.516 19.0693 13.6322 18.8976 14.6623 18.474C15.6923 18.0504 16.6064 17.3872 17.3287 16.5393C18.0509 15.6915 18.5604 14.6836 18.8149 13.5993C19.0693 12.515 19.0614 11.3857 18.7917 10.3051C18.522 9.22446 17.9984 8.2238 17.2643 7.38622C16.5302 6.54864 15.6068 5.89831 14.5709 5.48926L13.8321 7.36043C14.5703 7.65192 15.2282 8.11535 15.7514 8.71221C16.2745 9.30908 16.6476 10.0221 16.8398 10.7922C17.032 11.5622 17.0376 12.367 16.8563 13.1397C16.675 13.9124 16.3119 14.6306 15.7972 15.2348C15.2826 15.8389 14.6312 16.3116 13.8972 16.6134C13.1631 16.9153 12.3677 17.0376 11.5769 16.9703C10.7861 16.903 10.0228 16.6479 9.35033 16.2263C8.6779 15.8048 8.11577 15.2288 7.71063 14.5464L5.98071 15.5733Z" fill="currentColor"/>
</svg>
