<svg width="24" height="24" viewBox="0 0 24 24" fill="currentColor" xmlns="http://www.w3.org/2000/svg">
<path d="M12 14C16.9706 14 21 15.7909 21 18C21 20.2091 16.9706 22 12 22V20C14.2724 20 16.2336 19.5868 17.5518 19.001C18.2133 18.7069 18.6246 18.408 18.8438 18.1777C18.9209 18.0967 18.9608 18.0371 18.9824 18C18.9608 17.9629 18.9209 17.9033 18.8438 17.8223C18.6246 17.592 18.2133 17.2931 17.5518 16.999C16.2336 16.4132 14.2724 16 12 16C9.72757 16 7.76636 16.4132 6.44824 16.999C5.78666 17.2931 5.37536 17.592 5.15625 17.8223C5.07885 17.9036 5.03813 17.9629 5.0166 18C5.03813 18.0371 5.07885 18.0964 5.15625 18.1777C5.37536 18.408 5.78666 18.7069 6.44824 19.001C7.76636 19.5868 9.72757 20 12 20V22C7.02944 22 3 20.2091 3 18C3 15.7909 7.02944 14 12 14Z" fill="currentColor"/>
<path d="M12 8C16.9706 8 21 9.79086 21 12C21 14.2091 16.9706 16 12 16V14C14.2724 14 16.2336 13.5868 17.5518 13.001C18.2133 12.7069 18.6246 12.408 18.8438 12.1777C18.9209 12.0967 18.9608 12.0371 18.9824 12C18.9608 11.9629 18.9209 11.9033 18.8438 11.8223C18.6246 11.592 18.2133 11.2931 17.5518 10.999C16.2336 10.4132 14.2724 10 12 10C9.72757 10 7.76636 10.4132 6.44824 10.999C5.78666 11.2931 5.37536 11.592 5.15625 11.8223C5.07885 11.9036 5.03813 11.9629 5.0166 12C5.03813 12.0371 5.07885 12.0964 5.15625 12.1777C5.37536 12.408 5.78666 12.7069 6.44824 13.001C7.76636 13.5868 9.72757 14 12 14V16C7.02944 16 3 14.2091 3 12C3 9.79086 7.02944 8 12 8Z" fill="currentColor"/>
<path d="M12 2C16.9706 2 21 3.79086 21 6C21 8.20914 16.9706 10 12 10V8C14.2724 8 16.2336 7.58681 17.5518 7.00098C18.2133 6.70694 18.6246 6.40797 18.8438 6.17773C18.9209 6.0967 18.9608 6.0371 18.9824 6C18.9608 5.9629 18.9209 5.9033 18.8438 5.82227C18.6246 5.59203 18.2133 5.29306 17.5518 4.99902C16.2336 4.41319 14.2724 4 12 4C9.72757 4 7.76636 4.41319 6.44824 4.99902C5.78666 5.29306 5.37536 5.59203 5.15625 5.82227C5.07885 5.90361 5.03813 5.96293 5.0166 6C5.03813 6.03707 5.07885 6.09639 5.15625 6.17773C5.37536 6.40797 5.78666 6.70694 6.44824 7.00098C7.76636 7.58681 9.72757 8 12 8V10C7.02944 10 3 8.20914 3 6C3 3.79086 7.02944 2 12 2Z" fill="currentColor"/>
<path d="M19 6H21V18H19V6Z" fill="currentColor"/>
<path d="M3 6H5V18H3V6Z" fill="currentColor"/>
</svg>
