<svg width="24" height="24" viewBox="0 0 24 24" fill="currentColor" xmlns="http://www.w3.org/2000/svg">
<path d="M10 12C10 10.8954 10.8954 10 12 10C13.1046 10 14 10.8954 14 12C14 13.1046 13.1046 14 12 14C10.8954 14 10 13.1046 10 12Z" fill="currentColor"/>
<path d="M15 12C15 11.4477 15.4477 11 16 11H20C20.5523 11 21 11.4477 21 12C21 12.5523 20.5523 13 20 13H16C15.4477 13 15 12.5523 15 12Z" fill="currentColor"/>
<path d="M3 12C3 11.4477 3.44772 11 4 11H8C8.55228 11 9 11.4477 9 12C9 12.5523 8.55228 13 8 13H4C3.44772 13 3 12.5523 3 12Z" fill="currentColor"/>
<path d="M12 9C11.4477 9 11 8.55228 11 8V4C11 3.44772 11.4477 3 12 3C12.5523 3 13 3.44772 13 4V8C13 8.55228 12.5523 9 12 9Z" fill="currentColor"/>
<path d="M12 21C11.4477 21 11 20.5523 11 20V16C11 15.4477 11.4477 15 12 15C12.5523 15 13 15.4477 13 16V20C13 20.5523 12.5523 21 12 21Z" fill="currentColor"/>
<path d="M17 12C17 9.23858 14.7614 7 12 7C9.23859 7.00001 7.00001 9.23859 7 12C7 14.7614 9.23858 17 12 17V19C8.13401 19 5 15.866 5 12C5.00001 8.13401 8.13401 5.00001 12 5C15.866 5 19 8.13401 19 12C19 15.866 15.866 19 12 19V17C14.7614 17 17 14.7614 17 12Z" fill="currentColor"/>
</svg>
