<svg width="24" height="24" viewBox="0 0 24 24" fill="currentColor" xmlns="http://www.w3.org/2000/svg">
<path d="M12 2C14.2091 2 16 3.79086 16 6V11C16 11.1697 15.9883 11.3368 15.9678 11.501C17.2134 12.6004 18 14.2079 18 16C18 19.3137 15.3137 22 12 22C8.68629 22 6 19.3137 6 16C6 14.2082 6.7859 12.6004 8.03125 11.501C8.01074 11.3369 8 11.1697 8 11V6C8 3.79086 9.79086 2 12 2ZM12 4C10.8954 4 10 4.89543 10 6V12.5361C8.80464 13.2278 8 14.5196 8 16C8 18.2091 9.79086 20 12 20C14.2091 20 16 18.2091 16 16C16 14.5196 15.1954 13.2278 14 12.5361V6C14 4.89543 13.1046 4 12 4Z" fill="currentColor"/>
<path d="M15 16C15 17.6569 13.6569 19 12 19C10.3431 19 9 17.6569 9 16C9 14.3431 10.3431 13 12 13C13.6569 13 15 14.3431 15 16Z" fill="currentColor"/>
<path d="M11 12C11 11.4477 11.4477 11 12 11V11C12.5523 11 13 11.4477 13 12V13C13 13.5523 12.5523 14 12 14V14C11.4477 14 11 13.5523 11 13V12Z" fill="currentColor"/>
</svg>
