<svg width="24" height="24" viewBox="0 0 24 24" fill="currentColor" xmlns="http://www.w3.org/2000/svg">
<path d="M8 17.5C8 16.6716 8.67157 16 9.5 16H14.5C15.3284 16 16 16.6716 16 17.5C16 18.3284 15.3284 19 14.5 19H9.5C8.67157 19 8 18.3284 8 17.5Z" fill="currentColor"/>
<path d="M4.31798 12.682C3.7322 12.0962 3.7322 11.1465 4.31798 10.5607L8.56062 6.31804C9.14641 5.73225 10.0962 5.73225 10.6819 6.31804C11.2677 6.90382 11.2677 7.85357 10.6819 8.43936L6.4393 12.682C5.85352 13.2678 4.90377 13.2678 4.31798 12.682Z" fill="currentColor"/>
<path d="M4.31825 6.31798C4.90403 5.7322 5.85378 5.7322 6.43957 6.31798L10.6822 10.5606C11.268 11.1464 11.268 12.0962 10.6822 12.6819C10.0964 13.2677 9.14667 13.2677 8.56089 12.6819L4.31825 8.4393C3.73246 7.85352 3.73246 6.90377 4.31825 6.31798Z" fill="currentColor"/>
<path d="M13.318 12.682C12.7322 12.0962 12.7322 11.1465 13.318 10.5607L17.5606 6.31804C18.1464 5.73225 19.0962 5.73225 19.6819 6.31804C20.2677 6.90382 20.2677 7.85357 19.6819 8.43936L15.4393 12.682C14.8535 13.2678 13.9038 13.2678 13.318 12.682Z" fill="currentColor"/>
<path d="M13.3182 6.31798C13.904 5.7322 14.8538 5.7322 15.4396 6.31798L19.6822 10.5606C20.268 11.1464 20.268 12.0962 19.6822 12.6819C19.0964 13.2677 18.1467 13.2677 17.5609 12.6819L13.3182 8.4393C12.7325 7.85352 12.7325 6.90377 13.3182 6.31798Z" fill="currentColor"/>
</svg>
