<svg width="24" height="24" viewBox="0 0 24 24" fill="currentColor" xmlns="http://www.w3.org/2000/svg">
<path d="M13 15.5C13 14.6716 13.6716 14 14.5 14H18.5C19.3284 14 20 14.6716 20 15.5C20 16.3284 19.3284 17 18.5 17H14.5C13.6716 17 13 16.3284 13 15.5Z" fill="currentColor"/>
<path d="M7.27395 16.0741C6.68813 16.6597 5.73844 16.6592 5.15274 16.0735C4.56705 15.4877 4.56672 14.5376 5.15249 13.9518L8.09239 11.0142L5.153 8.07342C4.56733 7.48775 4.56686 6.53847 5.15231 5.95265C5.73807 5.36686 6.68815 5.36665 7.27395 5.9524L11.2745 9.95234C11.5557 10.2336 11.7137 10.6151 11.7138 11.0128C11.7138 11.4106 11.5552 11.7922 11.2739 12.0735L7.27395 16.0741Z" fill="currentColor"/>
</svg>
