<svg width="24" height="24" viewBox="0 0 24 24" fill="currentColor" xmlns="http://www.w3.org/2000/svg">
<path d="M18 3C19.1046 3 20 3.89543 20 5V19C20 20.1046 19.1046 21 18 21H6C4.89543 21 4 20.1046 4 19V5C4 3.89543 4.89543 3 6 3H18ZM7 17C6.44772 17 6 17.4477 6 18C6 18.5523 6.44772 19 7 19H17C17.5523 19 18 18.5523 18 18C18 17.4477 17.5523 17 17 17H7ZM7 13C6.44772 13 6 13.4477 6 14C6 14.5523 6.44772 15 7 15H17C17.5523 15 18 14.5523 18 14C18 13.4477 17.5523 13 17 13H7ZM7 9C6.44772 9 6 9.44772 6 10C6 10.5523 6.44772 11 7 11H17C17.5523 11 18 10.5523 18 10C18 9.44772 17.5523 9 17 9H7ZM7 5C6.44772 5 6 5.44772 6 6C6 6.55228 6.44772 7 7 7H17C17.5523 7 18 6.55228 18 6C18 5.44772 17.5523 5 17 5H7Z" fill="currentColor"/>
</svg>
