<svg width="24" height="24" viewBox="0 0 24 24" fill="currentColor" xmlns="http://www.w3.org/2000/svg">
<path d="M17 10C17 8.34315 15.6569 7 14 7H10C8.34315 7 7 8.34315 7 10V14C7 15.6569 8.34315 17 10 17H14C15.6569 17 17 15.6569 17 14V10ZM19 14C19 16.7614 16.7614 19 14 19H10C7.23858 19 5 16.7614 5 14V10C5 7.23858 7.23858 5 10 5H14C16.7614 5 19 7.23858 19 10V14Z" fill="currentColor"/>
<path d="M11 5H10C9.65756 5 9.32309 5.03403 9 5.09961V4H7C5.34315 4 4 5.34315 4 7V17C4 18.6569 5.34315 20 7 20H9V18.8994C9.32314 18.965 9.6575 19 10 19H11V22H7C4.23858 22 2 19.7614 2 17V7C2 4.23858 4.23858 2 7 2H11V5Z" fill="currentColor"/>
<path d="M17 2C19.7614 2 22 4.23858 22 7V17C22 19.7614 19.7614 22 17 22H13V19H15V20H17C18.6569 20 20 18.6569 20 17V7C20 5.34315 18.6569 4 17 4H15V5H13V2H17Z" fill="currentColor"/>
</svg>
