<svg width="24" height="24" viewBox="0 0 24 24" fill="currentColor" xmlns="http://www.w3.org/2000/svg">
<path d="M3 7C3 4.79086 4.79086 3 7 3H10V21H7C4.79086 21 3 19.2091 3 17V7Z" fill="currentColor"/>
<path d="M11 2V22H7C4.23858 22 2 19.7614 2 17V7C2 4.23858 4.23858 2 7 2H11ZM4 17C4 18.6569 5.34315 20 7 20H9V4H7C5.34315 4 4 5.34315 4 7V17Z" fill="currentColor"/>
<path d="M21 17C21 19.2091 19.2091 21 17 21H14V3H17C19.2091 3 21 4.79086 21 7V17Z" fill="currentColor"/>
<path d="M13 22V2H17C19.7614 2 22 4.23858 22 7V17C22 19.7614 19.7614 22 17 22H13ZM20 7C20 5.34315 18.6569 4 17 4H15V20H17C18.6569 20 20 18.6569 20 17V7Z" fill="currentColor"/>
</svg>
