<svg width="24" height="24" viewBox="0 0 24 24" fill="currentColor" xmlns="http://www.w3.org/2000/svg">
<path d="M13 2V22H17C19.7614 22 22 19.7614 22 17V7C22 4.23858 19.7614 2 17 2H13ZM20 17C20 18.6569 18.6569 20 17 20H15V4H17C18.6569 4 20 5.34315 20 7V17Z" fill="currentColor"/>
<path d="M4 7C4 5.34315 5.34315 4 7 4H9V9H4V7ZM2 11H11V2H7C4.23858 2 2 4.23858 2 7V11Z" fill="currentColor"/>
<path d="M4 15H9V20H7C5.34315 20 4 18.6569 4 17V15ZM2 17C2 19.7614 4.23858 22 7 22H11V13H2V17Z" fill="currentColor"/>
</svg>
