<svg width="24" height="24" viewBox="0 0 24 24" fill="currentColor" xmlns="http://www.w3.org/2000/svg">
<path d="M2 11H22V7C22 4.23858 19.7614 2 17 2H7C4.23858 2 2 4.23858 2 7V11ZM17 4C18.6569 4 20 5.34315 20 7V9H4V7C4 5.34315 5.34315 4 7 4H17Z" fill="currentColor"/>
<path d="M7 20C5.34315 20 4 18.6569 4 17V15H9V20H7ZM11 22V13H2V17C2 19.7614 4.23858 22 7 22H11Z" fill="currentColor"/>
<path d="M15 20V15H20V17C20 18.6569 18.6569 20 17 20H15ZM17 22C19.7614 22 22 19.7614 22 17V13H13V22H17Z" fill="currentColor"/>
</svg>
