<svg width="24" height="24" viewBox="0 0 24 24" fill="currentColor" xmlns="http://www.w3.org/2000/svg">
<path d="M12 2C17.5228 2 22 6.47715 22 12C22 17.5228 17.5228 22 12 22C6.47715 22 2 17.5228 2 12C2 6.47715 6.47715 2 12 2ZM12 4C7.58172 4 4 7.58172 4 12C4 16.4183 7.58172 20 12 20C16.4183 20 20 16.4183 20 12C20 7.58172 16.4183 4 12 4Z" fill="currentColor"/>
<path d="M12 6C13.4281 6 14.8093 6.50937 15.8955 7.43655C16.9816 8.36373 17.7015 9.64792 17.9256 11.0583C18.1498 12.4687 17.8635 13.9128 17.1183 15.131C16.3731 16.3492 15.2178 17.2617 13.8601 17.7044C12.5023 18.1471 11.0312 18.091 9.71114 17.5463C8.39105 17.0015 7.30857 16.0037 6.65824 14.7323C6.00791 13.4609 5.8324 11.9992 6.16324 10.61C6.49408 9.22076 7.30958 7.99509 8.46316 7.15327L12 12V6Z" fill="currentColor"/>
</svg>
