<svg width="24" height="24" viewBox="0 0 24 24" fill="currentColor" xmlns="http://www.w3.org/2000/svg">
<path d="M12 2C17.5228 2 22 6.47715 22 12C22 17.5228 17.5228 22 12 22C6.47715 22 2 17.5228 2 12C2 6.47715 6.47715 2 12 2ZM12 4C7.58172 4 4 7.58172 4 12C4 16.4183 7.58172 20 12 20C16.4183 20 20 16.4183 20 12C20 7.58172 16.4183 4 12 4Z" fill="currentColor"/>
<path d="M12 6C12.7879 6 13.5681 6.15519 14.2961 6.45672C15.0241 6.75825 15.6855 7.20021 16.2426 7.75736C16.7998 8.31451 17.2417 8.97595 17.5433 9.7039C17.8448 10.4319 18 11.2121 18 12L12 12V6Z" fill="currentColor"/>
</svg>
