<svg width="24" height="24" viewBox="0 0 24 24" fill="currentColor" xmlns="http://www.w3.org/2000/svg">
<path d="M15 18V20H9V18H15ZM16 17V8H8V17C8 17.5523 8.44772 18 9 18V20C7.39489 20 6.08421 18.7394 6.00391 17.1543L6 17V6H18V17L17.9961 17.1543C17.9158 18.7394 16.6051 20 15 20V18C15.5523 18 16 17.5523 16 17Z" fill="currentColor"/>
<path d="M8 6C8 4.89543 8.89543 4 10 4H14C15.1046 4 16 4.89543 16 6H8Z" fill="currentColor"/>
<path d="M9 10C9 9.44772 9.44772 9 10 9C10.5523 9 11 9.44772 11 10V16C11 16.5523 10.5523 17 10 17C9.44772 17 9 16.5523 9 16V10Z" fill="currentColor"/>
<path d="M13 10C13 9.44772 13.4477 9 14 9C14.5523 9 15 9.44772 15 10V16C15 16.5523 14.5523 17 14 17C13.4477 17 13 16.5523 13 16V10Z" fill="currentColor"/>
<path d="M4 7C4 6.44772 4.44772 6 5 6H19C19.5523 6 20 6.44772 20 7C20 7.55228 19.5523 8 19 8H5C4.44772 8 4 7.55228 4 7Z" fill="currentColor"/>
</svg>
