<svg width="24" height="24" viewBox="0 0 24 24" fill="currentColor" xmlns="http://www.w3.org/2000/svg">
<path d="M14.5 14.5C14.5 13.9907 14.3431 13.6865 14.0732 13.4766C13.8669 13.3162 13.5298 13.1629 13 13.0752C13 14.2778 13 15.4559 13 16.502C13.2216 16.4164 13.4269 16.3146 13.6064 16.1914C14.1579 15.8129 14.5 15.2646 14.5 14.5ZM16.5 14.5C16.5 15.9854 15.7795 17.1246 14.7373 17.8398C14.2172 18.1968 13.6231 18.4448 13 18.5928C13 19.2106 13 19.6971 13 20C13 20.7714 12.7005 21.423 12.1953 21.8721C11.7085 22.3047 11.088 22.5 10.5 22.5C9.91195 22.5 9.29148 22.3047 8.80469 21.8721C8.29948 21.423 7.99995 20.7714 8 20H10C9.99998 20.2286 10.0755 20.327 10.1328 20.3779C10.2085 20.4452 10.3381 20.5 10.5 20.5C10.6619 20.5 10.7914 20.4452 10.8672 20.3779C10.9245 20.327 11 20.2285 11 20C11 19.7205 11 19.2845 11 18.7334C9.81499 18.6281 8.60752 18.1901 7.66602 17.3594C6.6521 16.4646 6 15.1591 6 13.5C6 12.0762 6.81427 11.0087 7.77051 10.2207C8.69968 9.455 9.89505 8.8421 11 8.31836C11 6.932 11 5.74826 11 5C11 4.0171 11.3338 3.18967 11.918 2.60547C12.4928 2.03069 13.2527 1.75001 14 1.75C14.7473 1.75001 15.5072 2.03069 16.082 2.60547C16.6054 3.12885 16.9268 3.84751 16.9883 4.69824C16.9947 4.70435 16.9993 4.70713 17 4.70801V6C17 6.63726 16.7069 7.15422 16.3574 7.54395C16.015 7.92572 15.5666 8.24533 15.1094 8.52051C14.5013 8.88649 13.7518 9.24189 13 9.59082C13 10.0675 13 10.558 13 11.0547C13.9186 11.1615 14.6992 11.4298 15.3018 11.8984C16.1566 12.5635 16.5 13.5095 16.5 14.5ZM8 13.5C8 14.5908 8.41051 15.3479 8.99023 15.8594C9.52085 16.3275 10.2353 16.6229 11 16.7217C11 15.661 11 14.4512 11 13.2109C10.8133 13.3171 10.7161 13.4408 10.6602 13.5303C10.5822 13.6551 10.5394 13.787 10.5176 13.8916C10.5071 13.9422 10.5029 13.9814 10.501 14.0029C10.5 14.0134 10.5 14.0195 10.5 14.0195V14.001L8.5 13.999V13.9736C8.50022 13.963 8.50135 13.95 8.50195 13.9355C8.50318 13.9062 8.50487 13.8691 8.50879 13.8252C8.51663 13.7373 8.53206 13.6202 8.56055 13.4834C8.61687 13.2132 8.73051 12.8447 8.96484 12.4697C9.35451 11.8465 10.0085 11.3156 11 11.1016C11 10.9154 11 10.73 11 10.5459C10.246 10.9315 9.57072 11.328 9.04199 11.7637C8.31073 12.3663 8 12.9238 8 13.5ZM13 7.37695C13.3956 7.18439 13.7586 6.9999 14.0781 6.80762C14.4645 6.57508 14.7195 6.37488 14.8691 6.20801C14.9401 6.12882 14.9736 6.07255 14.9883 6.04004C15.0012 6.01156 15 6.00098 15 6C15 5.51337 15 5.19724 15 5L14.9922 4.81641C14.9581 4.41071 14.8131 4.16463 14.668 4.01953C14.4928 3.84434 14.2526 3.75001 14 3.75C13.7474 3.75 13.5072 3.84433 13.332 4.01953C13.1662 4.18533 13 4.48293 13 5C13 5.57229 13 6.39937 13 7.37695Z" fill="currentColor"/>
</svg>
