<svg width="24" height="24" viewBox="0 0 24 24" fill="currentColor" xmlns="http://www.w3.org/2000/svg">
<path d="M12 2C17.5228 2 22 6.47715 22 12C22 17.5228 17.5228 22 12 22C6.47715 22 2 17.5228 2 12C2 6.47715 6.47715 2 12 2ZM16.5 4.20605C15.5435 3.65386 14.3209 3.98108 13.7686 4.9375C13.5404 5.33267 13.4641 5.77319 13.5186 6.19336C13.0336 6.06688 12.5246 6 12 6C9.23603 6 6.90907 7.86905 6.21289 10.4121C5.87625 10.1546 5.45659 10 5 10C3.89543 10 3 10.8954 3 12C3 13.1046 3.89543 14 5 14C5.45681 14 5.87617 13.8447 6.21289 13.5869C6.90876 16.1304 9.23571 18 12 18C12.5247 18 13.0335 17.9322 13.5186 17.8057C13.4639 18.2261 13.5402 18.667 13.7686 19.0625C14.321 20.0187 15.5436 20.3461 16.5 19.7939C17.4564 19.2417 17.7844 18.019 17.2324 17.0625C17.0035 16.666 16.6584 16.3794 16.2656 16.2168C17.3371 15.133 18 13.6444 18 12C18 10.3553 17.3374 8.86606 16.2656 7.78223C16.6583 7.61959 17.0036 7.3339 17.2324 6.9375C17.7846 5.98093 17.4566 4.75832 16.5 4.20605Z" fill="currentColor"/>
<path d="M6.5 12C6.5 11.1716 5.82843 10.5 5 10.5C4.17157 10.5 3.5 11.1716 3.5 12C3.5 12.8284 4.17157 13.5 5 13.5V14C3.89543 14 3 13.1046 3 12C3 10.8954 3.89543 10 5 10C6.10457 10 7 10.8954 7 12C7 13.1046 6.10457 14 5 14V13.5C5.82843 13.5 6.5 12.8284 6.5 12Z" fill="currentColor"/>
<path d="M14.7501 16.7631C14.0327 17.1773 13.7869 18.0947 14.2011 18.8121C14.6153 19.5296 15.5327 19.7754 16.2501 19.3612C16.9676 18.947 17.2134 18.0296 16.7992 17.3121L17.2322 17.0621C17.7845 18.0187 17.4567 19.2419 16.5001 19.7942C15.5435 20.3465 14.3204 20.0187 13.7681 19.0621C13.2158 18.1056 13.5435 16.8824 14.5001 16.3301C15.4567 15.7778 16.6799 16.1056 17.2322 17.0621L16.7992 17.3121C16.3849 16.5947 15.4676 16.3489 14.7501 16.7631Z" fill="currentColor"/>
<path d="M14.7504 7.23666C15.4678 7.65087 16.3852 7.40506 16.7994 6.68762C17.2136 5.97018 16.9678 5.05279 16.2504 4.63858C15.5329 4.22437 14.6155 4.47018 14.2013 5.18762L13.7683 4.93762C14.3206 3.98103 15.5438 3.65328 16.5004 4.20557C17.457 4.75785 17.7847 5.98103 17.2324 6.93762C16.6801 7.8942 15.457 8.22195 14.5004 7.66967C13.5438 7.11738 13.216 5.8942 13.7683 4.93762L14.2013 5.18762C13.7871 5.90506 14.0329 6.82244 14.7504 7.23666Z" fill="currentColor"/>
<path d="M16 12C16 14.2091 14.2091 16 12 16C9.79086 16 8 14.2091 8 12C8 9.79086 9.79086 8 12 8C14.2091 8 16 9.79086 16 12Z" fill="currentColor"/>
<path d="M15 11.5H19V12.5H15V11.5Z" fill="currentColor"/>
<path d="M10.0669 9.65186L8.06689 6.18775L8.93292 5.68775L10.9329 9.15186L10.0669 9.65186Z" fill="currentColor"/>
<path d="M10.9331 14.8479L8.93311 18.312L8.06708 17.812L10.0671 14.3479L10.9331 14.8479Z" fill="currentColor"/>
</svg>
