<svg width="24" height="24" viewBox="0 0 24 24" fill="currentColor" xmlns="http://www.w3.org/2000/svg">
<path d="M3.08787 5.73284C2.98613 5.19001 3.34393 4.66716 3.88676 4.56542C4.42941 4.46377 4.95177 4.8209 5.05371 5.36345L5.5922 8.24112L8.47073 7.70215C9.01331 7.60059 9.53572 7.95771 9.63768 8.50018C9.73941 9.04302 9.38162 9.56587 8.83879 9.6676L4.9791 10.3914C4.43627 10.4931 3.91342 10.1354 3.81168 9.59253L3.08787 5.73284Z" fill="currentColor"/>
<path d="M4.63659 11.9772C4.03396 11.9772 3.5384 12.4676 3.61354 13.0655C3.83427 14.8218 4.5855 16.479 5.77973 17.8087C7.21827 19.4104 9.19808 20.4239 11.3386 20.6543C13.4791 20.8847 15.6293 20.3159 17.3758 19.057C19.1222 17.7982 20.3418 15.9382 20.8 13.8347C21.2582 11.7311 20.9228 9.53242 19.8581 7.66123C18.7934 5.79004 17.0747 4.3784 15.0322 3.69767C12.9898 3.01693 10.7678 3.11514 8.79345 3.97342C7.15437 4.68594 5.78194 5.88053 4.85074 7.38588C4.53371 7.89837 4.78039 8.5505 5.32842 8.80115C5.87645 9.05179 6.51686 8.80381 6.85498 8.30498C7.54713 7.28383 8.51855 6.4725 9.66346 5.97481C11.1441 5.33115 12.8105 5.25749 14.3422 5.76801C15.8739 6.27852 17.1629 7.33717 17.9613 8.74046C18.7598 10.1437 19.0113 11.7926 18.6677 13.3702C18.3241 14.9477 17.4095 16.3426 16.0997 17.2867C14.7899 18.2307 13.1774 18.6574 11.5722 18.4845C9.96691 18.3117 8.48216 17.5517 7.40334 16.3505C6.56916 15.4217 6.0232 14.2798 5.81848 13.0633C5.71847 12.469 5.23922 11.9772 4.63659 11.9772Z" fill="currentColor"/>
</svg>
