<svg width="24" height="24" viewBox="0 0 24 24" fill="currentColor" xmlns="http://www.w3.org/2000/svg">
<path d="M2.80769 4.22176C2.41717 3.83123 2.41717 3.19807 2.80769 2.80754V2.80754C3.19822 2.41702 3.83138 2.41702 4.22191 2.80754L21.1925 19.7781C21.583 20.1686 21.583 20.8018 21.1925 21.1923V21.1923C20.8019 21.5828 20.1688 21.5828 19.7783 21.1923L2.80769 4.22176Z" fill="currentColor"/>
<path d="M14.8242 19.0668C13.6462 20.1184 11.8376 20.0793 10.707 18.9487L9.21096 17.4526L2.79303 21.8012C2.62306 21.9161 2.39511 21.8946 2.25006 21.7495C2.10541 21.6044 2.08367 21.3763 2.1983 21.2065L6.53714 14.7788L5.05082 13.2925C3.92042 12.1618 3.88116 10.3533 4.93266 9.17528L14.8242 19.0668ZM13.3223 2.89894C14.4938 1.72773 16.3939 1.72767 17.5654 2.89894L21.1005 6.43506C22.2719 7.60654 22.2718 9.50567 21.1005 10.6772L20.7431 11.0346C19.9264 11.8514 18.7566 12.0968 17.7256 11.7749C17.5957 12.0026 17.4374 12.2192 17.2431 12.4135L16.9492 12.7065L11.292 7.04931L11.5859 6.75634C11.7802 6.56217 11.996 6.40274 12.2236 6.27295C11.9026 5.24241 12.1486 4.07257 12.9648 3.25636L13.3223 2.89894Z" fill="currentColor"/>
</svg>
