<svg width="24" height="24" viewBox="0 0 24 24" fill="currentColor" xmlns="http://www.w3.org/2000/svg">
<path d="M15.0894 20C15.0891 21.1044 14.1938 22 13.0894 22H11.2075C10.1031 22 9.20773 21.1044 9.20752 20V18.4111C10.0679 18.7889 11.0182 19 12.0181 19C13.12 19 14.162 18.7446 15.0894 18.291V20ZM13.0894 2C14.1939 2 15.0894 2.89543 15.0894 4V5.70801C14.1621 5.25454 13.1198 5 12.0181 5C11.0183 5 10.0678 5.21026 9.20752 5.58789V4C9.20752 2.89543 10.103 2 11.2075 2H13.0894Z" fill="currentColor"/>
<path d="M5.05262 12.6991C5.26094 14.7993 6.39804 16.6254 8.04676 17.7636L6.69129 18.5468C5.7347 19.0991 4.51115 18.7709 3.95887 17.8144L3.01844 16.1845C2.46615 15.2279 2.7933 14.0043 3.74988 13.4521L5.05262 12.6991ZM17.6063 5.45303C18.5628 4.90082 19.7854 5.22819 20.3378 6.18448L21.2792 7.81436C21.8314 8.77082 21.504 9.99439 20.5477 10.5468L18.994 11.4433C18.828 9.33354 17.7275 7.4885 16.1054 6.31924L17.6063 5.45303Z" fill="currentColor"/>
<path d="M18.9999 12C19.5523 12 20.0065 11.5505 19.9377 11.0024C19.7593 9.58348 19.2029 8.23173 18.3182 7.09273C17.2281 5.68918 15.7016 4.68858 13.9797 4.24881C12.2578 3.80904 10.4385 3.95514 8.80889 4.66405C7.48639 5.23934 6.3499 6.15871 5.51303 7.31831C5.18975 7.76625 5.37282 8.37857 5.85757 8.64346C6.34233 8.90835 6.94404 8.72337 7.28571 8.28929C7.89625 7.51362 8.69225 6.89631 9.60687 6.49845C10.829 5.9668 12.1934 5.85724 13.4847 6.18704C14.776 6.51685 15.9208 7.26724 16.7383 8.31982C17.3501 9.10754 17.7526 10.0309 17.9165 11.0044C18.0081 11.5491 18.4475 12 18.9999 12Z" fill="currentColor"/>
<path d="M8.80855 4.66402C10.4382 3.95512 12.2576 3.80924 13.9795 4.24898C15.7013 4.68875 17.2282 5.68919 18.3183 7.09273C19.2028 8.2316 19.7591 9.58324 19.9375 11.0019C20.0063 11.5499 19.5523 11.9998 19 12L18.8974 11.9951C18.3937 11.9435 18.0019 11.5145 17.916 11.0039C17.7726 10.1522 17.4471 9.3387 16.958 8.62105L16.7382 8.31929C15.9717 7.33256 14.9174 6.61184 13.7246 6.25386L13.4843 6.18746C12.193 5.85769 10.8285 5.96638 9.6064 6.498C8.69184 6.89587 7.89563 7.51339 7.28511 8.28902C6.96468 8.69605 6.41604 8.88415 5.94918 8.68746L5.85738 8.64351C5.37268 8.37865 5.18953 7.76624 5.51265 7.31832C6.29726 6.23114 7.34573 5.35561 8.56343 4.77632L8.80855 4.66402ZM18.5742 9.59859C18.6716 9.86541 18.7529 10.138 18.8173 10.415L18.9023 10.8388C18.8311 10.4155 18.721 10.0005 18.5742 9.59859ZM18.4003 9.16793C18.3501 9.05426 18.2966 8.942 18.2402 8.83101C18.2966 8.94199 18.3501 9.05426 18.4003 9.16793ZM17.7861 8.06148C17.9395 8.28684 18.0786 8.5205 18.2041 8.7607C18.0786 8.52048 17.9395 8.28685 17.7861 8.06148ZM7.69918 6.47847C7.29966 6.78967 6.93397 7.14263 6.61031 7.53316L6.49996 7.67086C6.85034 7.22571 7.25337 6.82573 7.69918 6.47847ZM15.8369 6.14644C15.9971 6.25148 16.1534 6.3625 16.3046 6.48043C16.3805 6.53959 16.4548 6.60073 16.5283 6.66304C16.748 6.84948 16.9572 7.0493 17.1533 7.26265C16.7609 6.83585 16.3181 6.46188 15.8369 6.14644ZM8.06246 6.21285C7.95209 6.28794 7.84397 6.36607 7.73824 6.44722C7.84396 6.36608 7.9521 6.28794 8.06246 6.21285ZM8.42281 5.98335C8.30604 6.05278 8.19131 6.12523 8.07906 6.20113C8.1913 6.12523 8.30605 6.05277 8.42281 5.98335ZM10.8691 5.09175C10.3009 5.18477 9.74278 5.34839 9.20797 5.58101C8.94706 5.69451 8.69435 5.82369 8.45113 5.96675C8.69433 5.8237 8.94707 5.6945 9.20797 5.58101C9.38615 5.50351 9.56709 5.43411 9.74996 5.37203C9.93293 5.30991 10.118 5.25554 10.3046 5.20894C10.4914 5.16232 10.6796 5.12277 10.8691 5.09175ZM15.0878 5.71773V5.71871V5.71773Z" fill="currentColor"/>
<path d="M5.00013 12C4.44772 12 3.99345 12.4495 4.06234 12.9976C4.24631 14.4614 4.83263 15.8529 5.76519 17.0128C6.90767 18.4338 8.50125 19.4218 10.282 19.8134C12.0628 20.2049 13.9238 19.9764 15.557 19.1657C16.89 18.504 18.0059 17.4867 18.787 16.2351C19.0794 15.7664 18.8556 15.1678 18.3541 14.9361C17.8527 14.7044 17.2647 14.9294 16.953 15.3855C16.3769 16.2283 15.5918 16.915 14.6675 17.3739C13.4427 17.9818 12.047 18.1532 10.7116 17.8596C9.37611 17.566 8.18101 16.825 7.32422 15.7593C6.6776 14.9551 6.25296 14.0024 6.08353 12.9956C5.99185 12.4509 5.55254 12 5.00013 12Z" fill="currentColor"/>
<path d="M15.5565 19.1661C13.9235 19.9765 12.0627 20.205 10.2821 19.8135C8.5014 19.422 6.90798 18.4336 5.76551 17.0127C4.83303 15.853 4.24642 14.4617 4.06239 12.9981C3.99351 12.4501 4.44758 12.0002 4.99989 12L5.10242 12.0049C5.60615 12.0565 5.99793 12.4855 6.08387 12.9961C6.23219 13.877 6.57584 14.7164 7.09266 15.4512L7.3241 15.7598C8.12734 16.7587 9.22802 17.4726 10.4628 17.7998L10.7118 17.8594C12.0472 18.153 13.4431 17.982 14.6679 17.3741C15.592 16.9153 16.377 16.2285 16.953 15.3858C17.2647 14.9297 17.8529 14.7049 18.3544 14.9366C18.8556 15.1684 19.0794 15.7669 18.787 16.2354C18.0549 17.4086 17.0282 18.3756 15.8046 19.0371L15.5565 19.1661ZM5.18543 13.5987L5.09754 13.1612C5.14559 13.4468 5.2121 13.7283 5.29481 14.0049C5.25464 13.8706 5.21749 13.7353 5.18543 13.5987ZM5.45008 14.4659C5.60326 14.8727 5.79416 15.2654 6.02137 15.6387C5.79417 15.2654 5.60325 14.8727 5.45008 14.4659ZM6.54481 16.3858C6.60728 16.4635 6.67169 16.5396 6.73719 16.6143C6.67169 16.5396 6.60728 16.4635 6.54481 16.3858C6.36337 16.1601 6.1977 15.9239 6.04676 15.6797C6.19771 15.9239 6.36335 16.1601 6.54481 16.3858ZM16.6005 17.2745C17.0397 16.8914 17.4299 16.4547 17.7616 15.9737C17.4299 16.4546 17.0396 16.8914 16.6005 17.2745ZM16.2548 17.5577C16.3692 17.4701 16.4811 17.3795 16.5897 17.2852C16.4811 17.3795 16.3692 17.4701 16.2548 17.5577ZM8.06434 17.7881C8.38937 18.0091 8.7326 18.2026 9.09071 18.3663C8.73263 18.2026 8.38935 18.0091 8.06434 17.7881ZM15.5145 18.0538C15.7673 17.907 16.0101 17.7453 16.2411 17.5694C16.0101 17.7453 15.7673 17.907 15.5145 18.0538ZM11.3788 18.9727C12.6585 19.0867 13.9511 18.8459 15.1122 18.2696C15.2438 18.2042 15.3733 18.1356 15.4999 18.0625C15.3733 18.1356 15.2438 18.2043 15.1122 18.2696C14.8443 18.4026 14.5691 18.5173 14.2889 18.6143C13.8218 18.776 13.3404 18.8874 12.8524 18.9473C12.6576 18.9712 12.4618 18.9867 12.2655 18.9942C12.167 18.9979 12.0683 18.9995 11.9696 18.9991C11.7727 18.9982 11.5756 18.9902 11.3788 18.9727ZM10.497 18.836V18.837V18.836ZM5.3075 14.0508C5.34764 14.1818 5.39258 14.3111 5.44032 14.4395C5.39258 14.3111 5.34763 14.1818 5.3075 14.0508Z" fill="currentColor"/>
<path d="M15.0181 12C15.0181 13.6569 13.6749 15 12.0181 15C10.3612 15 9.01807 13.6569 9.01807 12C9.01807 10.3431 10.3612 9 12.0181 9C13.6749 9 15.0181 10.3431 15.0181 12Z" fill="currentColor"/>
<path d="M14.0181 12C14.0181 10.8954 13.1226 10 12.0181 10C10.9135 10 10.0181 10.8954 10.0181 12C10.0181 13.1046 10.9135 14 12.0181 14V15C10.3612 15 9.01807 13.6569 9.01807 12C9.01807 10.3431 10.3612 9 12.0181 9C13.6749 9 15.0181 10.3431 15.0181 12C15.0181 13.6569 13.6749 15 12.0181 15V14C13.1226 14 14.0181 13.1046 14.0181 12Z" fill="currentColor"/>
<path d="M3.49881 6.29143C3.39707 5.7486 3.75487 5.22575 4.2977 5.12401C4.84026 5.02249 5.3627 5.37959 5.46465 5.92204L5.94292 8.47857L8.49898 7.99945C9.04182 7.89771 9.56467 8.2555 9.6664 8.79833C9.76794 9.34106 9.41025 9.86404 8.86751 9.96575L5.32935 10.628C4.78652 10.7297 4.26367 10.372 4.16193 9.82913L3.49881 6.29143Z" fill="currentColor"/>
<path d="M20.5012 17.7086C20.6029 18.2514 20.2451 18.7742 19.7023 18.876C19.1597 18.9775 18.6373 18.6204 18.5354 18.078L18.0571 15.5214L15.501 16.0006C14.9582 16.1023 14.4353 15.7445 14.3336 15.2017C14.2321 14.6589 14.5898 14.136 15.1325 14.0342L18.6707 13.372C19.2135 13.2703 19.7363 13.628 19.8381 14.1709L20.5012 17.7086Z" fill="currentColor"/>
</svg>
