<svg width="24" height="24" viewBox="0 0 24 24" fill="currentColor" xmlns="http://www.w3.org/2000/svg">
<path d="M16.7074 9.09268C17.0979 9.48321 17.097 10.1167 16.7065 10.5073C16.316 10.8975 15.6832 10.8973 15.2928 10.5068L12.0012 7.21342L8.70688 10.5068C8.31636 10.8974 7.68327 10.8978 7.29274 10.5073C6.90233 10.1168 6.9021 9.48367 7.29231 9.09312L11.2928 5.09265C11.4803 4.90517 11.7351 4.80004 12.0003 4.80004C12.2653 4.80014 12.519 4.90574 12.7065 5.09309L16.7074 9.09268Z" fill="currentColor"/>
<path d="M13.0001 14.3C13.0001 14.8523 12.5523 15.3001 12 15.3001C11.4477 15.3001 10.9999 14.8522 10.9999 14.3L11.0003 5.80029C11.0003 5.248 11.4482 4.80017 12.0004 4.80017C12.5525 4.80038 12.9996 5.24781 12.9997 5.79985L13.0001 14.3Z" fill="currentColor"/>
<path d="M19.0001 17.8001C19.0001 18.3524 18.5523 18.8003 18 18.8003L5.9999 18.7998C5.44765 18.7998 4.99978 18.352 4.99978 17.7997C5.00001 17.2476 5.4478 16.7996 5.9999 16.7996L18 16.8C18.5523 16.8 19.0001 17.2479 19.0001 17.8001Z" fill="currentColor"/>
</svg>
