<svg width="24" height="24" viewBox="0 0 24 24" fill="currentColor" xmlns="http://www.w3.org/2000/svg">
<path d="M5.74992 6C6.02491 6 6.27185 6.11896 6.44328 6.30762L9.22062 9.08594C9.58637 9.45192 9.58651 10.0452 9.22062 10.4111C8.85473 10.777 8.26138 10.7769 7.89543 10.4111L6.68742 9.20215V17.6182C6.68719 18.1355 6.26733 18.5547 5.74992 18.5547C5.23258 18.5546 4.81362 18.1355 4.8134 17.6182V9.19922L3.59953 10.4131C3.23356 10.7788 2.64021 10.7789 2.27433 10.4131C1.90846 10.0472 1.90865 9.45387 2.27433 9.08789L5.08781 6.27441C5.25732 6.10495 5.49131 6.00008 5.74992 6Z" fill="currentColor"/>
<path d="M12 2C17.5228 2 22 6.47715 22 12C22 17.5228 17.5228 22 12 22C10.0166 22 8.16996 21.4197 6.61523 20.4238C7.32786 20.2044 7.9226 19.7205 8.29004 19.0869C9.3992 19.6687 10.6606 20 12 20C16.4183 20 20 16.4183 20 12C20 7.58172 16.4183 4 12 4C10.5519 4 9.19419 4.38572 8.02246 5.05859L7.85742 4.89355C7.37866 4.4 6.72122 4.06861 5.98535 4.00977C7.65913 2.74784 9.74232 2 12 2Z" fill="currentColor"/>
<path d="M11 12C11 11.4477 11.4477 11 12 11H18C18.5523 11 19 11.4477 19 12C19 12.5523 18.5523 13 18 13H12C11.4477 13 11 12.5523 11 12Z" fill="currentColor"/>
<path d="M12 13C11.4477 13 11 12.5523 11 12V6C11 5.44772 11.4477 5 12 5C12.5523 5 13 5.44772 13 6V12C13 12.5523 12.5523 13 12 13Z" fill="currentColor"/>
</svg>
