<svg width="24" height="24" viewBox="0 0 24 24" fill="currentColor" xmlns="http://www.w3.org/2000/svg">
<path d="M20 12.5C20 10.567 18.433 9 16.5 9H7.5C5.567 9 4 10.567 4 12.5C4 14.433 5.567 16 7.5 16H16.5C18.433 16 20 14.433 20 12.5ZM17 12.5C17 12.2239 16.7761 12 16.5 12H7.5C7.22386 12 7 12.2239 7 12.5C7 12.7761 7.22386 13 7.5 13H16.5C16.7761 13 17 12.7761 17 12.5ZM19 12.5C19 13.8807 17.8807 15 16.5 15H7.5C6.11929 15 5 13.8807 5 12.5C5 11.1193 6.11929 10 7.5 10H16.5C17.8807 10 19 11.1193 19 12.5ZM22 12.5C22 15.5376 19.5376 18 16.5 18H7.5C4.46243 18 2 15.5376 2 12.5C2 9.46243 4.46243 7 7.5 7H16.5C19.5376 7 22 9.46243 22 12.5Z" fill="currentColor"/>
</svg>
