<svg width="24" height="24" viewBox="0 0 24 24" fill="currentColor" xmlns="http://www.w3.org/2000/svg">
<path d="M3 17C3 14.7909 4.79086 13 7 13V15C5.89543 15 5 15.8954 5 17C5 18.0357 5.78722 18.887 6.7959 18.9893L7 19H17L17.2041 18.9893C18.2128 18.887 19 18.0357 19 17C19 15.8954 18.1046 15 17 15V13C19.2091 13 21 14.7909 21 17C21 19.2091 19.2091 21 17 21H7C4.79086 21 3 19.2091 3 17ZM17 13V15H7V13H17Z" fill="currentColor"/>
<path d="M10 7C10 6.44772 10.4477 6 11 6H20C20.5523 6 21 6.44772 21 7C21 7.55228 20.5523 8 20 8H11C10.4477 8 10 7.55228 10 7Z" fill="currentColor"/>
<path d="M16.2911 10.7127C15.9006 10.3222 15.9006 9.68903 16.2911 9.29851L19.2925 6.29713C19.683 5.90661 20.3162 5.90661 20.7067 6.29713C21.0972 6.68766 21.0972 7.32082 20.7067 7.71135L17.7053 10.7127C17.3148 11.1032 16.6816 11.1032 16.2911 10.7127Z" fill="currentColor"/>
<path d="M16.2948 3.295C16.6854 2.90447 17.3185 2.90447 17.7091 3.295L20.705 6.29094C21.0955 6.68147 21.0955 7.31463 20.705 7.70515C20.3145 8.09568 19.6813 8.09568 19.2908 7.70515L16.2948 4.70921C15.9043 4.31869 15.9043 3.68552 16.2948 3.295Z" fill="currentColor"/>
<path d="M14 7C14 7.55228 13.5523 8 13 8L4 8C3.44772 8 3 7.55228 3 7C3 6.44772 3.44772 6 4 6L13 6C13.5523 6 14 6.44772 14 7Z" fill="currentColor"/>
<path d="M7.70696 3.2968C8.09748 3.68732 8.09748 4.32049 7.70696 4.71101L4.71162 7.70634C4.3211 8.09687 3.68793 8.09687 3.29741 7.70635C2.90689 7.31582 2.90689 6.68266 3.29741 6.29213L6.29274 3.2968C6.68327 2.90628 7.31643 2.90628 7.70696 3.2968Z" fill="currentColor"/>
<path d="M7.70906 10.7089C7.31854 11.0994 6.68537 11.0994 6.29485 10.7089L3.29872 7.71278C2.9082 7.32226 2.9082 6.68909 3.29872 6.29857C3.68924 5.90805 4.32241 5.90805 4.71293 6.29857L7.70906 9.2947C8.09958 9.68522 8.09958 10.3184 7.70906 10.7089Z" fill="currentColor"/>
</svg>
