<svg width="24" height="24" viewBox="0 0 24 24" fill="currentColor" xmlns="http://www.w3.org/2000/svg">
<path d="M12.001 7.80566C13.4907 7.80579 14.9656 8.1033 16.3389 8.68067C17.7119 9.25798 18.9559 10.1038 19.998 11.168L20.5801 10.5977C20.578 10.5998 20.5764 10.6024 20.5742 10.6045L13.3994 17.6299C12.6219 18.3911 11.378 18.3913 10.6006 17.6299L3.42676 10.6035C3.42462 10.6014 3.42302 10.5988 3.4209 10.5967L4.00293 11.167C5.04529 10.1028 6.2898 9.25782 7.66309 8.68067C9.03645 8.10351 10.5113 7.80554 12.001 7.80566ZM20.5068 7.88086C20.5112 7.88423 20.5152 7.8882 20.5195 7.8916C20.5028 7.87876 20.4865 7.8653 20.4697 7.85254C20.4821 7.86194 20.4945 7.87141 20.5068 7.88086ZM3.48633 7.88574C3.4891 7.88359 3.49232 7.88202 3.49512 7.87988C3.50097 7.8754 3.50683 7.87068 3.5127 7.86621C3.504 7.87284 3.49501 7.87909 3.48633 7.88574Z" fill="currentColor"/>
</svg>
