<svg width="24" height="24" viewBox="0 0 24 24" fill="currentColor" xmlns="http://www.w3.org/2000/svg">
<path d="M20.5742 10.6045L13.3994 17.6299C12.6219 18.3911 11.378 18.3913 10.6006 17.6299L7.99902 15.082C8.52037 14.5498 9.14324 14.1266 9.83008 13.8379C10.517 13.5492 11.2549 13.4004 12 13.4004C12.7451 13.4005 13.4831 13.5492 14.1699 13.8379C14.8568 14.1267 15.4796 14.5497 16.001 15.082L20.5781 10.5996C20.5767 10.6011 20.5757 10.603 20.5742 10.6045ZM20.5068 7.88086C20.5112 7.88423 20.5152 7.8882 20.5195 7.8916C20.5028 7.87876 20.4865 7.8653 20.4697 7.85254C20.4821 7.86194 20.4945 7.87141 20.5068 7.88086ZM3.48633 7.88574C3.4891 7.88359 3.49232 7.88202 3.49512 7.87988C3.50097 7.8754 3.50683 7.87068 3.5127 7.86621C3.504 7.87284 3.49501 7.87909 3.48633 7.88574Z" fill="currentColor"/>
</svg>
