<svg width="24" height="24" viewBox="0 0 24 24" fill="currentColor" xmlns="http://www.w3.org/2000/svg">
<path d="M9.99805 17.0391C10.2591 16.7726 10.5702 16.5605 10.9141 16.416C11.2579 16.2715 11.6271 16.1973 12 16.1973C12.3729 16.1973 12.7422 16.2716 13.0859 16.416C13.4298 16.5606 13.742 16.7726 14.0029 17.0391L14.6396 16.416L13.3994 17.6299C12.6219 18.3911 11.378 18.3913 10.6006 17.6299L3.42676 10.6035L3.4248 10.6016L9.99805 17.0391ZM20.5068 7.88086C20.5112 7.88423 20.5152 7.8882 20.5195 7.8916C20.5028 7.87876 20.4865 7.8653 20.4697 7.85254C20.4821 7.86194 20.4945 7.87141 20.5068 7.88086ZM3.48633 7.88574C3.4891 7.88359 3.49232 7.88202 3.49512 7.87988C3.50097 7.8754 3.50683 7.87068 3.5127 7.86621C3.504 7.87284 3.49501 7.87909 3.48633 7.88574Z" fill="currentColor"/>
</svg>
