<svg width="24" height="24" viewBox="0 0 24 24" fill="currentColor" xmlns="http://www.w3.org/2000/svg">
<path d="M12.001 10.5967C13.1191 10.5968 14.2261 10.8205 15.2568 11.2539C16.2877 11.6873 17.2216 12.3221 18.0039 13.1211L20.5771 10.6006C20.576 10.6017 20.5754 10.6034 20.5742 10.6045L13.3994 17.6299C12.6219 18.3911 11.378 18.3913 10.6006 17.6299L3.42676 10.6035C3.42544 10.6022 3.42416 10.6009 3.42285 10.5996L5.99707 13.1201C6.77952 12.3213 7.71329 11.6862 8.74414 11.2529C9.77507 10.8197 10.8827 10.5966 12.001 10.5967ZM20.5068 7.88086C20.5112 7.88423 20.5152 7.8882 20.5195 7.8916C20.5028 7.87876 20.4865 7.8653 20.4697 7.85254C20.4821 7.86194 20.4945 7.87141 20.5068 7.88086ZM3.48633 7.88574C3.4891 7.88359 3.49232 7.88202 3.49512 7.87988C3.50097 7.8754 3.50683 7.87068 3.5127 7.86621C3.504 7.87284 3.49501 7.87909 3.48633 7.88574Z" fill="currentColor"/>
</svg>
