<svg width="24" height="24" viewBox="0 0 24 24" fill="currentColor" xmlns="http://www.w3.org/2000/svg">
<path d="M20 14C20 13.4638 19.9794 12.9928 19.7676 12.6396C19.6225 12.3978 19.2562 12 18 12C17.425 12 17.0602 12.1409 16.8203 12.3008C16.5742 12.4649 16.3977 12.6909 16.2695 12.9473C16.1394 13.2074 16.0692 13.4796 16.0332 13.6953C16.0156 13.8008 16.0069 13.8869 16.0029 13.9424C16.001 13.9695 16.0003 13.9888 16 13.999V14.0059L15.9951 14.1016C15.9441 14.606 15.5179 15 15 15C14.4478 15 14.0002 14.5522 14 14H15C14.0421 14 14.0017 13.9995 14 13.999V13.9746C14.0002 13.9634 14.0004 13.9493 14.001 13.9326C14.0021 13.8989 14.0049 13.8541 14.0088 13.7998C14.0165 13.6912 14.0313 13.5419 14.0605 13.3662C14.1184 13.0196 14.2357 12.5422 14.4805 12.0527C14.7273 11.5591 15.1134 11.0351 15.7109 10.6367C16.3148 10.2342 17.075 10 18 10C19.7437 10 20.8775 10.603 21.4824 11.6113C22.0204 12.5083 22 13.5374 22 14C22 14.4628 22.0205 15.4918 21.4824 16.3887C20.8775 17.3968 19.7436 17.9996 18 18H3C2.44775 18 2.00005 17.5522 2 17C2 16.4477 2.44772 16 3 16H18L18.2246 15.9951C19.3009 15.9503 19.6315 15.5862 19.7676 15.3594C19.9793 15.0063 20 14.5359 20 14Z" fill="currentColor"/>
<path d="M11 10C11 9.46384 10.9794 8.99276 10.7676 8.63965C10.6225 8.39783 10.2562 8 9 8C8.42498 8 8.0602 8.14088 7.82031 8.30078C7.57417 8.46486 7.39771 8.69094 7.26953 8.94727C7.13944 9.20745 7.06916 9.47963 7.0332 9.69531C7.01562 9.8008 7.00689 9.88695 7.00293 9.94238C7.001 9.96948 7.00034 9.98881 7 9.99902V10.0059L6.99512 10.1016C6.9441 10.606 6.51791 11 6 11C5.44781 11 5.00016 10.5522 5 10H6C5.04218 10 5.0017 9.99951 5 9.99902V9.97461C5.00018 9.96345 5.00042 9.94933 5.00098 9.93262C5.0021 9.89891 5.00491 9.85414 5.00879 9.7998C5.01655 9.69119 5.03126 9.54194 5.06055 9.36621C5.11836 9.01956 5.23574 8.54219 5.48047 8.05273C5.72729 7.55915 6.11336 7.03508 6.71094 6.63672C7.3148 6.23418 8.07504 6 9 6C10.7437 6 11.8775 6.60299 12.4824 7.61133C13.0204 8.50829 13 9.5374 13 10C13 10.4628 13.0205 11.4918 12.4824 12.3887C11.8775 13.3968 10.7436 13.9996 9 14H3C2.44775 14 2.00005 13.5522 2 13C2 12.4477 2.44772 12 3 12H9L9.22461 11.9951C10.3009 11.9503 10.6315 11.5862 10.7676 11.3594C10.9793 11.0063 11 10.5359 11 10Z" fill="currentColor"/>
</svg>
