<svg width="24" height="24" viewBox="0 0 24 24" fill="currentColor" xmlns="http://www.w3.org/2000/svg">
<path d="M18 6C20.2091 6 22 7.79086 22 10V18C22 20.2091 20.2091 22 18 22H6C3.79086 22 2 20.2091 2 18V10C2 7.79086 3.79086 6 6 6H18ZM6 17C4.89543 17 4 17.8954 4 19C4 20.1046 4.89543 21 6 21C7.10457 21 8 20.1046 8 19C8 17.8954 7.10457 17 6 17ZM10 18C9.44772 18 9 18.4477 9 19C9 19.5523 9.44772 20 10 20H19C19.5523 20 20 19.5523 20 19C20 18.4477 19.5523 18 19 18H10ZM6 12C4.89543 12 4 12.8954 4 14C4 15.1046 4.89543 16 6 16C7.10457 16 8 15.1046 8 14C8 12.8954 7.10457 12 6 12ZM10 13C9.44772 13 9 13.4477 9 14C9 14.5523 9.44772 15 10 15H19C19.5523 15 20 14.5523 20 14C20 13.4477 19.5523 13 19 13H10ZM6 7C4.89543 7 4 7.89543 4 9C4 10.1046 4.89543 11 6 11C7.10457 11 8 10.1046 8 9C8 7.89543 7.10457 7 6 7ZM10 8C9.44772 8 9 8.44772 9 9C9 9.55228 9.44772 10 10 10H19C19.5523 10 20 9.55228 20 9C20 8.44772 19.5523 8 19 8H10Z" fill="currentColor"/>
<path d="M20.5 2C21.3284 2 22 2.67157 22 3.5C22 4.32843 21.3284 5 20.5 5H3.5C2.67157 5 2 4.32843 2 3.5C2 2.67157 2.67157 2 3.5 2H20.5ZM3.5 3C3.22386 3 3 3.22386 3 3.5C3 3.77614 3.22386 4 3.5 4H13.5C13.7761 4 14 3.77614 14 3.5C14 3.22386 13.7761 3 13.5 3H3.5ZM20.5 3C20.2239 3 20 3.22386 20 3.5C20 3.77614 20.2239 4 20.5 4C20.7761 4 21 3.77614 21 3.5C21 3.22386 20.7761 3 20.5 3Z" fill="currentColor"/>
</svg>
