<svg width="24" height="24" viewBox="0 0 24 24" fill="currentColor" xmlns="http://www.w3.org/2000/svg">
<path d="M18.7012 8.29785C20.6249 8.99398 22 10.836 22 13V17C22 19.7614 19.7614 22 17 22H13C10.836 22 8.99398 20.6249 8.29785 18.7012C8.82929 18.8936 9.40213 19 10 19H10.7686C11.3178 19.6124 12.1126 20 13 20H17C18.6569 20 20 18.6569 20 17V13C20 12.1124 19.6127 11.3168 19 10.7676V10C19 9.40213 18.8936 8.82929 18.7012 8.29785Z" fill="currentColor"/>
<path d="M14 5C16.7614 5 19 7.23858 19 10V14C19 16.7614 16.7614 19 14 19H10C7.23858 19 5 16.7614 5 14V10C5 7.23858 7.23858 5 10 5H14ZM10 7C8.34315 7 7 8.34315 7 10V14C7 15.6569 8.34315 17 10 17H14C15.6569 17 17 15.6569 17 14V10C17 8.34315 15.6569 7 14 7H10Z" fill="currentColor"/>
<path d="M8.5 10.5C8.5 9.39543 9.39543 8.5 10.5 8.5H13.5C14.6046 8.5 15.5 9.39543 15.5 10.5V13.5C15.5 14.6046 14.6046 15.5 13.5 15.5H10.5C9.39543 15.5 8.5 14.6046 8.5 13.5V10.5Z" fill="currentColor"/>
<path d="M11 2C13.1636 2 15.0047 3.37469 15.7012 5.29785C15.1701 5.10567 14.5974 5 14 5H13.2314C12.6822 4.3876 11.8874 4 11 4H7C5.34315 4 4 5.34315 4 7V11C4 11.8874 4.3876 12.6822 5 13.2314V14C5 14.5974 5.10567 15.1701 5.29785 15.7012C3.37469 15.0047 2 13.1636 2 11V7C2 4.23858 4.23858 2 7 2H11Z" fill="currentColor"/>
<path d="M4 11C4 11.351 4.06306 11.6869 4.17383 12C4.06306 12.3131 4 12.649 4 13V17C4 18.6569 5.34315 20 7 20H9C9.72084 20.9596 10.7787 21.6514 11.998 21.8994C11.6755 21.9648 11.3418 22 11 22H7C4.23858 22 2 19.7614 2 17V13C2 11.3643 2.78565 9.91221 4 9V11Z" fill="currentColor"/>
<path d="M17 2C19.7614 2 22 4.23858 22 7V11C22 11.3425 21.965 11.6769 21.8994 12C21.6517 10.7799 20.9601 9.72121 20 9V7C20 5.34315 18.6569 4 17 4H15C14.2788 3.03987 13.2202 2.34728 12 2.09961C12.3231 2.03403 12.6576 2 13 2H17Z" fill="currentColor"/>
</svg>
