<svg width="24" height="24" viewBox="0 0 24 24" fill="currentColor" xmlns="http://www.w3.org/2000/svg">
<path d="M11 2C15.9706 2 20 6.02944 20 11C20 15.9706 15.9706 20 11 20C6.02944 20 2 15.9706 2 11C2 6.02944 6.02944 2 11 2ZM11 5C7.68629 5 5 7.68629 5 11C5 14.3137 7.68629 17 11 17C14.3137 17 17 14.3137 17 11C17 7.68629 14.3137 5 11 5Z" fill="currentColor"/>
<path d="M15.7071 18.1876C15.3166 17.7971 15.3166 17.1639 15.7071 16.7734L16.7734 15.7071C17.1639 15.3166 17.7971 15.3166 18.1876 15.7071L21.6438 19.1633C22.0343 19.5538 22.0343 20.187 21.6438 20.5775L20.5775 21.6438C20.187 22.0343 19.5538 22.0343 19.1633 21.6438L15.7071 18.1876Z" fill="currentColor"/>
<path d="M6.8583 12C6.38428 12 6 11.6157 6 11.1417V10.8583C6 10.3843 6.38428 10 6.8583 10H15.1417C15.6157 10 16 10.3843 16 10.8583V11.1417C16 11.6157 15.6157 12 15.1417 12H6.8583Z" fill="currentColor"/>
</svg>
